<svg width="231" height="231" viewBox="0 0 231 231" fill="none" xmlns="http://www.w3.org/2000/svg">
<path d="M185.039 204.968C172.525 204.968 162.658 200.862 162.084 195.416C161.947 194.325 161.947 191.615 162.084 190.513C162.169 189.837 163.154 189.831 163.247 190.507C163.863 195.064 173.434 198.634 185.038 198.634C196.568 198.634 206.342 194.996 206.827 190.523C206.902 189.831 207.905 189.834 207.991 190.512C208.109 191.457 208.284 194.428 207.973 195.514C207.571 200.764 197.487 204.967 185.038 204.967L185.039 204.968ZM163.156 193.133C163.159 193.984 163.19 194.815 163.248 195.282C163.743 199.982 173.518 203.796 185.038 203.796C196.682 203.796 206.455 199.989 206.824 195.309C206.942 194.877 206.978 194.025 206.969 193.136C200.472 201.961 169.897 202.09 163.155 193.133H163.156Z" fill="black"/>
<path d="M185.039 199.807C172.166 199.807 162.081 195.584 162.081 190.193C162.081 184.802 172.166 180.58 185.039 180.58C197.912 180.58 207.997 184.802 207.997 190.193C207.997 195.585 197.912 199.807 185.039 199.807ZM185.039 181.752C173.23 181.752 163.253 185.618 163.253 190.193C163.253 194.768 173.229 198.634 185.039 198.634C196.849 198.634 206.824 194.768 206.824 190.193C206.824 185.618 196.849 181.752 185.039 181.752Z" fill="black"/>
<path d="M199.954 186.923C197.861 186.531 195.636 186.269 193.542 186.269C181.845 185.582 174.65 184.585 166.984 188.232C164.577 189.376 161.797 191.497 163.844 193.203C168.94 198.616 181.785 199.639 189.225 199.091C191.657 198.911 205.101 197.007 206.202 192.733C206.877 190.112 202.75 187.448 199.952 186.924L199.954 186.923Z" fill="black"/>
<path d="M144.351 228.386C130.12 228.386 118.846 223.719 118.126 217.532C117.987 216.417 118.128 213.389 118.256 212.239C118.334 211.55 119.341 211.547 119.422 212.236C120.036 217.52 131.044 221.66 144.482 221.66C157.691 221.66 168.933 217.491 169.543 212.366C169.626 211.677 170.631 211.682 170.708 212.37C170.834 213.503 170.858 216.425 170.563 217.607C170.012 223.613 158.492 228.386 144.352 228.386H144.351ZM119.261 214.952C119.229 215.944 119.229 216.908 119.29 217.391C119.92 222.809 131.162 227.213 144.351 227.213C157.665 227.213 168.906 222.815 169.409 217.41C169.529 216.919 169.593 216.062 169.614 215.172C162.269 225.396 126.375 225.43 119.261 214.952Z" fill="black"/>
<path d="M144.481 222.833C129.774 222.833 118.253 218.036 118.253 211.912C118.253 205.788 129.774 200.99 144.481 200.99C159.188 200.99 170.711 205.788 170.711 211.912C170.711 218.036 159.189 222.833 144.481 222.833ZM144.481 202.162C130.9 202.162 119.425 206.627 119.425 211.912C119.425 217.196 130.9 221.66 144.481 221.66C158.063 221.66 169.538 217.195 169.538 211.912C169.538 206.628 158.064 202.162 144.481 202.162Z" fill="black"/>
<path d="M168.858 214.64C167.946 219.665 152.139 221.941 149.322 222.116C140.693 222.656 125.943 221.462 120.409 215.313C119.493 214.659 119.362 213.351 120.148 212.435C121.277 211.306 122.497 210.369 123.942 209.688C134.078 204.904 144.42 207.208 154.425 207.463C156.91 207.527 159.265 207.725 161.751 208.248C164.971 208.926 169.413 211.586 168.858 214.639V214.64Z" fill="black"/>
<path fill-rule="evenodd" clip-rule="evenodd" d="M25.2454 16.1971C25.1903 16.1536 25.1365 16.109 25.084 16.0631C25.1832 19.9198 27.9653 22.6204 32.4776 21.2929C36.9894 19.9668 40.8717 15.0481 41.1144 10.352C41.3222 6.33442 38.938 4.22426 35.8678 4.21309C37.6703 6.41056 37.278 10.3445 34.7968 13.4885C32.3333 16.6087 28.0103 18.3791 25.2454 16.1971ZM25.6605 6.27752C28.1813 3.08457 31.9953 1.79825 34.552 3.14055C36.4649 2.81537 38.3643 3.12592 39.9758 4.29245L45.184 8.07172C47.666 5.52153 51.0053 4.5863 53.3169 5.79971C55.2295 5.47476 57.1287 5.78543 58.7398 6.95173L65.4326 11.8084H65.4314C67.1651 13.1806 67.9027 15.2043 67.8698 17.4171L70.5378 19.3444C72.3493 19.1242 74.0944 19.5806 75.3486 20.9188L84.6624 27.9917C97.4801 28.422 99.8134 28.5976 101.823 30.6075C107.971 35.5743 112.403 42.5415 114.262 50.1899V50.191C115.062 51.9838 113.065 53.3275 110.96 53.3275C109.666 53.5241 107.519 53.7956 105.005 54.0712C104.72 58.8088 104.577 63.5648 104.577 68.3922C104.642 68.9049 104.6 69.3594 104.473 69.7629C113.432 70.4014 118.09 71.4423 121.232 72.1442C121.699 72.2479 122.213 72.3311 122.773 72.4212C124.608 72.7171 126.913 73.0889 129.518 74.5163C134.078 77.0149 137.948 80.8397 141.094 85.1688C151.788 99.8839 155.427 115.332 157.869 133.653V133.654C158.875 141 159.882 150.46 160.633 158.996C162.323 159.972 162.776 161.902 161.49 163.373C161.361 163.502 161.207 163.628 161.032 163.753C161.66 171.631 161.994 178.079 161.794 180.268C161.416 182.675 158.794 183.641 156.683 184.419L156.672 184.423C150.834 186.575 145.15 186.921 139.866 185.787C139.599 185.734 139.416 185.551 139.363 185.293C138.832 185.075 138.286 184.871 137.738 184.665C136.707 184.279 135.661 183.887 134.669 183.39C134.212 183.194 133.753 182.965 133.296 182.736H133.295C132.838 182.507 132.379 182.278 131.922 182.082C131.622 181.982 131.379 181.862 131.187 181.71C122.763 185.496 101.311 193.017 90.2493 196.894L90.2459 196.895L90.1652 196.924L90.0755 196.955L90.0627 196.96L90.0079 196.979C88.9855 197.337 88.0558 197.663 87.2381 197.951C85.7338 198.577 84.1016 199.128 82.494 199.396C82.3123 199.396 82.168 199.292 82.0872 199.128C76.7757 198.404 73.6145 197.874 66.4586 195.728C64.1568 195.123 61.8365 194.262 59.3694 193.101C58.191 192.512 57.3609 191.762 56.7043 191.104C55.9339 190.183 55.6138 189.212 55.7381 188.21C55.7369 185.29 56.0794 182.714 56.784 180.355C56.8005 180.019 59.7459 176.744 62.6221 174.155C64.5478 172.421 65.1858 171.698 65.7294 171.081C66.4141 170.305 66.9489 169.697 69.7169 167.458V156.441C69.7169 153.733 77.834 152.501 85.2222 152.744C85.3916 152.237 85.5422 151.721 85.673 151.197C84.9224 151.245 84.1569 151.27 83.384 151.27C76.2308 151.27 69.7158 149.12 69.7158 146.759V136.47C57.9953 135.196 49.0655 132.369 49.9646 128.131L49.9611 122.163C49.9611 116.782 66.6367 113.797 82.9072 113.606C82.6429 112.969 82.3049 112.323 81.8762 111.66C81.1551 111.283 80.3589 110.771 80.2463 109.867C80.115 109.213 80.115 108.69 80.2463 108.035C80.2463 107.899 80.2513 107.762 80.2594 107.625C79.0899 107.423 77.9573 107.054 76.9726 106.464C76.3184 106.203 75.7954 105.548 75.5339 104.894C75.5339 104.501 75.5339 103.978 75.6652 103.586C75.9438 102.565 76.1272 101.774 76.3033 101.014C76.4136 100.538 76.5211 100.074 76.6473 99.5743C75.8891 99.1404 75.2003 98.6017 74.6159 97.9586C73.5699 96.5199 73.0458 94.8198 72.9157 93.1185C72.7011 92.0444 72.3986 90.3513 72.9496 89.2738C72.7214 88.3464 72.6056 87.6964 72.4789 86.9861C72.2569 85.741 72.0019 84.3109 71.0508 80.8781C68.9452 80.5085 67.1184 80.1627 65.985 79.9053C62.1531 79.054 61.5282 78.8956 60.9853 78.0386C60.9255 78.0491 60.8833 78.0163 60.8833 77.9424C60.8328 77.8422 60.8169 77.7812 60.798 77.708C60.7867 77.664 60.7742 77.6156 60.7522 77.5516C60.7522 76.6615 60.7454 75.9236 60.74 75.3102C60.7214 73.2205 60.7158 72.5802 61.0254 72.3297C61.1621 72.219 61.3604 72.1842 61.6462 72.1342C61.7559 72.115 61.8789 72.0936 62.016 72.0645C64.0723 71.6311 66.1527 71.2485 68.2463 70.9149L68.2091 70.878C67.555 70.0924 67.4235 69.0464 67.5549 67.9994C67.7595 63.4923 67.6964 60.0579 67.646 57.3182C67.6102 55.3678 67.5807 53.7692 67.6591 52.3861C64.0744 51.7081 60.6627 51.0223 57.9988 50.4868L57.995 50.4861C56.4228 50.1702 55.1112 49.9065 54.1788 49.7279C53.1801 49.6175 52.2378 49.4041 51.1989 49.1689L51.1966 49.1684C51.0568 49.1367 50.9151 49.1047 50.7713 49.0724C50.0679 48.7923 49.4147 48.0782 49.5906 47.2961C50.0122 45.4188 51.0632 42.1566 52.1832 38.9624L44.3495 33.0135C43.0748 32.1212 42.3676 30.8052 42.1366 29.3001L39.4779 27.38C39.0167 27.5075 38.5458 27.6022 38.067 27.6609C36.2824 27.8825 34.5248 27.5332 33.1189 26.4216L26.4672 21.5955C24.6583 20.2996 23.6327 17.6727 23.997 14.6123C22.9245 12.3449 23.5023 9.01236 25.6605 6.27752ZM41.8343 7.08892L44.4096 8.95718C42.2652 11.6873 41.6926 15.0079 42.7612 17.2697C42.4795 19.6322 43.0262 21.7365 44.122 23.1698C42.4286 24.9249 40.2832 26.2079 37.9251 26.4977H37.924C36.3257 26.6935 34.934 26.3265 33.8271 25.4882C31.6742 23.8576 30.7299 23.1898 30.3583 22.9269C30.1953 22.8116 30.1424 22.7743 30.1461 22.7678C30.1477 22.7645 30.1625 22.7686 30.1845 22.7744C30.217 22.7832 30.2651 22.7961 30.3096 22.7961C37.4291 22.7961 44.2133 13.6257 41.8343 7.08892ZM51.2415 23.9521C46.729 25.2798 43.9468 22.5786 43.8478 18.7214C43.9008 18.7676 43.9551 18.8125 44.0106 18.8564C46.7755 21.0384 51.0986 19.2679 53.562 16.1478C56.0431 13.0038 56.4354 9.06995 54.6331 6.87236C57.7026 6.88411 60.0863 8.99427 59.8783 13.0113C59.6356 17.7073 55.7534 22.6261 51.2415 23.9521ZM67.7564 18.783C67.12 23.0804 63.8872 27.7195 59.588 29.5652L63.0584 32.0707C63.8158 32.65 64.8042 32.8716 65.9252 32.7204C71.1066 32.0215 74.8915 24.3098 71.5146 21.4969L67.7564 18.783ZM58.2428 30.039C57.7812 30.1666 57.3101 30.2614 56.8309 30.3202C56.1525 30.4044 55.4781 30.4061 54.8253 30.3149C52.8484 32.4742 50.2065 33.9602 47.5387 33.9644L62.2271 45.1186C64.7432 47.0347 68.9847 45.7383 71.7577 42.2374L63.1132 35.6728C61.8381 34.7802 61.1309 33.4638 60.9002 31.9581L58.2428 30.039ZM53.5153 29.9912C52.9359 29.7798 52.3869 29.4793 51.8829 29.0809L51.7852 29.0099C50.301 30.3726 48.4587 31.2769 46.5093 31.2769L46.5081 31.2782C45.4423 31.2782 44.4624 30.9824 43.6825 30.4183C43.9545 31.0137 44.3444 31.5285 44.8548 31.9312C47.0356 33.6538 50.7022 32.7592 53.5153 29.9912ZM50.8142 28.3054L45.2311 24.2547C45.1291 24.1816 45.0296 24.1043 44.9326 24.0227C43.7431 25.2428 42.3504 26.2508 40.8232 26.9063L44.2933 29.4114C45.0506 29.9907 46.0391 30.2124 47.16 30.0611C48.506 29.8796 49.7577 29.2247 50.8142 28.3054ZM62.4456 33.0761C62.7175 33.6721 63.1078 34.1874 63.6186 34.5905C66.0797 36.5346 70.4333 35.1451 73.3165 31.4915C76.948 26.8931 76.3833 21.14 72.1635 20.5189L72.2463 20.5788C76.8308 24.3555 71.619 33.9363 65.2744 33.9363L65.2733 33.9375C64.2065 33.9375 63.2259 33.6413 62.4456 33.0761ZM92.1122 33.6491L86.1755 29.1408L86.9985 29.1928C89.6127 29.3583 92.1951 29.5219 95.3391 29.5932C96.1797 29.612 97.418 29.6824 98.5308 30.0986C100.189 30.9283 99.6499 32.5438 99.1285 34.107L99.1276 34.1098C99.0634 34.3021 98.9807 34.5782 98.8753 34.9307C98.2996 36.854 97.0428 41.0537 94.3941 46.351L94.233 46.6963C93.3221 48.6512 91.5642 52.4234 90.9949 53.2806C90.8003 53.6711 90.4168 53.8376 89.7133 53.8376C81.9296 53.8376 70.5903 51.6173 60.5348 49.6482C57.5165 49.0573 54.6139 48.489 51.9579 48.0101H51.9567C51.0188 47.8437 50.769 47.771 51.1934 46.2913C51.3068 45.8964 51.4297 45.5173 51.5552 45.1301L51.5554 45.1296C51.8242 44.3003 52.105 43.4336 52.3319 42.2941C52.5295 41.7014 52.8475 40.7891 53.2157 39.7466L61.5188 46.052C64.792 48.5428 69.787 46.6212 72.6929 42.9476L80.2825 48.7113C83.5985 51.2346 88.6814 49.2295 91.5693 45.4622C93.511 42.9296 94.4667 39.8974 94.1266 37.3507H94.1255C93.9143 35.7725 93.2179 34.492 92.1122 33.6491ZM103.978 54.1818C97.7393 54.8413 89.7686 55.4698 86.7656 55.0934C83.0184 55.0934 75.5681 53.8665 68.5817 52.5595C68.5816 53.2291 68.5796 54.2985 68.5691 55.4756C73.9991 57.4278 81.4726 57.6494 87.0482 57.5334C87.3097 57.5287 87.441 57.6648 87.441 57.9262C87.441 59.7859 87.3226 61.7615 87.1994 63.6329C87.2565 63.6308 87.3856 63.6355 87.5832 63.6425C88.9341 63.6909 93.4784 63.8538 99.9999 62.7676C101.259 62.6539 102.519 62.3385 103.69 61.8237C103.735 59.2758 103.836 56.7287 103.978 54.1818ZM69.0467 71.5857C68.26 71.7232 67.4735 71.8672 66.6847 72.0118C65.5374 72.2219 64.385 72.4329 63.2201 72.6262C64.6622 72.7711 67.7905 73.1926 71.7568 73.7271C75.0439 74.17 78.9062 74.6904 82.8612 75.1952C84.333 75.3832 85.4591 75.5055 86.3842 75.6059C87.8834 75.7689 88.8545 75.8743 89.9139 76.1086L89.9127 76.1074C90.1531 75.9502 103.554 72.5922 116.737 72.1911C112.265 71.4439 108.105 70.901 104.083 70.5399C103.394 71.5057 102.098 72.0866 100.653 72.4479C98.1684 73.2335 95.6827 73.7564 93.0656 74.0179C87.4797 74.576 80.8454 74.487 77.6281 74.1481C75.2736 73.8866 72.9181 73.3636 70.8251 72.4479C70.2195 72.2751 69.6142 71.9874 69.0467 71.5857ZM95.9001 64.3409C94.2138 64.4701 92.5275 64.5991 90.8424 64.5991L90.8437 64.5979C90.0769 64.5979 89.3045 64.6017 88.5288 64.6058C81.5724 64.6409 74.3455 64.6775 68.4719 61.9104V65.958C72.4314 68.4496 81.5771 69.1286 86.15 69.1286C91.8403 68.9996 98.5906 68.7474 103.664 65.8314C103.664 65.8314 103.669 63.4699 103.676 62.8391C102.753 63.3808 101.673 63.579 100.524 63.6833C100.318 63.7175 100.115 63.7517 99.9134 63.7858C98.5749 64.0113 97.3096 64.2245 95.9453 64.3376L95.9001 64.3409ZM101.57 71.1406C102.093 70.8791 102.617 70.6165 103.14 70.2248H103.139C103.53 69.7019 103.793 69.0476 103.662 68.3933V66.7061C94.1455 71.9156 72.7164 70.0243 68.4694 66.9183V68.5246C68.3393 69.1789 68.6008 69.9645 69.1237 70.4875C70.4592 71.49 71.953 72.1759 73.5723 72.5805C75.7966 73.1034 78.0209 73.4962 80.3754 73.4962C85.0854 73.6264 89.9255 73.4962 94.6356 72.8419C96.9913 72.5805 99.3456 71.9262 101.57 71.1406ZM72.6853 83.5449C72.5194 82.7154 72.3534 81.8858 72.1713 81.0725C75.9041 81.7131 80.2383 82.39 83.1226 82.7838C84.0197 82.924 84.7555 83.0406 85.3669 83.1374L85.3718 83.1382L85.3822 83.1399H85.3829C87.417 83.4622 88.0691 83.5655 88.7248 83.5986C89.0338 83.6142 89.3437 83.614 89.7994 83.6139H89.8009H89.9256C89.9256 83.6139 101.263 82.541 103.553 82.3042C104.213 82.236 104.87 82.1872 105.519 82.1564C105.589 82.5294 105.625 82.9011 105.625 83.3079C105.493 84.3549 105.102 85.2707 104.577 86.0551C102.877 89.0639 100.26 91.4194 97.1202 92.8581C93.4572 94.5583 89.2701 95.3439 85.2144 95.0813C85.096 95.0764 84.9756 95.0716 84.8536 95.067L84.6181 95.0579L84.6113 95.0577C81.5267 94.9409 77.4787 94.7876 75.2713 92.334C74.1126 91.0794 73.8091 89.3252 73.5194 87.6508C73.4165 87.0564 73.3154 86.4721 73.1783 85.9238C73.0047 85.1418 72.8454 84.345 72.686 83.5483L72.6859 83.5476L72.6857 83.5469L72.6855 83.5462L72.6854 83.5455L72.6853 83.5449ZM108.111 83.3079C108.048 82.8633 107.85 82.4552 107.604 82.1177C111.736 82.1599 115.434 82.9045 117.919 83.9282C121.733 86.9778 123.352 92.0393 124.636 96.6776C116.461 96.1273 112.12 95.7615 109.771 95.5636L109.77 95.5635C108.581 95.4634 107.903 95.4061 107.496 95.3899C107.24 94.9025 106.993 94.4099 106.754 93.9125C107.044 93.572 107.322 93.2196 107.586 92.8558C108.633 91.1556 109.156 89.1928 108.895 87.23L108.896 87.2324C108.765 85.9238 108.503 84.6164 108.111 83.3079ZM108.036 96.39C108.634 97.466 109.272 98.5143 109.944 99.531C111.085 101.257 110.99 103.455 109.813 105.157C109.101 106.011 108.196 106.71 107.182 107.17C107.182 107.367 107.182 107.568 107.182 107.774C107.064 108.377 107.159 109.134 107.435 109.823C107.948 110.64 109.124 110.869 110.16 111.071L110.161 111.071C110.344 111.106 123.577 113.401 128.494 114.247C127.587 108.786 126.388 103.373 124.988 97.9598L124.965 97.8775C124.95 97.824 124.936 97.7703 124.922 97.7167C120.095 97.3849 111.169 96.6992 108.036 96.39ZM128.671 115.343L116.143 113.244L116.137 113.243C113.824 112.887 111.433 112.519 109.13 111.943C108.036 111.808 107.104 111.249 106.447 110.329C106.066 109.643 105.97 108.907 105.985 107.586C105.486 107.708 104.972 107.774 104.448 107.774C103.401 107.904 102.356 107.774 101.308 107.381C101.207 107.323 101.113 107.254 101.023 107.176C100.728 109.742 100.439 112.241 100.179 114.481C105.497 115.115 110.241 116.082 113.656 117.367C114.085 117.365 114.523 117.428 114.914 117.584C118.757 118.263 125.845 119.707 128.623 120.651C128.941 120.76 129.22 120.905 129.463 121.082L129.436 120.855C129.217 119.01 128.961 117.174 128.671 115.343ZM121.736 156.271C126.51 148.527 129.469 139.833 130.438 130.816C132.128 151.061 131.306 166.428 130.849 174.968V174.97L130.848 174.973C130.719 177.387 130.619 179.255 130.613 180.533C128.705 181.185 127.167 181.831 125.055 182.718C120.044 184.824 111.793 188.292 87.6473 196.438C86.1062 196.958 85.2244 197.249 84.677 197.43L84.6661 197.434L84.6617 197.435L84.6585 197.436H84.6578C83.8176 197.713 83.7783 197.725 83.3136 197.922C83.2215 197.881 82.6285 197.781 81.6697 197.618H81.6667C77.6902 196.94 67.4384 195.194 60.5549 192.256C59.0247 191.603 57.8933 190.823 57.246 189.854C56.8661 189.096 56.7464 188.338 56.872 187.447C56.872 185.964 57.0656 184.347 57.254 182.775C57.351 181.967 57.4463 181.169 57.5134 180.41C59.1021 178.529 60.7964 176.995 62.6244 175.394C64.3648 173.867 64.9315 173.244 65.4555 172.67C66.1328 171.928 66.7391 171.263 69.7169 168.82V169.21C67.4529 171.356 65.3388 173.978 66.7423 176.926C67.5361 178.593 69.2714 179.934 71.627 180.702C75.8588 182.08 80.8044 181.25 84.7675 179.103C88.4012 177.427 91.7946 175.708 94.8396 174.002C96.242 173.364 97.3581 172.203 98.0735 170.626C98.4967 169.357 98.057 167.915 97.0545 167.217V165.991C99.3527 166.284 101.663 166.473 103.924 166.514C104.085 166.516 104.246 166.416 104.345 166.278C106.238 165.696 107.763 164.772 109.412 163.773C109.63 163.641 109.85 163.508 110.073 163.374C110.507 163.157 110.941 162.86 111.309 162.505C111.991 162.78 113.508 163.163 114.482 163.372C111.415 166.127 107.509 167.832 103.797 169.454C101.466 170.47 99.2114 171.455 97.2879 172.645C94.1175 174.607 91.4689 177.09 88.4412 179.929C87.7624 180.566 87.0645 181.22 86.3376 181.89L86.2945 181.93C85.8703 182.321 82.6321 185.303 82.5633 185.421C78.5708 186.126 73.6344 186.979 69.1307 186.053C65.2532 185.501 62.1883 183.509 59.4176 180.739C59.2639 180.583 58.7246 180.849 58.8852 181.092C60.059 182.853 61.5727 184.223 63.1262 184.938C66.1233 186.784 70.2587 187.564 73.7775 187.564C76.7487 187.564 79.6729 187.099 82.3955 186.635C81.8855 189.059 81.7906 192.876 83.0908 195.044C83.3219 195.502 84.1391 195.247 83.9351 194.638C82.992 192.28 83.1512 190.599 83.3385 188.62C83.4139 187.824 83.4938 186.979 83.5083 186.024C84.6415 185.073 85.7123 184.096 86.7838 183.119C87.8918 182.109 89.0011 181.098 90.1811 180.113C96.0553 174.24 99.9499 172.568 104.23 170.73C106.363 169.815 108.592 168.858 111.209 167.32C114.725 165.251 118.164 162.342 121.736 156.271ZM157.434 158.401C158.171 158.334 158.837 158.384 159.422 158.522C158.726 150.112 157.621 139.501 155.823 127.815C153.263 111.273 148.729 95.3685 137.81 82.7674C130.502 74.616 124.533 72.6238 116.765 73.1467C116.314 73.177 115.868 73.2065 115.424 73.2359C108.692 73.6809 102.42 74.0953 90.5495 76.7066C90.7274 77.2076 90.7219 78.4691 90.7158 79.8862C90.7147 80.1498 90.7136 80.419 90.7136 80.6896C90.7136 81.1974 90.4873 82.5434 90.404 82.6606L91.7293 82.4899C104.893 80.7924 111.586 79.9292 119.167 83.1426C130.32 87.8708 132.817 102.456 134.86 114.4L134.975 115.068C139.065 138.933 139.718 157.83 140.469 184.448C146.199 185.517 151.558 184.899 156.061 183.097C157.614 182.673 158.833 181.941 159.822 181.282L159.825 181.281C160.936 180.391 160.825 179.168 160.695 177.749L160.678 177.574C160.672 177.512 160.668 177.45 160.662 177.387C160.615 176.842 160.56 175.811 160.48 174.352C160.356 172.04 160.173 168.651 159.874 164.413C158.47 165.085 156.674 165.611 155.602 165.859C154.276 166.189 153.704 165.792 153.117 165.204C150.977 163.066 151.786 159.78 154.032 158.533L157.434 158.402V158.401ZM60.7522 77.5516L60.7707 77.5637L60.7673 77.5356L60.7522 77.5516ZM99.3433 99.1359C101.819 98.1883 104.094 96.7085 105.963 94.7832C106.685 96.3087 107.484 97.8119 108.374 99.2683C109.29 100.184 109.813 101.623 109.683 102.931C108.981 106.085 105.151 107.232 101.964 106.594C101.406 106.371 101.13 105.769 100.901 105.27C100.862 105.184 100.824 105.101 100.787 105.024C100.482 104.4 100.183 103.769 99.8835 103.135L99.8831 103.134L99.8826 103.134L99.8823 103.133L99.882 103.132L99.8816 103.131L99.8813 103.131L99.8803 103.129C99.3197 101.944 98.7552 100.751 98.1401 99.5794C98.5364 99.4392 98.9374 99.2914 99.3433 99.1359ZM91.3701 101.318C93.18 101.049 95.0447 100.601 97.0195 99.9598C97.8002 101.435 98.7432 103.2 99.477 104.503C99.62 104.756 99.7539 105.049 99.8921 105.352L99.8929 105.354C99.9435 105.465 99.9946 105.577 100.047 105.688C99.7467 108.274 99.4162 111.151 99.0547 114.353C95.5884 113.977 91.9069 113.738 88.2105 113.644C88.4868 113.074 88.8021 112.527 89.1469 112.003C89.6794 111.796 90.1648 111.514 90.3207 111.044C90.6827 109.592 91.1463 104.737 91.3701 101.318ZM81.7666 101.132C84.6466 101.648 87.4093 101.779 90.2841 101.46C89.8708 108.109 89.7058 109.724 89.6721 110.055C89.6674 110.1 89.6653 110.122 89.6653 110.128C89.6653 110.651 89.2737 110.913 88.7495 111.175C87.0493 111.83 85.2178 111.83 83.5165 111.307C81.0699 110.49 81.1226 110.014 81.4199 107.332C81.5722 105.958 81.7886 104.005 81.7666 101.132ZM79.7187 100.706C80.0807 100.791 80.4401 100.871 80.7973 100.944C80.5798 102.646 80.4206 104.329 80.3777 106.072C80.3719 106.301 80.354 106.53 80.3334 106.758C80.0919 106.72 79.8459 106.667 79.5898 106.594C78.8053 106.463 77.8884 106.071 77.2353 105.547C76.7123 105.286 76.1882 104.763 76.3195 104.109C76.5213 103.1 76.9505 101.565 77.4335 99.9762C78.1568 100.305 78.9271 100.548 79.7187 100.706ZM86.6845 151.119L86.675 151.149L86.6735 151.155C86.4993 151.72 86.3321 152.261 86.1589 152.783C91.9539 153.076 97.0545 154.294 97.0545 156.441V164.782C99.2636 165.1 101.515 165.341 103.582 165.445C104.722 155.76 104.614 144.551 103.288 135.993C101.312 136.292 99.2208 136.537 97.0533 136.728V146.759C97.0533 148.75 92.4235 150.59 86.6845 151.119ZM87.7172 114.803L87.7048 114.837C87.0558 116.459 86.8645 117.38 86.7882 117.942C90.8055 118.104 94.4374 118.943 94.4374 120.463C94.4374 123.862 76.2574 123.862 76.2574 120.463C76.2574 118.961 79.8084 118.123 83.7715 117.948C83.7414 116.87 83.6158 115.827 83.3151 114.774C64.2856 114.935 51.1336 118.741 51.1336 122.163C51.1336 125.66 64.8627 129.557 84.5624 129.557C86.6468 129.557 88.6644 129.514 90.6059 129.432C92.6872 129.076 94.8139 128.836 96.861 128.836C97.2905 128.848 97.715 128.865 98.1349 128.89C110.285 127.627 117.991 124.783 117.991 122.163C117.991 118.857 105.713 115.191 87.7172 114.803ZM86.0462 117.92C85.5944 117.912 85.1402 117.912 84.6882 117.92C84.6202 116.633 83.9253 113.623 83.4263 112.313C84.8626 112.748 86.3974 112.761 87.8678 112.409C86.8974 114.096 86.2879 115.905 86.0462 117.92ZM119.164 122.163C119.164 121.016 118.407 119.979 117.059 119.055C118.457 119.295 119.982 119.573 121.326 119.939C121.959 120.111 122.69 120.282 123.518 120.476H123.52H123.521C124.836 120.783 126.397 121.148 128.205 121.668C126.023 123.202 125.119 125.881 124.256 128.44L124.255 128.442C124.152 128.75 124.048 129.056 123.943 129.359C123.394 130.938 123.188 131.873 123.027 132.599C122.795 133.651 122.659 134.265 121.719 135.769C120.803 136.554 119.887 137.209 118.84 137.732L116.147 139.416L112.687 138.462C112.45 136.952 112.152 135.488 111.785 134.11C116.32 132.657 119.164 130.689 119.164 128.182V122.163ZM110.721 134.432C108.843 134.972 106.718 135.432 104.415 135.814C105.949 145.34 105.788 155.171 104.603 164.774C106.604 164.062 111.221 162.094 111.513 160.498C112.595 154.577 112.974 143.51 110.721 134.432ZM70.8884 146.758V136.592C78.7791 137.368 87.7947 137.461 95.882 136.826V146.758C95.882 147.721 90.9011 150.096 83.3851 150.096C75.8692 150.096 70.8884 147.721 70.8884 146.758ZM112.104 161.354C113.291 157.91 113.998 148.373 112.885 139.847L115.487 140.568C116.388 149.823 115.844 155.714 115.44 160.101C115.374 160.823 115.311 161.503 115.259 162.151C114.588 161.972 113.616 161.73 112.721 161.507C112.509 161.455 112.302 161.403 112.104 161.354ZM70.8896 158.08C75.3475 160.862 91.424 160.862 95.882 158.08V170.44C95.882 171.402 90.9011 173.779 83.3851 173.779C75.8692 173.779 70.8884 171.403 70.8884 170.44V158.08H70.8896ZM91.3569 174.634L91.3541 174.636C83.1119 179.034 75.6465 183.017 68.6829 177.218C66.3999 174.934 67.6979 172.97 69.7171 170.359V170.438C69.7171 172.8 76.2329 174.95 83.3864 174.95C88.1034 174.95 92.5438 174.015 95.0202 172.701C94.6063 172.981 94.1478 173.22 93.639 173.424C92.8778 173.822 92.1232 174.226 91.3751 174.624L91.3633 174.63L91.3569 174.634ZM123.489 165.549C127.206 166.389 128.845 169.955 128.845 173.578C128.845 177.056 127.375 180.566 123.581 181.613L120.303 182.517C119.671 182.775 118.953 183.062 118.055 183.062C114.424 183.062 111.581 178.955 111.581 173.71C111.581 168.465 114.424 164.358 118.055 164.358C118.79 164.358 119.506 164.508 120.082 164.78L123.489 165.549ZM119.921 181.411L119.929 181.407H119.928L121.372 181.008C116.614 178.514 116.488 168.952 121.212 166.237C120.779 166.14 120.473 166.072 120.253 166.024C119.777 165.918 119.704 165.903 119.622 165.861C119.197 165.648 118.638 165.53 118.053 165.53C115.13 165.53 112.752 169.199 112.752 173.71C112.752 178.221 115.13 181.889 118.053 181.889C118.723 181.889 119.306 181.657 119.921 181.411ZM80.9908 47.778C83.5422 49.7208 87.8676 48.3608 90.6372 44.7482C92.3936 42.4582 93.2625 39.7509 92.9623 37.5055C92.7934 36.2427 92.2541 35.2319 91.4005 34.5812L76.6571 23.3847C78.1192 29.177 72.2754 36.6144 66.3025 36.6237L80.9908 47.778ZM52.5911 28.1475C53.6979 28.9858 55.0898 29.3528 56.6879 29.1571H56.6891C64.3585 28.2144 69.7791 16.7658 64.7151 12.7346L60.5983 9.74819C62.9773 16.2851 56.1931 25.4554 49.0735 25.4554C49.0292 25.4554 48.981 25.4425 48.9484 25.4337C48.9266 25.4278 48.9118 25.4238 48.9101 25.427C48.9064 25.4336 48.9594 25.471 49.1223 25.5862C49.494 25.849 50.4382 26.5168 52.5911 28.1475Z" fill="black"/>
</svg>
