<svg width="587" height="385" viewBox="0 0 587 385" fill="none" xmlns="http://www.w3.org/2000/svg">
<rect x="154.822" width="431.236" height="385" rx="40" fill="#E4EBFF"/>
<path d="M79.2448 3.55664H41C18.9086 3.55664 1 21.4652 1 43.5566V70.2426" stroke="#0540F1" stroke-width="2"/>
<path d="M455.353 348.545L493.598 348.545C515.69 348.545 533.598 330.636 533.598 308.545L533.598 281.859" stroke="#0540F1" stroke-width="2"/>
<path d="M469.234 305.453H90.4464C76.9443 305.453 66 294.509 66 281.007V78.4464C66 64.9443 76.9443 54 90.4464 54H469.234C482.736 54 493.68 64.9443 493.68 78.4464V281.021C493.68 294.509 482.736 305.453 469.234 305.453Z" fill="#0540F1"/>
<path d="M445.36 277.149H88.3219C75.9938 277.149 66 267.155 66 254.841V76.3219C66 63.9938 75.9938 54 88.3219 54H445.36C457.688 54 467.682 63.9938 467.682 76.3219V254.841C467.668 267.155 457.674 277.149 445.36 277.149Z" fill="white"/>
<path d="M248.391 92.7456C278.233 92.7456 299.604 110.455 299.604 135.293C299.604 156.86 282.468 168.405 264.563 178.427C258.595 181.893 235.49 194.403 234.33 204.802H299.786V232.533H193.516C193.516 192.293 213.923 172.85 243.192 156.86C256.862 148.767 264.955 142.994 264.955 134.72C264.955 126.627 258.022 120.477 248.391 120.477C237.419 120.477 230.486 128.178 228.557 142.421L193.893 140.492C195.822 112.566 217.194 92.7456 248.391 92.7456Z" fill="#262626"/>
<path d="M402.225 181.306H416.664V209.037H402.225V232.533H368.344V209.037H299.799V181.502L360.838 95.8203H402.239V181.306H402.225ZM368.344 181.306V137.026L336 181.306H368.344Z" fill="#262626"/>
<path d="M397.083 162.828L416.134 152.82C416.483 152.639 416.889 152.639 417.224 152.82L436.275 162.828C437.142 163.275 438.148 162.549 437.98 161.584L434.346 140.38C434.276 140.003 434.402 139.612 434.682 139.332L450.085 124.32C450.784 123.635 450.392 122.447 449.428 122.308L428.14 119.219C427.763 119.163 427.428 118.925 427.26 118.576L417.741 99.2869C417.308 98.4063 416.064 98.4063 415.631 99.2869L406.112 118.576C405.944 118.925 405.609 119.163 405.231 119.219L383.944 122.308C382.979 122.447 382.588 123.635 383.287 124.32L398.662 139.346C398.942 139.612 399.067 140.003 398.998 140.394L395.363 161.598C395.21 162.549 396.216 163.289 397.083 162.828ZM395.909 126.026L408.908 124.139C409.285 124.083 409.62 123.845 409.788 123.496L415.603 111.713C416.036 110.832 417.28 110.832 417.713 111.713L423.528 123.496C423.696 123.845 424.031 124.083 424.408 124.139L437.407 126.026C438.372 126.165 438.763 127.353 438.064 128.038L428.658 137.208C428.378 137.473 428.252 137.864 428.322 138.256L430.544 151.199C430.712 152.163 429.706 152.89 428.839 152.443L417.21 146.335C416.861 146.153 416.455 146.153 416.12 146.335L404.491 152.443C403.624 152.89 402.618 152.163 402.785 151.199L405.008 138.256C405.078 137.878 404.952 137.487 404.672 137.208L395.266 128.038C394.553 127.353 394.944 126.165 395.909 126.026Z" fill="#0540F1"/>
<path d="M409.885 145.678L415.993 142.463C416.413 142.239 416.93 142.239 417.349 142.463L423.457 145.678C424.534 146.237 425.778 145.328 425.582 144.14L424.422 137.347C424.338 136.872 424.492 136.383 424.841 136.047L429.775 131.225C430.642 130.387 430.167 128.905 428.964 128.737L422.144 127.745C421.668 127.675 421.263 127.381 421.039 126.948L417.992 120.756C417.461 119.666 415.91 119.666 415.378 120.756L412.331 126.948C412.122 127.381 411.702 127.675 411.227 127.745L404.406 128.737C403.204 128.905 402.729 130.387 403.596 131.225L408.53 136.047C408.879 136.383 409.033 136.872 408.949 137.347L407.789 144.14C407.551 145.328 408.809 146.237 409.885 145.678Z" fill="#0540F1"/>
<path d="M101.866 151.423C112.196 151.423 119.841 158.663 119.576 170.907V172.557H95.1571C95.4227 177.029 97.9246 179.797 101.866 179.797C104.438 179.797 106.744 178.343 107.653 175.981L119.114 176.834C116.948 183.613 110.295 187.89 101.866 187.89C90.6144 187.89 83.2344 180.65 83.2344 169.649C83.2344 158.649 90.6144 151.423 101.866 151.423ZM108.114 166.169C107.723 161.556 105.025 159.516 101.866 159.516C98.1203 159.516 95.6183 162.018 95.213 166.169H108.114Z" fill="#262626"/>
<path d="M157.553 187.107H146.427L146.232 182.103C144.317 185.793 140.697 187.889 135.902 187.889C126.356 187.889 121.156 180.118 121.156 169.649C121.156 159.18 126.356 151.422 135.902 151.422C140.445 151.422 143.939 153.393 146.106 157.083V140.366H157.553V187.107ZM139.718 179.531C144.387 179.531 146.693 174.988 146.693 169.663C146.693 164.072 144.387 159.655 139.718 159.655C135.05 159.655 132.799 164.072 132.799 169.663C132.799 175.058 135.176 179.531 139.718 179.531Z" fill="#262626"/>
<path d="M172.493 176.442V187.107H160.71V176.442H172.493Z" fill="#262626"/>
</svg>
