<svg width="297" height="427" viewBox="0 0 297 427" fill="none" xmlns="http://www.w3.org/2000/svg">
<path d="M242.204 217.233L268.893 204.742" stroke="#B5B5B5" stroke-width="3.32407" stroke-miterlimit="10"/>
<path d="M162.136 143.246V177.837" stroke="#B5B5B5" stroke-width="3.32407" stroke-miterlimit="10"/>
<path d="M135.447 118.264V154.776" stroke="#B5B5B5" stroke-width="3.32407" stroke-miterlimit="10"/>
<path d="M188.826 167.268V201.994" stroke="#B5B5B5" stroke-width="3.32407" stroke-miterlimit="10"/>
<path d="M215.515 192.25V224.535" stroke="#B5B5B5" stroke-width="3.32407" stroke-miterlimit="10"/>
<path d="M172.811 250.863L200.84 229.903" stroke="#B5B5B5" stroke-width="3.32407" stroke-miterlimit="10"/>
<path d="M136.334 224.92L168.682 204.178" stroke="#B5B5B5" stroke-width="3.32407" stroke-miterlimit="10"/>
<path d="M108.756 196.094L135.487 178.568" stroke="#B5B5B5" stroke-width="3.32407" stroke-miterlimit="10"/>
<path d="M242.203 262.393L108.312 157.224" stroke="#B5B5B5" stroke-width="3.32407" stroke-miterlimit="10"/>
<path d="M322.271 280.285V262.816V262.393L268.893 204.742" stroke="#B5B5B5" stroke-width="3.32407" stroke-miterlimit="10"/>
<path d="M268.893 248.941L308.861 290.861" stroke="#B5B5B5" stroke-width="3.32407" stroke-miterlimit="10"/>
<path d="M295.582 262.393V233.567" stroke="#B5B5B5" stroke-width="3.32407" stroke-miterlimit="10"/>
<path d="M322.271 291.219L268.893 233.567" stroke="#B5B5B5" stroke-width="3.32407" stroke-miterlimit="10"/>
<path d="M268.893 219.154L322.271 278.728" stroke="#B5B5B5" stroke-width="3.32407" stroke-miterlimit="10"/>
<path d="M282.237 219.154V247.98" stroke="#B5B5B5" stroke-width="3.32407" stroke-miterlimit="10"/>
<path d="M322.271 262.393V291.219H295.582L268.893 261.913" stroke="#B5B5B5" stroke-width="3.32407" stroke-miterlimit="10"/>
<path d="M268.828 189.971L308.737 235.009" stroke="#B5B5B5" stroke-width="3.32407" stroke-miterlimit="10"/>
<path d="M268.893 163.425L308.926 204.742V247.981" stroke="#B5B5B5" stroke-width="3.32407" stroke-miterlimit="10"/>
<path d="M188.825 262.393V449.28H268.893V233.9V233.567V147.09H215.514L202.169 161.503V179.759" stroke="#B5B5B5" stroke-width="3.32407" stroke-miterlimit="10"/>
<path d="M202.614 420.936H229.304" stroke="#B5B5B5" stroke-width="3.32407" stroke-miterlimit="10"/>
<path d="M255.548 153.816V233.567" stroke="#B5B5B5" stroke-width="3.32407" stroke-miterlimit="10"/>
<path d="M108.757 118.265L242.203 233.568" stroke="#B5B5B5" stroke-width="3.32407" stroke-miterlimit="10"/>
<path d="M55.3773 2H42.0326L28.688 16.4129V67.3385" stroke="#B5B5B5" stroke-width="3.32407" stroke-miterlimit="10"/>
<path d="M55.3774 46.1996V2" stroke="#B5B5B5" stroke-width="3.32407" stroke-miterlimit="10"/>
<path d="M42.0327 2V56.769" stroke="#B5B5B5" stroke-width="3.32407" stroke-miterlimit="10"/>
<path d="M82.0669 2V46.1996" stroke="#B5B5B5" stroke-width="3.32407" stroke-miterlimit="10"/>
<path d="M102.529 9.68701V57.73" stroke="#B5B5B5" stroke-width="3.32407" stroke-miterlimit="10"/>
<path d="M108.756 60.6125V16.4129L95.4113 2H55.3774" stroke="#B5B5B5" stroke-width="3.32407" stroke-miterlimit="10"/>
<path d="M68.7222 2.96094V60.6126" stroke="#B5B5B5" stroke-width="3.32407" stroke-miterlimit="10"/>
<path d="M95.4111 2V52.9256" stroke="#B5B5B5" stroke-width="3.32407" stroke-miterlimit="10"/>
<path d="M34.9155 9.68701V62.5343" stroke="#B5B5B5" stroke-width="3.32407" stroke-miterlimit="10"/>
<path d="M49.1499 2V51.0039" stroke="#B5B5B5" stroke-width="3.32407" stroke-miterlimit="10"/>
<path d="M62.4946 2.47998V53.886" stroke="#B5B5B5" stroke-width="3.32407" stroke-miterlimit="10"/>
<path d="M74.9497 2.47998V53.886" stroke="#B5B5B5" stroke-width="3.32407" stroke-miterlimit="10"/>
<path d="M89.1841 2.47998V50.0426" stroke="#B5B5B5" stroke-width="3.32407" stroke-miterlimit="10"/>
<path d="M42.0337 139.403V493" stroke="#B5B5B5" stroke-width="3.32407" stroke-miterlimit="10"/>
<path d="M55.0405 132.677V493" stroke="#B5B5B5" stroke-width="3.32407" stroke-miterlimit="10"/>
<path d="M68.7231 124.991V493" stroke="#B5B5B5" stroke-width="3.32407" stroke-miterlimit="10"/>
<path d="M82.0679 118.265V493" stroke="#B5B5B5" stroke-width="3.32407" stroke-miterlimit="10"/>
<path d="M95.4126 124.991V493" stroke="#B5B5B5" stroke-width="3.32407" stroke-miterlimit="10"/>
<path d="M12.6758 125.952L35.8065 143.247" stroke="#B5B5B5" stroke-width="3.32407" stroke-miterlimit="10"/>
<path d="M43.813 103.851L68.723 124.99" stroke="#B5B5B5" stroke-width="3.32407" stroke-miterlimit="10"/>
<path d="M55.3785 89.4385L2 126.912" stroke="#B5B5B5" stroke-width="3.32407" stroke-miterlimit="10"/>
<path d="M55.3784 89.4385L68.7231 124.99" stroke="#B5B5B5" stroke-width="3.32407" stroke-miterlimit="10"/>
<path d="M68.7231 73.104V124.99" stroke="#B5B5B5" stroke-width="3.32407" stroke-miterlimit="10"/>
<path d="M108.757 132.677V103.851" stroke="#B5B5B5" stroke-width="3.32407" stroke-miterlimit="10"/>
<path d="M68.7231 73.104L135.446 118.264" stroke="#B5B5B5" stroke-width="3.32407" stroke-miterlimit="10"/>
<path d="M57.1578 95.2036L2 132.677" stroke="#B5B5B5" stroke-width="3.32407" stroke-miterlimit="10"/>
<path d="M55.3784 89.4384V46.1997" stroke="#B5B5B5" stroke-width="3.32407" stroke-miterlimit="10"/>
<path d="M68.7231 73.1035V60.6123" stroke="#B5B5B5" stroke-width="3.32407" stroke-miterlimit="10"/>
<path d="M95.4126 52.9258V124.99" stroke="#B5B5B5" stroke-width="3.32407" stroke-miterlimit="10"/>
<path d="M82.0679 46.1997V118.264" stroke="#B5B5B5" stroke-width="3.32407" stroke-miterlimit="10"/>
<path d="M108.757 60.6123V103.851" stroke="#B5B5B5" stroke-width="3.32407" stroke-miterlimit="10"/>
<path d="M68.7231 60.6126L82.0678 46.1997L108.757 60.6126" stroke="#B5B5B5" stroke-width="3.32407" stroke-miterlimit="10"/>
<path d="M108.757 60.6123L135.446 76.9469V77.4274V118.264" stroke="#B5B5B5" stroke-width="3.32407" stroke-miterlimit="10"/>
<path d="M122.102 144.207V68.2993" stroke="#B5B5B5" stroke-width="3.32407" stroke-miterlimit="10"/>
<path d="M15.3447 78.8691V117.304" stroke="#B5B5B5" stroke-width="3.32407" stroke-miterlimit="10"/>
<path d="M28.6895 67.3389V108.656" stroke="#B5B5B5" stroke-width="3.32407" stroke-miterlimit="10"/>
<path d="M42.0337 99.0469V56.769" stroke="#B5B5B5" stroke-width="3.32407" stroke-miterlimit="10"/>
<path d="M135.446 118.265L242.203 217.233" stroke="#B5B5B5" stroke-width="3.32407" stroke-miterlimit="10"/>
<path d="M242.204 262.394H255.548" stroke="#B5B5B5" stroke-width="3.32407" stroke-miterlimit="10"/>
<path d="M268.893 233.567L255.548 262.393" stroke="#B5B5B5" stroke-width="3.32407" stroke-miterlimit="10"/>
<path d="M242.204 233.567H268.893" stroke="#B5B5B5" stroke-width="3.32407" stroke-miterlimit="10"/>
<path d="M255.548 233.9V449.28" stroke="#B5B5B5" stroke-width="3.32407" stroke-miterlimit="10"/>
<path d="M211.066 291.219H198.611V320.045H211.066V291.219Z" stroke="#B5B5B5" stroke-width="3.32407" stroke-miterlimit="10"/>
<path d="M231.528 291.219H219.073V320.045H231.528V291.219Z" stroke="#B5B5B5" stroke-width="3.32407" stroke-miterlimit="10"/>
<path d="M211.066 334.458H198.611V363.284H211.066V334.458Z" stroke="#B5B5B5" stroke-width="3.32407" stroke-miterlimit="10"/>
<path d="M231.528 334.458H219.073V363.284H231.528V334.458Z" stroke="#B5B5B5" stroke-width="3.32407" stroke-miterlimit="10"/>
<path d="M211.066 377.697H198.611V406.523H211.066V377.697Z" stroke="#B5B5B5" stroke-width="3.32407" stroke-miterlimit="10"/>
<path d="M231.528 377.697H219.073V406.523H231.528V377.697Z" stroke="#B5B5B5" stroke-width="3.32407" stroke-miterlimit="10"/>
<path d="M242.204 161.503L268.893 147.09" stroke="#B5B5B5" stroke-width="3.32407" stroke-miterlimit="10"/>
<path d="M234.417 167.268H227.745V183.603H234.417V167.268Z" stroke="#B5B5B5" stroke-width="3.32407" stroke-miterlimit="10"/>
<path d="M218.403 167.268H211.731V183.603H218.403V167.268Z" stroke="#B5B5B5" stroke-width="3.32407" stroke-miterlimit="10"/>
<path d="M202.169 276.806H228.859" stroke="#B5B5B5" stroke-width="3.32407" stroke-miterlimit="10"/>
<path d="M242.204 161.503L255.548 175.916" stroke="#B5B5B5" stroke-width="3.32407" stroke-miterlimit="10"/>
<path d="M202.169 161.503H242.203" stroke="#B5B5B5" stroke-width="3.32407" stroke-miterlimit="10"/>
<path d="M242.203 262.393H188.825L108.757 204.742" stroke="#B5B5B5" stroke-width="3.32407" stroke-miterlimit="10"/>
<path d="M28.6895 146.61V492.52H107.423L108.312 133.158" stroke="#B5B5B5" stroke-width="3.32407" stroke-miterlimit="10"/>
<path d="M242.203 247.5L108.757 132.677L82.0678 118.264L28.6893 147.09L2 132.677V89.4384L55.3785 46.1997L68.7232 60.6126" stroke="#B5B5B5" stroke-width="3.32407" stroke-miterlimit="10"/>
<path d="M242.204 147.09V449.28" stroke="#B5B5B5" stroke-width="3.32407" stroke-miterlimit="10"/>
</svg>
