<svg width="25" height="24" viewBox="0 0 25 24" fill="none" xmlns="http://www.w3.org/2000/svg">
<g id="Download">
<path id="Vector" d="M21.5 14C21.2348 14 20.9804 14.1054 20.7929 14.2929C20.6054 14.4804 20.5 14.7348 20.5 15V19C20.5 19.2652 20.3946 19.5196 20.2071 19.7071C20.0196 19.8946 19.7652 20 19.5 20H5.5C5.23478 20 4.98043 19.8946 4.79289 19.7071C4.60536 19.5196 4.5 19.2652 4.5 19V15C4.5 14.7348 4.39464 14.4804 4.20711 14.2929C4.01957 14.1054 3.76522 14 3.5 14C3.23478 14 2.98043 14.1054 2.79289 14.2929C2.60536 14.4804 2.5 14.7348 2.5 15V19C2.5 19.7956 2.81607 20.5587 3.37868 21.1213C3.94129 21.6839 4.70435 22 5.5 22H19.5C20.2956 22 21.0587 21.6839 21.6213 21.1213C22.1839 20.5587 22.5 19.7956 22.5 19V15C22.5 14.7348 22.3946 14.4804 22.2071 14.2929C22.0196 14.1054 21.7652 14 21.5 14ZM11.79 15.71C11.8851 15.801 11.9972 15.8724 12.12 15.92C12.2397 15.9729 12.3691 16.0002 12.5 16.0002C12.6309 16.0002 12.7603 15.9729 12.88 15.92C13.0028 15.8724 13.1149 15.801 13.21 15.71L17.21 11.71C17.3983 11.5217 17.5041 11.2663 17.5041 11C17.5041 10.7337 17.3983 10.4783 17.21 10.29C17.0217 10.1017 16.7663 9.99591 16.5 9.99591C16.2337 9.99591 15.9783 10.1017 15.79 10.29L13.5 12.59V3C13.5 2.73478 13.3946 2.48043 13.2071 2.29289C13.0196 2.10536 12.7652 2 12.5 2C12.2348 2 11.9804 2.10536 11.7929 2.29289C11.6054 2.48043 11.5 2.73478 11.5 3V12.59L9.21 10.29C9.11676 10.1968 9.00607 10.1228 8.88425 10.0723C8.76243 10.0219 8.63186 9.99591 8.5 9.99591C8.36814 9.99591 8.23757 10.0219 8.11575 10.0723C7.99393 10.1228 7.88324 10.1968 7.79 10.29C7.69676 10.3832 7.6228 10.4939 7.57234 10.6158C7.52188 10.7376 7.49591 10.8681 7.49591 11C7.49591 11.1319 7.52188 11.2624 7.57234 11.3842C7.6228 11.5061 7.69676 11.6168 7.79 11.71L11.79 15.71Z" fill="white"/>
</g>
</svg>
