<svg width="587" height="385" viewBox="0 0 587 385" fill="none" xmlns="http://www.w3.org/2000/svg">
<rect x="154.82" width="431.236" height="385" rx="40" fill="#E4EBFF"/>
<path d="M79.2448 3.55664H41C18.9086 3.55664 1 21.4652 1 43.5566V70.2426" stroke="#0540F1" stroke-width="2"/>
<path d="M455.353 348.545L493.598 348.545C515.689 348.545 533.598 330.636 533.598 308.545L533.598 281.859" stroke="#0540F1" stroke-width="2"/>
<path d="M469.234 305.453H90.4464C76.9443 305.453 66 294.509 66 281.007V78.4464C66 64.9443 76.9443 54 90.4464 54H469.234C482.736 54 493.68 64.9443 493.68 78.4464V281.021C493.68 294.509 482.736 305.453 469.234 305.453Z" fill="#0540F1"/>
<path d="M445.36 277.149H88.3219C75.9938 277.149 66 267.155 66 254.841V76.3219C66 63.9938 75.9938 54 88.3219 54H445.36C457.688 54 467.682 63.9938 467.682 76.3219V254.841C467.668 267.155 457.674 277.149 445.36 277.149Z" fill="#F1F1F1"/>
<path d="M248.391 92.7456C278.233 92.7456 299.604 110.455 299.604 135.293C299.604 156.86 282.468 168.405 264.563 178.427C258.594 181.893 235.49 194.403 234.33 204.802H299.786V232.533H193.516C193.516 192.293 213.923 172.85 243.191 156.86C256.861 148.767 264.954 142.994 264.954 134.72C264.954 126.627 258.021 120.477 248.391 120.477C237.419 120.477 230.486 128.178 228.557 142.421L193.893 140.492C195.822 112.566 217.193 92.7456 248.391 92.7456Z" fill="#262626"/>
<path d="M402.227 181.306H416.666V209.037H402.227V232.533H368.346V209.037H299.801V181.502L360.84 95.8203H402.241V181.306H402.227ZM368.346 181.306V137.026L336.002 181.306H368.346Z" fill="#262626"/>
<path d="M397.085 162.828L416.136 152.82C416.485 152.639 416.891 152.639 417.226 152.82L436.277 162.828C437.144 163.275 438.15 162.549 437.982 161.584L434.348 140.38C434.278 140.003 434.404 139.612 434.684 139.332L450.087 124.32C450.786 123.635 450.394 122.447 449.43 122.308L428.142 119.219C427.765 119.163 427.429 118.925 427.262 118.576L417.743 99.2869C417.31 98.4063 416.066 98.4063 415.633 99.2869L406.114 118.576C405.946 118.925 405.611 119.163 405.233 119.219L383.946 122.308C382.981 122.447 382.59 123.635 383.289 124.32L398.664 139.346C398.944 139.612 399.069 140.003 399 140.394L395.365 161.598C395.212 162.549 396.218 163.289 397.085 162.828ZM395.91 126.026L408.909 124.139C409.287 124.083 409.622 123.845 409.79 123.496L415.605 111.713C416.038 110.832 417.282 110.832 417.715 111.713L423.53 123.496C423.698 123.845 424.033 124.083 424.41 124.139L437.409 126.026C438.374 126.165 438.765 127.353 438.066 128.038L428.659 137.208C428.38 137.473 428.254 137.864 428.324 138.256L430.546 151.199C430.714 152.163 429.708 152.89 428.841 152.443L417.212 146.335C416.863 146.153 416.457 146.153 416.122 146.335L404.493 152.443C403.626 152.89 402.62 152.163 402.787 151.199L405.01 138.256C405.08 137.878 404.954 137.487 404.674 137.208L395.268 128.038C394.555 127.353 394.946 126.165 395.91 126.026Z" fill="#0540F1"/>
<path d="M409.889 145.678L415.997 142.463C416.417 142.239 416.934 142.239 417.353 142.463L423.461 145.678C424.538 146.237 425.782 145.328 425.586 144.14L424.426 137.347C424.342 136.872 424.496 136.383 424.845 136.047L429.779 131.225C430.646 130.387 430.17 128.905 428.968 128.737L422.147 127.745C421.672 127.675 421.267 127.381 421.043 126.948L417.996 120.756C417.465 119.666 415.914 119.666 415.382 120.756L412.335 126.948C412.126 127.381 411.706 127.675 411.231 127.745L404.41 128.737C403.208 128.905 402.733 130.387 403.599 131.225L408.533 136.047C408.883 136.383 409.037 136.872 408.953 137.347L407.793 144.14C407.555 145.328 408.813 146.237 409.889 145.678Z" fill="#0540F1"/>
<path d="M101.866 151.423C112.196 151.423 119.841 158.663 119.576 170.907V172.557H95.1571C95.4227 177.029 97.9246 179.797 101.866 179.797C104.438 179.797 106.744 178.343 107.653 175.981L119.114 176.834C116.948 183.613 110.295 187.89 101.866 187.89C90.6144 187.89 83.2344 180.65 83.2344 169.649C83.2344 158.649 90.6144 151.423 101.866 151.423ZM108.114 166.169C107.723 161.556 105.025 159.516 101.866 159.516C98.1203 159.516 95.6183 162.018 95.213 166.169H108.114Z" fill="#262626"/>
<path d="M157.553 187.107H146.427L146.232 182.103C144.317 185.793 140.697 187.889 135.902 187.889C126.356 187.889 121.156 180.118 121.156 169.649C121.156 159.18 126.356 151.422 135.902 151.422C140.445 151.422 143.939 153.393 146.106 157.083V140.366H157.553V187.107ZM139.718 179.531C144.387 179.531 146.693 174.988 146.693 169.663C146.693 164.072 144.387 159.655 139.718 159.655C135.05 159.655 132.799 164.072 132.799 169.663C132.799 175.058 135.176 179.531 139.718 179.531Z" fill="#262626"/>
<path d="M172.494 176.442V187.107H160.711V176.442H172.494Z" fill="#262626"/>
</svg>
