<svg width="149" height="32" viewBox="0 0 149 32" fill="none" xmlns="http://www.w3.org/2000/svg">
<g id="Group">
<g id="Group_2">
<g id="Group_3">
<path id="Vector" d="M21.0339 13.4938H7.4196V7.63433H21.5407V2.14249C21.5407 1.82437 21.2816 1.56531 20.9635 1.56531H0.577191C0.259073 1.56531 0 1.82437 0 2.14249V14.8844H21.0339V13.4938Z" fill="#262626"/>
<path id="Vector_2" d="M7.4177 19.4791H21.032V17.8352H0V30.9143C0 31.2324 0.259072 31.4915 0.577191 31.4915H21.2987C21.6168 31.4915 21.8759 31.2324 21.8759 30.9143V25.4224H7.4177V19.4791Z" fill="#262626"/>
</g>
<g id="Group_4">
<path id="Vector_3" d="M31.6989 14.8845V7.63445H36.7565C39.7491 7.63445 41.393 8.89931 41.393 11.2595C41.393 13.6197 41.3854 14.8845 41.3854 14.8845H47.7763C48.5535 13.7206 48.9802 12.2691 48.9802 10.5432C48.9802 4.68375 44.1322 1.56543 37.9794 1.56543H24.8584C24.5403 1.56543 24.2812 1.8245 24.2812 2.14262V14.8845H31.6989Z" fill="#262626"/>
<path id="Vector_4" d="M43.5017 17.8352H24.2812V30.9143C24.2812 31.2324 24.5403 31.4915 24.8584 31.4915H31.6989V20.9535H36.6726C39.8348 20.9535 41.0977 21.7974 41.2673 24.2833L41.7359 30.9543C41.7568 31.2572 42.0083 31.4915 42.3112 31.4915H49.2336L48.5173 23.0184C48.264 19.7744 46.7877 18.1724 43.5017 17.8352Z" fill="#262626"/>
</g>
<g id="Group_5">
<path id="Vector_5" d="M72.8209 14.8845C74.5276 13.8406 75.4477 12.1453 75.4477 9.86891C75.4477 4.09324 71.1903 1.56543 62.6753 1.56543H52.1241C51.8059 1.56543 51.5469 1.8245 51.5469 2.14262V14.8845H72.8209ZM58.9665 7.3811H63.3916C66.2165 7.3811 67.9862 8.35069 67.9862 10.5851C67.9862 12.7358 66.1308 13.7473 63.3916 13.7473H58.9665V7.3811Z" fill="#262626"/>
<path id="Vector_6" d="M74.4667 17.8352H51.5488V30.9143C51.5488 31.2324 51.8079 31.4915 52.126 31.4915H64.3631C72.499 31.4915 76.7126 28.5827 76.7126 23.0184C76.7126 20.7478 75.9525 19.0162 74.4667 17.8352ZM64.6146 25.6758H58.9665V18.8048H64.6146C67.3119 18.8048 69.2511 19.942 69.2511 22.3041C69.2511 24.6224 67.3138 25.6758 64.6146 25.6758Z" fill="#262626"/>
</g>
</g>
<g id="Group_6">
<g id="Group_7">
<path id="Vector_7" d="M147.737 14.8845V13.4939H134.123V7.63445H148.244V2.14262C148.244 1.8245 147.985 1.56543 147.667 1.56543H127.282C126.964 1.56543 126.705 1.8245 126.705 2.14262V14.8845H147.737Z" fill="#262626"/>
<path id="Vector_8" d="M134.123 25.4224V19.4791H147.737V17.8352H126.703V30.9143C126.703 31.2324 126.962 31.4915 127.28 31.4915H148.002C148.32 31.4915 148.579 31.2324 148.579 30.9143V25.4224H134.123Z" fill="#262626"/>
</g>
<g id="Group_8">
<path id="Vector_9" d="M101.765 14.8844H117.241C115.964 14.4139 114.536 14.0214 112.966 13.7033C110.015 13.029 107.444 12.227 107.36 10.0783C107.192 8.13911 108.962 6.87425 111.533 6.87425C114.357 6.87425 116.254 8.6439 116.549 11.5527L123.247 11.2841C123.592 11.2708 123.851 10.9584 123.795 10.6174C122.843 4.73885 118.294 0.889038 111.703 0.889038C104.537 0.889038 99.8164 4.38835 99.8164 9.95067C99.8145 11.9299 100.487 13.549 101.765 14.8844Z" fill="#262626"/>
<path id="Vector_10" d="M122.185 17.8351H106.575C107.864 18.3342 109.323 18.7666 110.941 19.1418C115.114 20.1533 116.758 21.1648 116.8 23.104C116.842 24.9594 115.156 25.9709 112.628 25.9709C109.171 25.9709 107.148 24.1155 106.643 21.1668L99.8673 21.5154C99.534 21.5325 99.2825 21.8278 99.3225 22.1592C100.027 28.2111 105.159 31.9999 112.461 31.9999C119.29 31.9999 124.305 28.6702 124.305 22.9383C124.303 20.9153 123.561 19.2238 122.185 17.8351Z" fill="#262626"/>
</g>
</g>
<g id="Group_9">
<path id="Vector_11" d="M78.6687 31.4247L87.9913 26.5234C88.159 26.4358 88.359 26.4358 88.5285 26.5234L97.8511 31.4247C98.274 31.6476 98.7674 31.2876 98.6874 30.8171L96.9063 20.4372C96.8739 20.2506 96.9368 20.0601 97.072 19.9267L104.614 12.5757C104.956 12.2423 104.766 11.6613 104.293 11.5928L93.8718 10.0784C93.6832 10.0517 93.5213 9.93359 93.4375 9.76406L88.7762 0.321453C88.5647 -0.107151 87.9532 -0.107151 87.7418 0.321453L83.0805 9.76406C82.9967 9.93359 82.8348 10.0517 82.6462 10.0784L72.2244 11.5928C71.752 11.6613 71.5634 12.2423 71.9044 12.5757L79.4459 19.9267C79.5812 20.0582 79.644 20.2506 79.6117 20.4372L77.8306 30.8171C77.7525 31.2876 78.2458 31.6476 78.6687 31.4247ZM78.0992 13.41L84.4635 12.4862C84.652 12.4595 84.814 12.3414 84.8978 12.1719L87.7437 6.40572C87.9551 5.97711 88.5666 5.97711 88.7781 6.40572L91.624 12.1719C91.7078 12.3414 91.8697 12.4595 92.0583 12.4862L98.4226 13.41C98.895 13.4786 99.0836 14.0596 98.7426 14.393L94.1366 18.8809C94.0013 19.0143 93.9385 19.2048 93.9708 19.3914L95.0585 25.7291C95.1385 26.1996 94.6452 26.5596 94.2223 26.3367L88.5304 23.3441C88.3628 23.2565 88.1628 23.2565 87.9932 23.3441L82.3014 26.3367C81.8785 26.5596 81.3851 26.1996 81.4651 25.7291L82.5528 19.3914C82.5852 19.2048 82.5224 19.0143 82.3871 18.8809L77.783 14.393C77.4363 14.0596 77.6248 13.4786 78.0992 13.41Z" fill="#0540F1"/>
<path id="Vector_12" d="M84.9375 23.026L87.9263 21.4545C88.1339 21.344 88.3834 21.344 88.5911 21.4545L91.5799 23.026C92.1037 23.3023 92.7171 22.8565 92.618 22.2717L92.0466 18.9438C92.0066 18.7114 92.0828 18.4752 92.2523 18.3114L94.6696 15.955C95.0944 15.5417 94.8601 14.8197 94.2734 14.7359L90.9322 14.2502C90.6998 14.2159 90.4979 14.0692 90.3931 13.8597L88.8978 10.8309C88.6349 10.2994 87.8767 10.2994 87.6158 10.8309L86.1204 13.8597C86.0157 14.0711 85.8156 14.2178 85.5813 14.2502L82.2401 14.7359C81.6534 14.8216 81.4191 15.5417 81.8439 15.955L84.2612 18.3114C84.4289 18.4752 84.507 18.7133 84.467 18.9438L83.8955 22.2717C83.7983 22.8565 84.4117 23.3023 84.9375 23.026Z" fill="#0540F1"/>
</g>
</g>
</svg>
