<svg width="231" height="231" viewBox="0 0 231 231" fill="none" xmlns="http://www.w3.org/2000/svg">
<path d="M16.4729 50.6797C14.7931 44.9277 18.2433 38.9349 24.061 37.4994L119.881 13.8557C125.12 12.5628 130.489 15.4387 132.316 20.5165L183.135 161.752C185.201 167.494 181.97 173.785 176.099 175.452L79.6125 202.842C74.429 204.313 68.9707 201.636 66.9615 196.636L38.1872 125.035L16.4729 50.6797Z" fill="white"/>
<path d="M208.181 72.1428C208.331 72.3156 207.467 72.1428 220.034 74.366V73.6403L208.768 71.3941C193.69 54.1962 172.818 47.9183 149.78 48.5864C148.052 42.827 139.931 15.884 138.48 12.1519C136.867 8.00502 134.114 6.06982 129.817 6.06982C125.774 6.06982 66.4627 21.966 63.007 22.9221C56.4527 24.6845 36.1908 29.7068 22.6905 33.1855C9.83529 36.5145 11.2521 44.7161 12.1391 49.6116C17.0923 77.4876 28.8416 118.622 47.7558 162.21C45.9631 167.724 45.2512 173.532 45.6594 179.316C47.249 200.948 63.9631 216.545 81.1609 221.314L82.405 224.931H83.6375C82.1285 220.795 82.2322 220.461 81.7484 220.323C63.9746 215.22 48.7004 199.301 47.0647 179.2C45.9128 164.721 52.8242 149.654 62.6499 140.727C65.5873 138.078 71.8651 133.816 73.9501 137.133C64.8731 151.612 58.457 168.131 56.948 179.696C57.7402 179.563 58.5537 179.655 59.2967 179.96C60.0396 180.265 60.6824 180.772 61.1524 181.424C61.4059 181.769 61.3022 182.449 60.7262 181.873C60.2944 181.473 59.786 181.164 59.2316 180.966C58.6772 180.768 58.0885 180.685 57.5009 180.721C57.3927 180.733 57.288 180.767 57.1931 180.821C57.0981 180.874 57.0148 180.946 56.948 181.032C56.5909 181.527 56.948 182.264 57.4203 182.668C58.4013 183.407 59.5713 183.854 60.7954 183.958C60.9906 183.973 61.1867 183.942 61.3671 183.865C61.5476 183.789 61.707 183.671 61.8321 183.52C65.5758 178.89 68.9534 173.976 71.9342 168.822C73.242 173.32 75.2268 177.592 77.8204 181.493L75.4936 185.766C75.4807 185.787 75.4722 185.811 75.4684 185.835C75.4646 185.86 75.4657 185.885 75.4716 185.909C75.4775 185.933 75.4881 185.956 75.5027 185.976C75.5173 185.996 75.5358 186.013 75.557 186.025C75.5781 186.038 75.6016 186.047 75.6261 186.051C75.6506 186.054 75.6756 186.053 75.6997 186.047C75.7237 186.042 75.7464 186.031 75.7664 186.016C75.7864 186.002 75.8033 185.983 75.8161 185.962L78.9493 181.735C78.9915 181.669 79.0139 181.593 79.0139 181.516C79.0139 181.438 78.9915 181.362 78.9493 181.297C77.1388 178.617 75.5955 175.766 74.3417 172.784C73.1303 169.838 72.2307 166.772 71.6578 163.638C67.8219 140.923 93.037 154.147 99.1191 186.031C102.045 201.236 97.7138 210.221 97.7138 210.958C97.7188 211.014 97.7422 211.067 97.7803 211.108C97.8185 211.149 97.8692 211.176 97.9245 211.186C97.9798 211.195 98.0366 211.185 98.0861 211.159C98.1355 211.132 98.1747 211.09 98.1976 211.039C100.679 203.999 101.469 196.474 100.501 189.072C102.367 189.154 104.235 188.956 106.042 188.485C107.804 193.092 108.208 197.251 106.445 202.008C106.407 202.079 106.387 202.158 106.387 202.238C106.387 202.319 106.407 202.398 106.445 202.469L122.146 224.931H123.585L107.378 202.123C107.599 201.569 107.792 201.004 107.954 200.43C107.954 200.43 137.904 192.01 145.794 189.337C150.874 187.609 171.769 180.894 178.877 178.636C186.318 176.275 189.44 174.155 190.776 170.573C192.112 166.99 190.119 161.979 185.569 150.795C183.162 144.862 170.594 111.296 169.811 109.326C176.723 109.199 186.03 105.755 191.697 102.161L219.988 116.364V115.212L191.686 100.457C187.355 102.968 180.593 107.495 169.615 108.75C162.635 90.17 163.637 93.5221 159.836 81.4271C161.425 81.2428 163.026 81.0124 164.605 80.759L174.131 88.0851C174.183 88.1279 174.25 88.1483 174.317 88.1418C174.383 88.1353 174.445 88.1025 174.488 88.0505C174.531 87.9986 174.551 87.9318 174.545 87.8648C174.538 87.7979 174.505 87.7362 174.453 87.6935L165.1 79.7914C164.743 79.5034 164.628 79.7914 159.525 80.2291C153.973 80.7936 141.405 81.4732 136.959 78.1442C134.655 76.3472 135.151 74.078 137.12 71.8663C145.184 63.181 168.556 60.0248 181.123 59.5871C181.153 59.5944 181.185 59.5948 181.216 59.5881C181.246 59.5814 181.275 59.5678 181.3 59.5484C181.324 59.529 181.344 59.5042 181.358 59.476C181.372 59.4478 181.379 59.4169 181.379 59.3855C181.379 59.3542 181.372 59.3232 181.358 59.295C181.344 59.2668 181.324 59.242 181.3 59.2226C181.275 59.2032 181.246 59.1897 181.216 59.183C181.185 59.1763 181.153 59.1766 181.123 59.1839C171.987 59.1949 162.888 60.3559 154.042 62.6396C152.705 58.2624 151.335 53.7585 149.998 49.3352C192.63 49.5886 205.52 70.438 208.181 72.1428ZM23.589 36.4915C37.7689 32.8285 117.25 12.0021 128.02 9.77894C129.469 9.35932 131.015 9.41177 132.432 9.92869C134.217 10.6889 134.978 12.3938 135.888 14.951C111.444 20.2727 31.7214 41.2719 15.111 46.6397C14.6042 42.539 15.3068 38.634 23.589 36.4915ZM15.1456 46.8586C26.2614 43.4029 64.1474 33.4274 75.459 30.4671C121.431 18.3491 135.899 15.1583 135.922 15.1468C136.579 17.1165 137.57 20.2497 138.767 24.1431C116.04 28.6355 37.4003 49.9572 16.9656 56.3963C16.3781 53.7239 15.4566 49.2315 15.1456 46.8816V46.8586ZM17.0231 56.6037C32.1015 51.9961 117.596 28.6931 138.837 24.3505C139.988 28.1402 141.382 32.6442 142.845 37.4706C125.279 41.2258 39.3585 63.803 20.1333 69.7238C18.8547 64.6209 17.7949 60.1054 17.0231 56.6267V56.6037ZM74.3417 136.557C71.773 133.009 65.4145 137.133 62.0624 140.013C58.7594 142.943 55.8859 146.325 53.5269 150.057C51.6032 149.366 49.9905 145.45 48.2627 141.165C45.7725 135.165 43.6792 129.008 41.9963 122.734C41.5356 120.718 41.4665 119.163 43.0791 117.816C45.0489 116.134 53.4462 113.438 55.9228 112.644C60.6456 111.123 65.9674 109.879 70.7938 108.808C72.706 108.393 74.7449 108.439 75.8852 109.66C77.5785 111.434 80.6541 120.442 82.3935 125.51C80.4813 127.814 78.6268 130.222 76.8529 132.779C72.7588 130.16 68.3948 127.99 63.8364 126.305C64.9883 124.278 69.8493 115.558 71.3698 112.724C71.4049 112.663 71.4144 112.591 71.396 112.523C71.3776 112.454 71.333 112.397 71.2719 112.361C71.2108 112.326 71.1382 112.317 71.0702 112.335C71.0021 112.354 70.9442 112.398 70.909 112.459C67.7183 117.263 65.0919 121.525 62.673 125.856C56.9711 123.748 52.3059 122.4 46.9495 120.949C46.8823 120.926 46.8087 120.931 46.745 120.962C46.6813 120.993 46.6326 121.049 46.6097 121.116C46.5868 121.183 46.5915 121.257 46.6228 121.32C46.6542 121.384 46.7095 121.433 46.7767 121.456C50.4513 122.907 56.9595 125.038 62.0509 126.962C59.0295 132.38 56.5005 138.059 54.4945 143.929C54.4814 143.99 54.4902 144.054 54.5194 144.109C54.5486 144.164 54.5963 144.207 54.6541 144.23C54.7119 144.254 54.7761 144.256 54.8354 144.237C54.8947 144.217 54.9453 144.178 54.9783 144.125C59.1827 135.002 62.696 128.425 63.2374 127.411C67.7608 129.098 72.1407 131.147 76.3345 133.539C75.6434 134.484 74.9752 135.509 74.3417 136.557ZM80.1012 152.419C80.608 151.209 81.1034 150 81.5756 148.79C84.7318 148.917 90.9751 149.424 92.68 152.096C94.3848 154.769 90.8254 157.522 87.6116 158.57C85.5619 156.021 83.0042 153.926 80.1012 152.419ZM88.441 159.584C92.7836 160.39 102.955 162.256 103.704 166.622C104.303 169.916 99.3495 171.794 95.7786 172.185C93.892 167.69 91.4377 163.455 88.4755 159.584H88.441ZM100.306 188.45C99.7221 183.993 98.6403 179.615 97.0802 175.399C101.227 176.885 110.822 181.159 109.429 185.225C108.53 187.886 103.404 188.496 100.34 188.45H100.306ZM187.539 169.352C186.779 171.402 184.878 173.13 177.805 175.376C142.027 186.734 144.112 186.757 108.484 196.721C108.571 193.789 107.867 190.889 106.445 188.323C107.229 188.138 107.961 187.78 108.589 187.276C109.216 186.772 109.724 186.134 110.074 185.409C111.732 180.64 101.342 176.194 96.677 174.385C96.2048 173.141 96.1126 172.969 96.032 172.773C99.983 172.208 104.925 170.112 104.303 166.529C104.219 166.045 104.047 165.581 103.796 165.159C103.796 165.159 175.87 143.837 178.865 143.077C184.302 157.176 188.714 166.265 187.573 169.352H187.539ZM136.625 71.4401C133.618 74.8152 135.162 76.9462 135.151 77.096C135.509 77.6973 135.983 78.2219 136.544 78.6395C137.344 79.2757 138.233 79.7918 139.182 80.1715C121.57 85.5509 44.7148 107.667 44.3923 107.771C40.1533 108.923 37.3542 109.752 35.1771 103.578C39.7847 98.2218 55.1165 80.3789 58.2151 78.1672C59.3066 77.3517 60.6308 76.9076 61.9933 76.9001C66.7507 76.7619 90.9175 88.1427 95.145 86.1153C98.0478 84.71 108.104 68.906 108.208 68.7562C115.407 57.6634 114.474 58.297 130.865 60.9694C134.517 61.5684 139.505 62.3747 145.99 63.3999L146.485 65.1853C142.765 66.6713 139.021 68.7562 136.66 71.4286L136.625 71.4401ZM34.843 102.829C32.8733 97.0699 27.5515 80.0333 27.8625 77.4876C28.0014 76.5757 28.4017 75.7235 29.0151 75.0345C29.6285 74.3455 30.4285 73.8492 31.3182 73.6057C35.131 72.5344 134.713 45.3151 137.443 45.3151C139.62 45.3151 140.461 46.467 141.29 48.5749C143.016 53.2123 144.507 57.9334 145.76 62.7203C121.57 58.7347 119.692 57.9399 116.282 58.7347C113.414 59.4028 112.136 61.0385 107.413 68.2148C103.876 73.6748 96.6655 84.2723 94.7419 85.2284C93.0831 86.0347 92.1962 85.7583 87.3006 84.2262C81.0342 82.2565 77.6131 81.1507 70.3101 78.2594C65.9098 76.5085 61.6247 74.6079 57.6392 77.43C54.0107 80.0679 37.7113 99.3737 34.843 102.829ZM150.747 63.5611C149.595 63.9298 148.363 64.356 147.13 64.8513C145.681 59.265 143.928 53.7622 141.878 48.3676C140.945 46.0638 139.908 44.7391 137.397 44.7045C136.003 44.7045 76.0004 60.2091 31.0994 72.9952C30.0917 73.2804 29.187 73.8488 28.4928 74.6328C27.7986 75.4169 27.344 76.3837 27.1829 77.4185C26.7913 80.3789 31.9748 97.0008 34.3592 103.44C37.1584 110.996 40.2455 109.499 45.6939 108.048C68.2366 102.173 117.112 87.8432 140.23 80.5862C145.207 82.245 151.162 82.1183 156.357 81.7381C158.281 87.9008 159.813 92.6236 160.642 94.72C162.174 98.625 175.997 135.474 178.819 142.846C173.348 144.206 170.629 145.081 103.704 164.951C101.227 161.127 93.4748 159.296 88.8787 158.743C91.4244 157.591 93.8895 155.748 93.7167 152.983C93.5439 150.219 89.2358 149.101 87.8305 148.756C85.8869 148.303 83.904 148.041 81.9097 147.972C84.6692 140.957 86.6846 133.672 87.9226 126.236C88.2567 124.128 84.6973 122.78 83.5569 124.047L82.5663 125.199C79.8823 117.251 77.5325 110.789 76.012 109.165C74.8601 107.863 72.4641 108.117 70.7132 108.382C64.6773 109.326 46.4081 114.36 42.8142 117.401C41.5701 118.633 40.8675 119.555 41.5932 122.723C43.2496 129.056 45.3395 135.268 47.848 141.314C49.2188 144.666 51.1424 149.562 53.308 150.345C51.8417 152.662 50.5554 155.088 49.4607 157.602C38.5061 132.629 31.0303 113.83 20.1794 70.0579C38.0453 64.6324 128.757 40.8802 142.903 37.8047C143.893 40.9494 149.215 58.343 150.747 63.5611Z" fill="black"/>
<path d="M88.6482 119.763C87.7958 119.452 86.091 122.066 85.6648 122.792C85.6532 122.81 85.6461 122.831 85.644 122.853C85.6419 122.874 85.6449 122.896 85.6527 122.916C85.6606 122.936 85.6731 122.954 85.6891 122.969C85.7052 122.983 85.7245 122.994 85.7454 122.999C86.3965 123.147 87.0064 123.439 87.5308 123.852C87.5438 123.867 87.5598 123.878 87.5777 123.886C87.5955 123.894 87.6149 123.899 87.6345 123.899C87.6541 123.899 87.6735 123.894 87.6914 123.886C87.7093 123.878 87.7252 123.867 87.7382 123.852C88.0953 123.092 89.5006 120.108 88.6482 119.763ZM26.4226 47.8494C24.2032 48.2837 22.0527 49.016 20.0295 50.0265C20.6997 48.9986 21.3038 47.929 21.838 46.8242C21.8477 46.7988 21.8481 46.7707 21.8391 46.745C21.8301 46.7193 21.8123 46.6976 21.7888 46.6838C21.7653 46.67 21.7377 46.665 21.7109 46.6696C21.684 46.6742 21.6597 46.6882 21.6422 46.7091C20.8846 47.8452 20.2035 49.0304 19.6033 50.2569C19.4075 50.6716 22.8286 51.6161 23.2779 51.6853C23.302 51.6853 23.3256 51.6777 23.3452 51.6635C23.3648 51.6494 23.3795 51.6294 23.3871 51.6065C23.3948 51.5836 23.395 51.5588 23.3878 51.5357C23.3806 51.5127 23.3663 51.4924 23.347 51.4779C22.3092 50.9676 21.2151 50.581 20.0871 50.326C22.1637 49.4502 24.2954 48.7114 26.4686 48.1144C26.676 47.9877 26.6184 47.8149 26.4226 47.8494ZM38.4945 44.7393C37.2107 44.0537 35.8741 43.472 34.4974 42.9999C34.4711 42.9934 34.4433 42.9963 34.419 43.0082C34.3946 43.0201 34.3753 43.0402 34.3643 43.0649C34.3533 43.0897 34.3513 43.1175 34.3588 43.1436C34.3663 43.1696 34.3827 43.1922 34.4052 43.2073C35.5171 43.8136 36.6721 44.3372 37.8609 44.7739C35.6609 44.9865 33.5056 45.5302 31.4679 46.3865C31.4454 46.4016 31.429 46.4242 31.4215 46.4502C31.414 46.4763 31.4159 46.5041 31.4269 46.5289C31.4379 46.5536 31.4573 46.5737 31.4816 46.5856C31.506 46.5975 31.5337 46.6004 31.56 46.5939C33.0805 46.1101 35.2807 45.6839 38.1374 45.0964C37.3957 45.9953 36.7365 46.9591 36.1676 47.9761C36.1602 48.0015 36.1609 48.0285 36.1696 48.0534C36.1783 48.0784 36.1946 48.0999 36.2162 48.1152C36.2378 48.1304 36.2635 48.1385 36.2899 48.1384C36.3163 48.1382 36.342 48.1298 36.3634 48.1144C37.1881 47.1382 37.9172 46.0852 38.5405 44.9697C38.5577 44.9536 38.5705 44.9334 38.5777 44.911C38.5849 44.8886 38.5862 44.8647 38.5816 44.8417C38.577 44.8186 38.5666 44.7971 38.5513 44.7792C38.5361 44.7613 38.5165 44.7475 38.4945 44.7393ZM48.7809 43.2188C48.7448 43.8942 48.4663 44.5339 47.9966 45.0206C47.5269 45.5072 46.8974 45.8082 46.2237 45.8682C45.5765 45.9191 44.9309 45.7516 44.39 45.3925C43.8492 45.0333 43.4444 44.5032 43.2403 43.8869C43.0701 43.2521 43.1297 42.5777 43.4085 41.9826C43.6873 41.3875 44.1673 40.91 44.7639 40.6344C45.3605 40.3589 46.0353 40.3029 46.6691 40.4765C47.3029 40.6501 47.8551 41.042 48.228 41.5831C47.6706 41.5562 47.112 41.5755 46.5578 41.6407C46.5272 41.6407 46.4979 41.6528 46.4763 41.6744C46.4547 41.696 46.4426 41.7253 46.4426 41.7559C46.4426 41.7864 46.4547 41.8157 46.4763 41.8373C46.4979 41.8589 46.5272 41.8711 46.5578 41.8711C47.1971 41.9398 47.8421 41.9398 48.4814 41.8711C48.5067 41.8653 48.5298 41.8525 48.5481 41.8341C48.5665 41.8158 48.5793 41.7927 48.5851 41.7674C48.7288 41.1016 48.7638 40.417 48.6888 39.7401C48.6888 39.7095 48.6766 39.6802 48.655 39.6586C48.6334 39.637 48.6041 39.6249 48.5736 39.6249C48.543 39.6249 48.5137 39.637 48.4921 39.6586C48.4705 39.6802 48.4584 39.7095 48.4584 39.7401C48.3424 40.2732 48.2998 40.8196 48.3317 41.3642C46.2237 38.3232 41.835 40.8344 42.8026 44.1058C43.8508 47.7803 49.4375 46.8358 49.0228 43.2994C49.0335 43.2674 49.031 43.2323 49.0159 43.2021C49.0008 43.1719 48.9743 43.1489 48.9422 43.1382C48.9101 43.1275 48.8751 43.13 48.8449 43.1451C48.8146 43.1602 48.7916 43.1867 48.7809 43.2188ZM22.172 39.4751C21.8759 39.4751 21.5863 39.5629 21.3401 39.7275C21.0938 39.892 20.9019 40.1259 20.7886 40.3995C20.6752 40.6732 20.6456 40.9743 20.7033 41.2647C20.7611 41.5552 20.9037 41.822 21.1132 42.0315C21.3226 42.2409 21.5894 42.3835 21.8799 42.4413C22.1704 42.4991 22.4715 42.4694 22.7451 42.3561C23.0187 42.2427 23.2526 42.0508 23.4171 41.8045C23.5817 41.5583 23.6695 41.2688 23.6695 40.9726C23.6695 40.5754 23.5117 40.1946 23.2309 39.9137C22.9501 39.6329 22.5692 39.4751 22.172 39.4751ZM27.4593 37.8855C27.1631 37.8855 26.8736 37.9733 26.6273 38.1379C26.3811 38.3024 26.1891 38.5363 26.0758 38.8099C25.9624 39.0835 25.9328 39.3846 25.9906 39.6751C26.0483 39.9656 26.191 40.2324 26.4004 40.4418C26.6098 40.6513 26.8766 40.7939 27.1671 40.8517C27.4576 40.9095 27.7587 40.8798 28.0323 40.7665C28.3059 40.6531 28.5398 40.4612 28.7044 40.2149C28.8689 39.9687 28.9567 39.6791 28.9567 39.383C28.9567 38.9858 28.799 38.6049 28.5181 38.3241C28.2373 38.0433 27.8564 37.8855 27.4593 37.8855ZM32.758 36.3304C32.4618 36.3304 32.1723 36.4183 31.9261 36.5828C31.6798 36.7474 31.4879 36.9812 31.3745 37.2548C31.2612 37.5285 31.2315 37.8296 31.2893 38.12C31.3471 38.4105 31.4897 38.6774 31.6991 38.8868C31.9086 39.0962 32.1754 39.2388 32.4659 39.2966C32.7563 39.3544 33.0574 39.3247 33.3311 39.2114C33.6047 39.098 33.8386 38.9061 34.0031 38.6599C34.1676 38.4136 34.2555 38.1241 34.2555 37.8279C34.2555 37.4308 34.0977 37.0499 33.8169 36.769C33.536 36.4882 33.1552 36.3304 32.758 36.3304ZM132.248 18.2456C131.349 18.2456 64.3661 35.2707 58.7794 36.7682C55.3237 37.7012 54.5289 37.7703 53.8378 38.9222C53.5861 39.3292 53.4483 39.7964 53.4388 40.2749C53.4294 40.7534 53.5486 41.2256 53.784 41.6423C54.0194 42.0589 54.3624 42.4047 54.7771 42.6436C55.1918 42.8824 55.663 43.0055 56.1416 42.9999C57.0471 42.8839 57.9361 42.6636 58.7909 42.3434C73.5007 38.3232 131.499 23.913 132.213 23.7747C132.676 23.72 133.121 23.5661 133.518 23.3236C133.916 23.0811 134.257 22.7556 134.517 22.3694C134.764 21.9612 134.898 21.4953 134.908 21.0185C134.918 20.5417 134.802 20.0707 134.572 19.6529C134.342 19.235 134.006 18.8851 133.598 18.638C133.19 18.391 132.724 18.2557 132.248 18.2456ZM134.31 22.1966C134.062 22.5494 133.741 22.845 133.37 23.0636C132.998 23.2822 132.584 23.4186 132.155 23.4637C48.2971 44.4629 56.9364 42.758 56.1301 42.758C55.7025 42.7512 55.2842 42.6321 54.9171 42.4128C54.55 42.1935 54.2469 41.8817 54.0381 41.5085C53.8293 41.1353 53.7222 40.7138 53.7275 40.2862C53.7328 39.8586 53.8503 39.4399 54.0682 39.072C54.6787 38.0813 55.22 38.0352 58.8255 37.0677C65.2761 35.3283 131.395 18.5566 132.213 18.5566C132.64 18.5552 133.059 18.6665 133.428 18.8793C133.798 19.0921 134.105 19.3988 134.317 19.7683C134.53 20.1378 134.642 20.5571 134.64 20.9835C134.639 21.41 134.525 21.8285 134.31 22.1966Z" fill="black"/>
<path d="M60.1272 40.6267C59.8211 40.3898 59.4839 40.196 59.1251 40.0508C59.2772 39.7301 59.3002 39.3632 59.1892 39.026C59.0783 38.6888 58.8418 38.4073 58.5289 38.2397C58.216 38.0721 57.8507 38.0313 57.5085 38.1257C57.1663 38.2201 56.8736 38.4426 56.691 38.747C56.5083 39.0514 56.4498 39.4143 56.5275 39.7607C56.6052 40.107 56.8131 40.4102 57.1083 40.6075C57.4034 40.8047 57.7631 40.8808 58.1128 40.82C58.4625 40.7593 58.7755 40.5663 58.9868 40.2812C59.3113 40.4995 59.659 40.6811 60.0235 40.8225C60.048 40.8278 60.0736 40.8248 60.0963 40.8142C60.119 40.8036 60.1376 40.7859 60.1493 40.7638C60.161 40.7416 60.1652 40.7163 60.1612 40.6916C60.1572 40.6668 60.1453 40.6441 60.1272 40.6267ZM57.8234 40.6267C57.5932 40.6406 57.364 40.585 57.1657 40.4671C56.9674 40.3492 56.8091 40.1745 56.7112 39.9656C56.6133 39.7568 56.5804 39.5233 56.6168 39.2955C56.6531 39.0677 56.757 38.856 56.915 38.688C57.073 38.5199 57.2778 38.4031 57.5029 38.3528C57.7281 38.3024 57.9631 38.3208 58.1777 38.4056C58.3922 38.4904 58.5763 38.6376 58.7062 38.8283C58.8361 39.0189 58.9058 39.2441 58.9062 39.4748C58.9074 39.7632 58.8003 40.0415 58.6063 40.2548C58.4122 40.4681 58.1452 40.6008 57.858 40.6267H57.8234ZM130.531 20.9062C130.289 19.3051 129.725 19.4318 129.506 20.3072C129.452 20.5036 129.414 20.7039 129.391 20.9062C129.011 20.9062 128.158 20.8025 127.974 21.1481C127.79 21.4937 128.17 21.678 128.458 21.8047C128.654 21.8886 128.859 21.9504 129.068 21.989C128.803 22.3461 128.469 23.0257 128.815 23.2446C129.161 23.4634 129.806 22.7838 130.094 22.4728C130.393 22.7262 130.981 23.1524 131.315 22.9451C131.649 22.7377 131.119 22.1157 130.819 21.7932C131.211 21.7125 131.798 21.5282 131.706 21.1481C131.614 20.768 130.888 20.8716 130.531 20.9062ZM130.658 21.7125C130.589 21.7125 130.566 21.7701 130.658 21.8392C130.75 21.9084 131.407 22.6341 131.234 22.7953C131.061 22.9566 130.416 22.4613 130.174 22.2885C130.157 22.2771 130.137 22.271 130.117 22.271C130.096 22.271 130.076 22.2771 130.059 22.2885C129.679 22.6571 129.091 23.1639 128.907 23.0257C128.723 22.8875 129.23 22.0696 129.276 21.9429C129.286 21.9321 129.292 21.9177 129.292 21.9026C129.292 21.8875 129.286 21.873 129.276 21.8623C129.068 21.7816 128.193 21.5167 128.251 21.2287C128.308 20.9408 129.402 21.0444 129.529 21.0559C129.656 21.0675 129.621 20.9984 129.633 20.9062C129.852 19.7543 130.048 19.8349 130.14 19.9962C130.281 20.3141 130.4 20.6412 130.497 20.9753V21.0329C130.497 21.0329 131.487 21.0329 131.557 21.2287C131.626 21.4246 130.934 21.6549 130.658 21.7125ZM86.1832 119.659C84.0176 112.332 82.405 109.222 83.1767 106.723C84.7203 102.242 100.455 98.4176 105.696 97.2081C107.482 96.7934 111.525 95.8488 113.241 96.2174C114.958 96.586 115.994 97.5882 119.945 109.464C121.612 114.337 122.977 119.307 124.035 124.347C124.219 124.94 124.271 125.567 124.185 126.182C124.1 126.797 123.879 127.386 123.539 127.906C121.719 130.325 108.668 133.896 105.742 134.702C91.5165 138.607 93.2328 138.02 88.9823 127.365C88.9823 127.343 88.9738 127.323 88.9587 127.308C88.9436 127.293 88.9231 127.284 88.9017 127.284C88.8803 127.284 88.8598 127.293 88.8447 127.308C88.8295 127.323 88.821 127.343 88.821 127.365C90.6871 133.124 91.3667 136.43 94.4308 137.214C96.7346 137.824 103.404 135.705 105.846 135.013C121.201 130.602 122.871 129.369 123.85 128.102C124.219 127.541 124.461 126.905 124.558 126.241C124.656 125.576 124.607 124.898 124.415 124.255C123.362 119.184 121.996 114.182 120.325 109.28C116.351 97.4154 115.338 96.2289 113.322 95.7912C111.571 95.4111 108.046 96.2289 105.616 96.7934C100.375 98.0259 84.536 101.839 82.8542 106.561C81.9212 109.361 84.8009 116.641 86.0104 119.659C86.0565 119.82 86.2177 119.762 86.1832 119.659ZM134.425 125.314C137.731 125.119 152.464 120.949 159.767 117.758C162.232 116.675 163.464 115.581 162.877 112.966C160.467 104.48 157.505 96.1606 154.007 88.062C153.569 86.7245 152.665 85.5884 151.461 84.8597C148.812 83.5926 135.968 87.774 131.695 89.1563C128.988 90.0317 124.357 91.5177 122.48 93.3838C120.821 94.9734 121.051 97.0007 121.673 99.2124C128.896 124.715 130.382 125.545 134.425 125.314ZM122.629 93.6141C124.507 91.8056 129.126 90.3427 131.764 89.4903C135.427 88.3384 148.835 84.0418 151.346 85.2053C152.47 85.9081 153.311 86.9849 153.719 88.2463C157.203 96.3167 160.135 104.614 162.497 113.081C162.969 115.592 161.978 116.364 159.64 117.389C153.454 120.096 137.95 124.727 134.459 124.957C130.451 125.211 129.08 123.805 121.927 99.1778C121.282 97.0698 121.051 95.0886 122.629 93.6141ZM44.0467 53.505C44.0305 53.4324 43.9999 53.3639 43.9567 53.3035C43.9134 53.243 43.8584 53.1919 43.795 53.1532C43.7316 53.1145 43.661 53.089 43.5874 53.0782C43.5139 53.0674 43.439 53.0715 43.3671 53.0903L22.9439 58.4927C22.7911 58.5324 22.6604 58.6312 22.5805 58.7673C22.5006 58.9034 22.478 59.0656 22.5177 59.2184C22.5574 59.3711 22.6562 59.5019 22.7923 59.5818C22.9284 59.6617 23.0906 59.6843 23.2434 59.6446L43.655 54.2422C43.7312 54.2227 43.8024 54.1876 43.8642 54.139C43.926 54.0905 43.9769 54.0295 44.0138 53.9601C44.0507 53.8907 44.0726 53.8144 44.0783 53.736C44.084 53.6576 44.0732 53.5789 44.0467 53.505ZM39.6119 59.2645C39.5944 59.193 39.5629 59.1257 39.5191 59.0665C39.4753 59.0074 39.4201 58.9576 39.3568 58.92C39.2935 58.8825 39.2234 58.8579 39.1505 58.8478C39.0776 58.8378 39.0034 58.8423 38.9323 58.8613L24.0728 62.7893C23.9993 62.8091 23.9306 62.8435 23.8708 62.8905C23.811 62.9376 23.7613 62.9962 23.7247 63.0629C23.6881 63.1296 23.6654 63.203 23.6579 63.2787C23.6504 63.3544 23.6583 63.4309 23.6811 63.5035C23.6984 63.5748 23.73 63.6418 23.774 63.7005C23.8179 63.7592 23.8734 63.8084 23.9369 63.845C24.0005 63.8816 24.0708 63.905 24.1437 63.9136C24.2165 63.9222 24.2904 63.9159 24.3607 63.8951L39.2202 59.9671C39.2924 59.9472 39.3599 59.9132 39.4188 59.8669C39.4777 59.8207 39.5267 59.7632 39.5632 59.6978C39.5996 59.6324 39.6227 59.5604 39.6311 59.486C39.6394 59.4116 39.6329 59.3363 39.6119 59.2645ZM52.5707 50.9938C52.6111 51.137 52.7063 51.2585 52.8358 51.3318C52.9652 51.4052 53.1183 51.4244 53.2619 51.3855L73.6736 45.9831C73.7454 45.9642 73.8128 45.9313 73.872 45.8863C73.9311 45.8413 73.9808 45.7852 74.0183 45.721C74.0557 45.6568 74.0801 45.5859 74.0902 45.5123C74.1002 45.4387 74.0956 45.3638 74.0767 45.2919C74.0578 45.2201 74.0249 45.1526 73.98 45.0935C73.935 45.0343 73.8788 44.9846 73.8147 44.9472C73.7505 44.9098 73.6796 44.8853 73.6059 44.8753C73.5323 44.8653 73.4574 44.8699 73.3856 44.8888L52.9739 50.3372C52.836 50.3752 52.7177 50.4642 52.6429 50.586C52.568 50.7079 52.5423 50.8537 52.5707 50.9938ZM69.6419 51.0975C69.6014 50.9538 69.5067 50.8315 69.3778 50.7563C69.2489 50.6811 69.0958 50.6589 68.9508 50.6943L54.0913 54.6338C54.0182 54.6523 53.9497 54.6855 53.89 54.7314C53.8303 54.7773 53.7805 54.8349 53.7439 54.9007C53.7072 54.9665 53.6843 55.0391 53.6767 55.114C53.6691 55.189 53.6769 55.2647 53.6996 55.3365C53.7376 55.4793 53.83 55.6015 53.9571 55.6768C54.0842 55.7522 54.2357 55.7748 54.3792 55.7397L69.2503 51.8002C69.3943 51.7573 69.5159 51.6598 69.5891 51.5285C69.6623 51.3973 69.6812 51.2426 69.6419 51.0975ZM82.6008 42.9305C82.6182 43.002 82.6498 43.0693 82.6936 43.1285C82.7374 43.1876 82.7925 43.2374 82.8558 43.275C82.9191 43.3125 82.9893 43.3371 83.0622 43.3472C83.1351 43.3572 83.2093 43.3527 83.2804 43.3337L103.692 37.9313C103.766 37.9113 103.835 37.8769 103.895 37.8301C103.955 37.7833 104.005 37.725 104.043 37.6585C104.081 37.5921 104.104 37.5188 104.113 37.443C104.122 37.3673 104.116 37.2905 104.095 37.2171C104.052 37.0756 103.957 36.956 103.828 36.8831C103.699 36.8101 103.548 36.7895 103.404 36.8255L82.9924 42.1703C82.9124 42.1874 82.8372 42.2221 82.7723 42.2718C82.7073 42.3215 82.6542 42.385 82.6167 42.4577C82.5792 42.5304 82.5584 42.6106 82.5556 42.6923C82.5529 42.7741 82.5683 42.8554 82.6008 42.9305ZM99.6835 42.9305C99.6431 42.7873 99.5479 42.6659 99.4184 42.5925C99.289 42.5192 99.1359 42.4999 98.9923 42.5389L84.1328 46.4669C83.9801 46.5066 83.8493 46.6053 83.7694 46.7414C83.6895 46.8775 83.6669 47.0398 83.7066 47.1926C83.7463 47.3453 83.8451 47.476 83.9812 47.556C84.1173 47.6359 84.2796 47.6585 84.4323 47.6188L99.2918 43.6793C99.3703 43.6618 99.4441 43.6273 99.508 43.5784C99.5718 43.5294 99.6242 43.4671 99.6615 43.3959C99.6988 43.3246 99.7201 43.246 99.7239 43.1656C99.7277 43.0852 99.7139 43.005 99.6835 42.9305ZM112.619 34.7175C112.638 34.7879 112.67 34.854 112.715 34.9119C112.759 34.9698 112.814 35.0183 112.878 35.0547C112.941 35.0911 113.011 35.1146 113.083 35.124C113.155 35.1333 113.229 35.1283 113.299 35.1091L133.722 29.7067C133.794 29.6868 133.862 29.6528 133.921 29.6065C133.98 29.5603 134.029 29.5028 134.065 29.4374C134.102 29.372 134.125 29.3 134.133 29.2256C134.141 29.1512 134.135 29.0759 134.114 29.0041C134.095 28.9321 134.062 28.8646 134.017 28.8053C133.972 28.7461 133.916 28.6963 133.852 28.6589C133.788 28.6214 133.717 28.597 133.643 28.587C133.569 28.5771 133.494 28.5818 133.423 28.6009L113.011 34.0033C112.864 34.0461 112.741 34.1453 112.667 34.2793C112.594 34.4132 112.577 34.5708 112.619 34.7175ZM129.633 34.7751C129.615 34.7036 129.584 34.6363 129.54 34.5771C129.496 34.518 129.441 34.4682 129.378 34.4306C129.314 34.3931 129.244 34.3685 129.171 34.3585C129.099 34.3484 129.024 34.3529 128.953 34.3719L114.14 38.3229C114.068 38.3418 114.001 38.3747 113.941 38.4197C113.882 38.4646 113.833 38.5208 113.795 38.585C113.758 38.6492 113.733 38.7201 113.723 38.7937C113.713 38.8673 113.718 38.9422 113.737 39.0141C113.756 39.0859 113.788 39.1533 113.833 39.2125C113.878 39.2716 113.935 39.3214 113.999 39.3588C114.063 39.3962 114.134 39.4207 114.207 39.4307C114.281 39.4407 114.356 39.4361 114.428 39.4172L129.287 35.4893C129.358 35.466 129.422 35.4289 129.478 35.3801C129.534 35.3313 129.579 35.2718 129.611 35.2052C129.643 35.1386 129.662 35.0663 129.666 34.9924C129.669 34.9185 129.658 34.8446 129.633 34.7751ZM125.175 133.931C125.153 133.859 125.117 133.793 125.068 133.736C125.02 133.678 124.961 133.631 124.895 133.597C124.829 133.563 124.756 133.542 124.681 133.536C124.607 133.53 124.532 133.539 124.461 133.562L98.0478 141.787C97.9767 141.809 97.9106 141.844 97.8533 141.892C97.796 141.939 97.7486 141.997 97.7139 142.063C97.6791 142.129 97.6576 142.201 97.6507 142.275C97.6437 142.349 97.6515 142.424 97.6734 142.495C97.6953 142.566 97.731 142.632 97.7785 142.689C97.826 142.747 97.8843 142.794 97.9501 142.829C98.0159 142.864 98.0878 142.885 98.1619 142.892C98.236 142.899 98.3107 142.891 98.3818 142.869L124.795 134.645C124.939 134.6 125.06 134.499 125.131 134.366C125.203 134.232 125.218 134.076 125.175 133.931ZM119.266 141.787C119.244 141.715 119.207 141.649 119.159 141.592C119.111 141.534 119.052 141.487 118.986 141.453C118.919 141.419 118.847 141.398 118.772 141.392C118.698 141.386 118.623 141.395 118.552 141.418L99.5567 147.327C99.4854 147.349 99.4191 147.386 99.3618 147.434C99.3045 147.482 99.2574 147.541 99.2231 147.607C99.1888 147.674 99.168 147.746 99.162 147.821C99.156 147.895 99.1649 147.97 99.1881 148.041C99.2333 148.186 99.3336 148.307 99.4672 148.378C99.6009 148.449 99.7572 148.465 99.9023 148.422L118.886 142.501C119.03 142.456 119.151 142.355 119.222 142.222C119.293 142.088 119.309 141.932 119.266 141.787ZM127.387 144.62L100.974 152.856C100.902 152.879 100.837 152.916 100.78 152.964C100.723 153.012 100.676 153.071 100.641 153.137C100.607 153.203 100.586 153.276 100.58 153.35C100.574 153.425 100.582 153.499 100.605 153.571C100.628 153.642 100.664 153.708 100.712 153.765C100.76 153.822 100.819 153.869 100.886 153.903C100.952 153.937 101.024 153.958 101.099 153.964C101.173 153.97 101.248 153.962 101.319 153.939L127.732 145.715C127.804 145.692 127.87 145.656 127.927 145.608C127.984 145.56 128.032 145.501 128.066 145.435C128.1 145.368 128.121 145.296 128.127 145.221C128.133 145.146 128.124 145.071 128.101 145C128.056 144.856 127.955 144.735 127.822 144.664C127.688 144.593 127.532 144.577 127.387 144.62ZM162.669 122.193L136.256 130.475C136.185 130.497 136.119 130.533 136.062 130.58C136.005 130.628 135.957 130.686 135.922 130.752C135.888 130.817 135.866 130.889 135.859 130.963C135.852 131.038 135.86 131.112 135.882 131.183C135.904 131.254 135.94 131.321 135.987 131.378C136.035 131.435 136.093 131.482 136.159 131.517C136.224 131.552 136.296 131.573 136.37 131.58C136.445 131.587 136.519 131.58 136.59 131.558L163.038 123.287C163.191 123.243 163.32 123.14 163.396 123C163.473 122.861 163.491 122.697 163.447 122.544C163.403 122.391 163.299 122.262 163.16 122.186C163.021 122.109 162.857 122.091 162.704 122.135L162.669 122.193ZM157.417 130.406C157.396 130.335 157.361 130.269 157.314 130.212C157.267 130.154 157.209 130.107 157.143 130.073C157.078 130.039 157.006 130.018 156.932 130.012C156.859 130.005 156.784 130.014 156.714 130.037L137.696 135.946C137.552 135.992 137.431 136.092 137.36 136.226C137.288 136.359 137.273 136.516 137.316 136.661C137.338 136.732 137.374 136.798 137.423 136.856C137.471 136.913 137.53 136.96 137.596 136.994C137.662 137.029 137.735 137.049 137.81 137.055C137.884 137.061 137.959 137.052 138.03 137.029L157.025 131.12C157.098 131.1 157.167 131.066 157.227 131.019C157.287 130.972 157.337 130.913 157.373 130.846C157.41 130.78 157.432 130.706 157.44 130.631C157.447 130.555 157.439 130.478 157.417 130.406ZM138.848 142.178C138.869 142.249 138.904 142.316 138.951 142.373C138.998 142.431 139.055 142.479 139.121 142.514C139.186 142.549 139.257 142.571 139.331 142.579C139.405 142.587 139.48 142.58 139.551 142.558L165.964 134.334C166.044 134.319 166.12 134.288 166.187 134.242C166.254 134.196 166.31 134.136 166.352 134.067C166.395 133.997 166.422 133.92 166.432 133.839C166.442 133.759 166.435 133.677 166.411 133.599C166.388 133.521 166.348 133.449 166.294 133.388C166.241 133.327 166.175 133.278 166.101 133.244C166.027 133.21 165.947 133.192 165.866 133.191C165.785 133.19 165.704 133.207 165.63 133.239L139.217 141.464C139.145 141.486 139.079 141.523 139.022 141.571C138.964 141.619 138.917 141.678 138.883 141.744C138.849 141.811 138.828 141.883 138.822 141.958C138.816 142.032 138.825 142.107 138.848 142.178ZM106.595 171.264L119.496 167.347C119.625 167.291 119.73 167.189 119.789 167.06C119.848 166.932 119.857 166.786 119.816 166.651C119.775 166.516 119.686 166.401 119.565 166.328C119.444 166.254 119.301 166.228 119.162 166.253L106.261 170.169C106.181 170.184 106.105 170.215 106.038 170.261C105.971 170.307 105.914 170.367 105.872 170.436C105.83 170.506 105.803 170.583 105.793 170.664C105.782 170.745 105.789 170.826 105.813 170.904C105.837 170.982 105.877 171.054 105.93 171.115C105.984 171.176 106.05 171.225 106.123 171.259C106.197 171.293 106.277 171.311 106.359 171.312C106.44 171.313 106.52 171.296 106.595 171.264ZM106.917 175.272C106.963 175.417 107.063 175.538 107.196 175.609C107.33 175.68 107.486 175.696 107.632 175.652L125.025 170.365C125.152 170.308 125.253 170.207 125.311 170.08C125.369 169.954 125.379 169.811 125.34 169.678C125.301 169.544 125.215 169.43 125.098 169.355C124.98 169.28 124.84 169.25 124.703 169.271L107.263 174.558C107.125 174.61 107.012 174.713 106.948 174.846C106.883 174.979 106.872 175.132 106.917 175.272ZM111.202 179.281L121.5 176.148C121.572 176.128 121.64 176.094 121.698 176.048C121.757 176.001 121.805 175.943 121.841 175.878C121.876 175.812 121.898 175.74 121.905 175.665C121.912 175.591 121.903 175.516 121.881 175.445C121.859 175.374 121.824 175.308 121.778 175.25C121.731 175.192 121.673 175.145 121.608 175.109C121.543 175.074 121.471 175.052 121.397 175.044C121.324 175.037 121.249 175.044 121.178 175.065L110.811 178.187C110.735 178.209 110.665 178.245 110.603 178.294C110.542 178.344 110.49 178.404 110.452 178.473C110.414 178.542 110.39 178.618 110.382 178.697C110.373 178.775 110.38 178.854 110.402 178.93C110.424 179.005 110.46 179.076 110.51 179.137C110.559 179.199 110.62 179.25 110.689 179.288C110.758 179.326 110.833 179.35 110.912 179.359C110.99 179.367 111.069 179.36 111.145 179.339L111.202 179.281ZM112.447 183.243C112.492 183.388 112.592 183.509 112.726 183.58C112.859 183.651 113.016 183.667 113.161 183.624L127.905 179.154C128.034 179.098 128.138 178.996 128.197 178.867C128.256 178.739 128.266 178.593 128.225 178.458C128.184 178.323 128.094 178.208 127.974 178.135C127.853 178.061 127.71 178.035 127.571 178.06L112.827 182.529C112.682 182.574 112.561 182.675 112.49 182.808C112.419 182.942 112.403 183.098 112.447 183.243ZM123.62 184.752L111.329 188.473C111.254 188.495 111.183 188.532 111.121 188.581C111.06 188.63 111.009 188.691 110.971 188.76C110.933 188.829 110.909 188.905 110.9 188.983C110.891 189.061 110.898 189.14 110.92 189.216C110.942 189.292 110.979 189.362 111.028 189.424C111.077 189.485 111.138 189.536 111.207 189.574C111.276 189.612 111.352 189.636 111.43 189.645C111.508 189.654 111.588 189.647 111.663 189.625L123.954 185.893C124.098 185.849 124.218 185.749 124.288 185.616C124.358 185.483 124.373 185.328 124.328 185.184C124.284 185.041 124.185 184.921 124.052 184.851C123.919 184.78 123.764 184.766 123.62 184.81V184.752ZM129.944 164.467L140.576 161.45C140.729 161.408 140.859 161.308 140.938 161.171C141.016 161.034 141.038 160.871 140.996 160.718C140.955 160.565 140.855 160.435 140.718 160.356C140.581 160.278 140.418 160.256 140.265 160.298L129.633 163.373C129.56 163.392 129.491 163.425 129.431 163.471C129.371 163.516 129.32 163.574 129.283 163.639C129.245 163.705 129.221 163.777 129.212 163.852C129.203 163.927 129.209 164.003 129.23 164.076C129.275 164.221 129.375 164.343 129.508 164.416C129.641 164.489 129.797 164.507 129.944 164.467ZM130.612 168.488C130.632 168.56 130.666 168.627 130.712 168.686C130.758 168.745 130.816 168.794 130.881 168.831C130.947 168.867 131.019 168.89 131.093 168.898C131.167 168.907 131.243 168.9 131.315 168.879L143.628 165.424C143.781 165.382 143.911 165.282 143.99 165.145C144.069 165.008 144.09 164.845 144.049 164.692C144.008 164.539 143.907 164.409 143.77 164.33C143.633 164.252 143.47 164.23 143.317 164.272L131.004 167.727C130.924 167.745 130.848 167.779 130.783 167.829C130.718 167.879 130.665 167.942 130.628 168.015C130.59 168.088 130.57 168.168 130.567 168.249C130.564 168.331 130.579 168.413 130.612 168.488ZM143.271 169.64C143.226 169.495 143.126 169.373 142.993 169.3C142.86 169.227 142.704 169.208 142.557 169.248L132.374 172.139C132.299 172.16 132.228 172.195 132.166 172.243C132.104 172.29 132.052 172.35 132.013 172.418C131.934 172.555 131.913 172.718 131.954 172.871C131.995 173.023 132.095 173.153 132.233 173.232C132.37 173.311 132.533 173.332 132.685 173.291L142.88 170.4C142.957 170.378 143.028 170.34 143.09 170.289C143.152 170.238 143.203 170.175 143.24 170.104C143.276 170.033 143.298 169.955 143.304 169.875C143.309 169.795 143.298 169.715 143.271 169.64ZM133.353 177.254C133.373 177.326 133.407 177.393 133.454 177.452C133.5 177.511 133.557 177.56 133.623 177.597C133.688 177.633 133.76 177.656 133.835 177.664C133.909 177.673 133.984 177.666 134.056 177.645L146.094 174.19C146.167 174.171 146.235 174.138 146.295 174.092C146.354 174.046 146.404 173.988 146.441 173.923C146.478 173.857 146.5 173.784 146.508 173.709C146.516 173.634 146.508 173.559 146.485 173.487C146.465 173.412 146.431 173.342 146.383 173.281C146.335 173.221 146.275 173.17 146.207 173.134C146.139 173.097 146.064 173.074 145.987 173.068C145.91 173.061 145.833 173.071 145.759 173.095L133.722 176.551C133.582 176.598 133.466 176.698 133.397 176.829C133.329 176.959 133.313 177.112 133.353 177.254ZM143.456 178.578L135.139 180.94C134.986 180.981 134.856 181.081 134.777 181.218C134.698 181.356 134.677 181.518 134.718 181.671C134.76 181.824 134.86 181.954 134.997 182.033C135.134 182.112 135.297 182.133 135.45 182.092L143.767 179.73C143.919 179.689 144.05 179.589 144.128 179.452C144.207 179.314 144.228 179.151 144.187 178.999C144.146 178.846 144.046 178.716 143.908 178.637C143.771 178.558 143.608 178.537 143.456 178.578ZM88.3142 74.1125C88.9052 74.7002 89.6321 75.1331 90.4304 75.3728C91.2287 75.6125 92.0738 75.6516 92.8908 75.4867C93.7078 75.3218 94.4716 74.9579 95.1144 74.4273C95.7572 73.8967 96.2592 73.2158 96.576 72.4448C96.8928 71.6739 97.0145 70.8367 96.9305 70.0075C96.8465 69.1782 96.5592 68.3825 96.0942 67.6908C95.6291 66.999 95.0007 66.4327 94.2645 66.0419C93.5283 65.651 92.7071 65.4478 91.8736 65.4502C90.8661 65.4418 89.8793 65.7352 89.0401 66.2926C88.2008 66.85 87.5477 67.6459 87.1648 68.5778C86.7819 69.5096 86.6868 70.5348 86.8916 71.5212C87.0965 72.5076 87.5919 73.4101 88.3142 74.1125ZM88.8095 67.4314C89.322 66.925 89.9514 66.5525 90.6419 66.3469C91.3325 66.1412 92.0631 66.1088 92.7692 66.2524C93.4752 66.396 94.1351 66.7113 94.6905 67.1704C95.2458 67.6294 95.6796 68.2182 95.9536 68.8846C96.2275 69.551 96.3331 70.2747 96.2612 70.9916C96.1892 71.7085 95.9418 72.3967 95.5408 72.9954C95.1398 73.594 94.5976 74.0848 93.9621 74.4242C93.3265 74.7637 92.6171 74.9415 91.8966 74.9418C91.0262 74.9423 90.1753 74.6839 89.4521 74.1995C88.7289 73.7151 88.1661 73.0267 87.8352 72.2216C87.5043 71.4165 87.4202 70.5313 87.5937 69.6783C87.7672 68.8254 88.1904 68.0433 88.8095 67.4314Z" fill="black"/>
<path d="M111.686 98.4409C108.591 103.578 105.859 108.924 103.507 114.441C98.6608 111.902 93.6593 109.671 88.5327 107.76C88.4696 107.741 88.4021 107.745 88.3413 107.77C88.2805 107.795 88.2302 107.84 88.1987 107.898C88.1703 107.962 88.1677 108.035 88.1912 108.102C88.2148 108.168 88.2627 108.223 88.3254 108.255C94.2461 111.192 103.024 115.593 103.024 115.593C100.705 121.024 98.7165 126.59 97.0683 132.261C97.0577 132.3 97.0563 132.341 97.064 132.38C97.0717 132.42 97.0885 132.458 97.113 132.49C97.1374 132.522 97.169 132.548 97.2052 132.567C97.2414 132.585 97.2812 132.594 97.3217 132.595C97.7594 132.595 97.2526 132.595 104.141 116.18C107.689 118.046 113.356 121.248 119.715 125.084C119.774 125.124 119.847 125.138 119.917 125.124C119.988 125.11 120.049 125.069 120.089 125.009C120.129 124.95 120.143 124.877 120.129 124.807C120.115 124.737 120.074 124.675 120.014 124.635C115.129 121.056 109.985 117.845 104.625 115.028C106.652 110.282 109.117 104.938 112.158 98.6943C112.192 98.6316 112.199 98.5582 112.179 98.4902C112.158 98.4221 112.111 98.365 112.049 98.3314C111.986 98.2978 111.913 98.2905 111.845 98.311C111.777 98.3315 111.72 98.3782 111.686 98.4409ZM125.946 97.0701C130.554 99.3739 133.376 100.629 140.921 104.534C138.469 109.897 136.395 115.424 134.712 121.076C134.691 121.143 134.697 121.216 134.73 121.278C134.762 121.341 134.818 121.388 134.885 121.41C134.952 121.431 135.025 121.425 135.088 121.393C135.151 121.36 135.198 121.304 135.219 121.237C137.615 115.408 136.717 117.102 142.05 105.11C146.658 107.575 151.853 110.536 157.37 113.876C157.43 113.916 157.503 113.93 157.573 113.916C157.643 113.902 157.705 113.861 157.745 113.801C157.784 113.742 157.799 113.669 157.785 113.599C157.771 113.529 157.729 113.467 157.67 113.427C152.858 109.918 147.8 106.762 142.534 103.981C144.976 98.6943 147.683 93.3264 149.848 88.8455C149.872 88.7855 149.873 88.7188 149.852 88.658C149.83 88.5971 149.787 88.5464 149.73 88.5152C149.673 88.4841 149.607 88.4747 149.544 88.4889C149.481 88.503 149.425 88.5397 149.388 88.5921C146.467 93.3778 143.81 98.3191 141.428 103.394C136.495 100.801 131.401 98.5269 126.177 96.5863C126.113 96.5557 126.039 96.5519 125.972 96.5757C125.905 96.5994 125.85 96.6488 125.82 96.713C125.789 96.7772 125.785 96.8508 125.809 96.9178C125.833 96.9848 125.882 97.0395 125.946 97.0701ZM151.323 160.724C151.681 160.362 151.926 159.903 152.026 159.404C152.126 158.904 152.077 158.386 151.886 157.914C151.695 157.442 151.369 157.037 150.95 156.748C150.53 156.459 150.035 156.3 149.526 156.289C149.108 156.294 148.697 156.402 148.33 156.601C147.963 156.801 147.65 157.088 147.419 157.436C147.187 157.784 147.044 158.183 147.002 158.599C146.96 159.015 147.02 159.435 147.177 159.822C147.334 160.21 147.583 160.553 147.903 160.823C148.223 161.092 148.603 161.279 149.012 161.368C149.42 161.457 149.844 161.445 150.247 161.332C150.65 161.22 151.019 161.011 151.323 160.724ZM147.694 158.075C147.831 157.783 148.036 157.528 148.292 157.332C148.548 157.136 148.848 157.004 149.166 156.949C149.483 156.894 149.81 156.916 150.117 157.013C150.424 157.111 150.704 157.282 150.931 157.51C151.113 157.691 151.256 157.908 151.351 158.146C151.447 158.384 151.493 158.639 151.486 158.896C151.48 159.152 151.421 159.405 151.314 159.638C151.206 159.871 151.053 160.08 150.862 160.252C150.486 160.596 149.995 160.787 149.486 160.787C148.976 160.787 148.485 160.596 148.109 160.252C147.832 159.981 147.644 159.631 147.57 159.251C147.496 158.87 147.539 158.476 147.694 158.121V158.075ZM156.034 158.835C156.504 159.051 157.029 159.117 157.538 159.024C158.047 158.931 158.515 158.684 158.879 158.317C159.344 157.825 159.603 157.173 159.603 156.497C159.603 155.82 159.344 155.168 158.879 154.677C158.646 154.432 158.365 154.237 158.054 154.104C157.744 153.971 157.409 153.903 157.071 153.903C156.733 153.903 156.398 153.971 156.087 154.104C155.776 154.237 155.496 154.432 155.262 154.677C154.979 154.976 154.77 155.338 154.653 155.734C154.536 156.129 154.514 156.547 154.589 156.952C154.665 157.358 154.835 157.74 155.086 158.067C155.337 158.394 155.662 158.657 156.034 158.835ZM155.251 155.667C155.387 155.375 155.592 155.12 155.849 154.924C156.105 154.728 156.404 154.597 156.722 154.542C157.04 154.486 157.366 154.508 157.674 154.606C157.981 154.704 158.26 154.874 158.488 155.103C158.669 155.284 158.812 155.5 158.908 155.738C159.003 155.977 159.049 156.232 159.043 156.488C159.036 156.745 158.977 156.997 158.87 157.231C158.763 157.464 158.609 157.673 158.418 157.844C158.044 158.188 157.555 158.378 157.048 158.378C156.54 158.378 156.051 158.188 155.677 157.844C155.384 157.574 155.185 157.217 155.108 156.825C155.031 156.434 155.081 156.028 155.251 155.667ZM166.493 155.898C166.853 155.538 167.098 155.081 167.2 154.582C167.301 154.084 167.254 153.567 167.063 153.096C166.873 152.624 166.548 152.219 166.129 151.931C165.711 151.642 165.216 151.484 164.708 151.474C164.288 151.476 163.875 151.58 163.505 151.778C163.135 151.976 162.819 152.261 162.584 152.61C162.35 152.958 162.205 153.358 162.161 153.776C162.118 154.193 162.177 154.615 162.334 155.005C162.491 155.394 162.741 155.739 163.062 156.009C163.384 156.279 163.766 156.466 164.177 156.555C164.587 156.643 165.013 156.629 165.417 156.514C165.821 156.4 166.19 156.188 166.493 155.898ZM162.865 153.26C163.001 152.968 163.206 152.713 163.463 152.517C163.719 152.321 164.018 152.19 164.336 152.134C164.654 152.079 164.98 152.101 165.288 152.199C165.595 152.296 165.874 152.467 166.102 152.695C166.283 152.875 166.426 153.091 166.521 153.328C166.616 153.565 166.662 153.82 166.656 154.075C166.649 154.331 166.591 154.582 166.483 154.815C166.376 155.047 166.223 155.255 166.033 155.425C165.66 155.771 165.17 155.963 164.662 155.963C164.153 155.963 163.664 155.771 163.291 155.425C162.992 155.162 162.785 154.81 162.698 154.421C162.611 154.032 162.649 153.626 162.807 153.26H162.865ZM171.101 154.02C171.572 154.234 172.098 154.298 172.607 154.204C173.116 154.109 173.584 153.86 173.946 153.49C174.416 153.003 174.678 152.353 174.678 151.676C174.678 150.999 174.416 150.349 173.946 149.862C173.716 149.615 173.438 149.417 173.129 149.28C172.821 149.143 172.488 149.069 172.15 149.064C171.812 149.058 171.477 149.121 171.164 149.248C170.851 149.376 170.567 149.565 170.329 149.804C170.036 150.104 169.819 150.471 169.696 150.872C169.574 151.274 169.549 151.699 169.625 152.112C169.701 152.524 169.874 152.913 170.131 153.245C170.388 153.577 170.72 153.843 171.101 154.02ZM170.329 150.841C170.466 150.551 170.671 150.298 170.926 150.103C171.181 149.909 171.48 149.779 171.796 149.723C172.112 149.668 172.436 149.689 172.742 149.786C173.048 149.882 173.327 150.05 173.554 150.276C173.792 150.533 173.955 150.85 174.028 151.192C174.1 151.534 174.079 151.889 173.967 152.22C173.855 152.551 173.656 152.846 173.391 153.074C173.125 153.301 172.803 153.453 172.459 153.514C172.115 153.574 171.76 153.54 171.433 153.416C171.106 153.292 170.819 153.083 170.601 152.809C170.383 152.536 170.243 152.209 170.195 151.862C170.147 151.516 170.193 151.163 170.329 150.841Z" fill="black"/>
</svg>
