<svg width="231" height="231" viewBox="0 0 231 231" fill="none" xmlns="http://www.w3.org/2000/svg">
<path d="M185.038 204.968C172.525 204.968 162.657 200.862 162.084 195.416C161.947 194.325 161.947 191.615 162.084 190.513C162.168 189.837 163.153 189.831 163.247 190.507C163.862 195.064 173.434 198.634 185.037 198.634C196.568 198.634 206.342 194.996 206.826 190.523C206.901 189.831 207.905 189.834 207.991 190.512C208.109 191.457 208.284 194.428 207.973 195.514C207.571 200.764 197.487 204.967 185.037 204.967L185.038 204.968ZM163.155 193.133C163.159 193.984 163.189 194.815 163.248 195.282C163.743 199.982 173.517 203.796 185.037 203.796C196.682 203.796 206.455 199.989 206.824 195.309C206.941 194.877 206.977 194.025 206.968 193.136C200.471 201.961 169.896 202.09 163.154 193.133H163.155Z" fill="black"/>
<path d="M185.039 199.807C172.165 199.807 162.081 195.584 162.081 190.193C162.081 184.802 172.165 180.58 185.039 180.58C197.912 180.58 207.997 184.802 207.997 190.193C207.997 195.585 197.912 199.807 185.039 199.807ZM185.039 181.752C173.23 181.752 163.253 185.618 163.253 190.193C163.253 194.768 173.229 198.634 185.039 198.634C196.848 198.634 206.824 194.768 206.824 190.193C206.824 185.618 196.848 181.752 185.039 181.752Z" fill="black"/>
<path d="M199.953 186.923C197.86 186.531 195.636 186.269 193.542 186.269C181.844 185.582 174.65 184.585 166.984 188.232C164.577 189.376 161.797 191.497 163.844 193.203C168.94 198.616 181.785 199.639 189.224 199.091C191.656 198.911 205.1 197.007 206.201 192.733C206.877 190.112 202.749 187.448 199.952 186.924L199.953 186.923Z" fill="black"/>
<path d="M144.351 228.386C130.12 228.386 118.846 223.719 118.126 217.532C117.986 216.417 118.128 213.389 118.256 212.239C118.333 211.55 119.341 211.547 119.422 212.236C120.036 217.52 131.044 221.66 144.482 221.66C157.691 221.66 168.933 217.491 169.543 212.366C169.626 211.677 170.631 211.682 170.708 212.37C170.833 213.503 170.858 216.425 170.563 217.607C170.011 223.613 158.491 228.386 144.352 228.386H144.351ZM119.261 214.952C119.229 215.944 119.229 216.908 119.29 217.391C119.92 222.809 131.162 227.213 144.351 227.213C157.665 227.213 168.906 222.815 169.409 217.41C169.528 216.919 169.593 216.062 169.614 215.172C162.269 225.396 126.375 225.43 119.261 214.952Z" fill="black"/>
<path d="M144.481 222.833C129.774 222.833 118.253 218.036 118.253 211.912C118.253 205.788 129.774 200.99 144.481 200.99C159.188 200.99 170.711 205.788 170.711 211.912C170.711 218.036 159.189 222.833 144.481 222.833ZM144.481 202.162C130.9 202.162 119.425 206.627 119.425 211.912C119.425 217.196 130.9 221.66 144.481 221.66C158.063 221.66 169.538 217.195 169.538 211.912C169.538 206.628 158.064 202.162 144.481 202.162Z" fill="black"/>
<path d="M168.858 214.64C167.946 219.665 152.139 221.941 149.322 222.116C140.693 222.656 125.943 221.462 120.409 215.313C119.493 214.659 119.362 213.351 120.148 212.435C121.277 211.306 122.497 210.369 123.942 209.688C134.078 204.904 144.42 207.208 154.425 207.463C156.91 207.527 159.265 207.725 161.751 208.248C164.971 208.926 169.413 211.586 168.858 214.639V214.64Z" fill="black"/>
<path fill-rule="evenodd" clip-rule="evenodd" d="M25.2452 16.1971C25.1901 16.1536 25.1363 16.109 25.0838 16.0631C25.183 19.9198 27.9652 22.6204 32.4774 21.2929C36.9893 19.9668 40.8715 15.0481 41.1142 10.352C41.322 6.33442 38.9378 4.22426 35.8677 4.21309C37.6701 6.41056 37.2778 10.3445 34.7966 13.4885C32.3332 16.6087 28.0101 18.3791 25.2452 16.1971ZM25.6603 6.27752C28.1811 3.08457 31.9951 1.79825 34.5518 3.14055C36.4647 2.81537 38.3642 3.12592 39.9757 4.29245L45.1839 8.07172C47.6659 5.52153 51.0051 4.5863 53.3167 5.79971C55.2293 5.47476 57.1285 5.78543 58.7396 6.95173L65.4324 11.8084H65.4313C67.165 13.1806 67.9025 15.2043 67.8696 17.4171L70.5376 19.3444C72.3491 19.1242 74.0942 19.5806 75.3484 20.9188L84.6622 27.9917C97.48 28.422 99.8132 28.5976 101.823 30.6075C107.971 35.5743 112.403 42.5415 114.262 50.1899V50.191C115.062 51.9838 113.065 53.3275 110.959 53.3275C109.666 53.5241 107.519 53.7956 105.004 54.0712C104.72 58.8088 104.577 63.5648 104.577 68.3922C104.641 68.9049 104.6 69.3594 104.473 69.7629C113.431 70.4014 118.09 71.4423 121.232 72.1442C121.699 72.2479 122.213 72.3311 122.773 72.4212C124.608 72.7171 126.913 73.0889 129.518 74.5163C134.078 77.0149 137.947 80.8397 141.093 85.1688C151.788 99.8839 155.426 115.332 157.869 133.653V133.654C158.875 141 159.882 150.46 160.632 158.996C162.323 159.972 162.776 161.902 161.489 163.373C161.36 163.502 161.207 163.628 161.032 163.753C161.66 171.631 161.994 178.079 161.794 180.268C161.416 182.675 158.794 183.641 156.683 184.419L156.672 184.423C150.834 186.575 145.15 186.921 139.866 185.787C139.598 185.734 139.415 185.551 139.363 185.293C138.832 185.075 138.286 184.871 137.738 184.665C136.707 184.279 135.661 183.887 134.669 183.39C134.212 183.194 133.753 182.965 133.296 182.736H133.295C132.838 182.507 132.379 182.278 131.922 182.082C131.622 181.982 131.379 181.862 131.187 181.71C122.763 185.496 101.311 193.017 90.2491 196.894L90.2457 196.895L90.1651 196.924L90.0753 196.955L90.0625 196.96L90.0077 196.979C88.9853 197.337 88.0556 197.663 87.238 197.951C85.7336 198.577 84.1015 199.128 82.4939 199.396C82.3121 199.396 82.1679 199.292 82.087 199.128C76.7755 198.404 73.6143 197.874 66.4584 195.728C64.1567 195.123 61.8363 194.262 59.3693 193.101C58.1909 192.512 57.3607 191.762 56.7041 191.104C55.9337 190.183 55.6136 189.212 55.7379 188.21C55.7368 185.29 56.0792 182.714 56.7838 180.355C56.8003 180.019 59.7457 176.744 62.6219 174.155C64.5476 172.421 65.1857 171.698 65.7292 171.081C66.4139 170.305 66.9488 169.697 69.7168 167.458V156.441C69.7168 153.733 77.8339 152.501 85.222 152.744C85.3915 152.237 85.542 151.721 85.6729 151.197C84.9222 151.245 84.1567 151.27 83.3838 151.27C76.2307 151.27 69.7156 149.12 69.7156 146.759V136.47C57.9952 135.196 49.0653 132.369 49.9645 128.131L49.9609 122.163C49.9609 116.782 66.6365 113.797 82.9071 113.606C82.6427 112.969 82.3047 112.323 81.876 111.66C81.1549 111.283 80.3587 110.771 80.2462 109.867C80.1149 109.213 80.1149 108.69 80.2462 108.035C80.2462 107.899 80.2511 107.762 80.2592 107.625C79.0898 107.423 77.9571 107.054 76.9725 106.464C76.3182 106.203 75.7952 105.548 75.5338 104.894C75.5338 104.501 75.5338 103.978 75.6651 103.586C75.9436 102.565 76.127 101.774 76.3031 101.014C76.4135 100.538 76.5209 100.074 76.6472 99.5743C75.8889 99.1404 75.2002 98.6017 74.6157 97.9586C73.5698 96.5199 73.0457 94.8198 72.9155 93.1185C72.7009 92.0444 72.3984 90.3513 72.9495 89.2738C72.7213 88.3464 72.6054 87.6964 72.4787 86.9861C72.2567 85.741 72.0017 84.3109 71.0507 80.8781C68.945 80.5085 67.1182 80.1627 65.9849 79.9053C62.153 79.054 61.528 78.8956 60.9852 78.0386C60.9254 78.0491 60.8831 78.0163 60.8831 77.9424C60.8326 77.8422 60.8167 77.7812 60.7979 77.708C60.7866 77.664 60.774 77.6156 60.752 77.5516C60.752 76.6615 60.7452 75.9236 60.7398 75.3102C60.7213 73.2205 60.7156 72.5802 61.0252 72.3297C61.162 72.219 61.3602 72.1842 61.646 72.1342C61.7558 72.115 61.8787 72.0936 62.0159 72.0645C64.0721 71.6311 66.1526 71.2485 68.2462 70.9149L68.2089 70.878C67.5548 70.0924 67.4233 69.0464 67.5548 67.9994C67.7594 63.4923 67.6962 60.0579 67.6458 57.3182C67.6101 55.3678 67.5806 53.7692 67.6589 52.3861C64.0742 51.7081 60.6625 51.0223 57.9986 50.4868L57.9948 50.4861C56.4226 50.1702 55.111 49.9065 54.1786 49.7279C53.1799 49.6175 52.2376 49.4041 51.1987 49.1689L51.1964 49.1684C51.0566 49.1367 50.9149 49.1047 50.7712 49.0724C50.0677 48.7923 49.4146 48.0782 49.5905 47.2961C50.0121 45.4188 51.063 42.1566 52.183 38.9624L44.3493 33.0135C43.0746 32.1212 42.3675 30.8052 42.1364 29.3001L39.4777 27.38C39.0165 27.5075 38.5456 27.6022 38.0669 27.6609C36.2822 27.8825 34.5247 27.5332 33.1188 26.4216L26.467 21.5955C24.6582 20.2996 23.6325 17.6727 23.9969 14.6123C22.9243 12.3449 23.5021 9.01236 25.6603 6.27752ZM41.8341 7.08892L44.4094 8.95718C42.2651 11.6873 41.6925 15.0079 42.7611 17.2697C42.4793 19.6322 43.026 21.7365 44.1218 23.1698C42.4284 24.9249 40.283 26.2079 37.9249 26.4977H37.9238C36.3255 26.6935 34.9338 26.3265 33.827 25.4882C31.6741 23.8576 30.7297 23.1898 30.3581 22.9269C30.1951 22.8116 30.1423 22.7743 30.1459 22.7678C30.1476 22.7645 30.1623 22.7686 30.1843 22.7744C30.2168 22.7832 30.2649 22.7961 30.3094 22.7961C37.4289 22.7961 44.2132 13.6257 41.8341 7.08892ZM51.2414 23.9521C46.7288 25.2798 43.9466 22.5786 43.8477 18.7214C43.9007 18.7676 43.9549 18.8125 44.0104 18.8564C46.7753 21.0384 51.0984 19.2679 53.5619 16.1478C56.0429 13.0038 56.4353 9.06995 54.6329 6.87236C57.7025 6.88411 60.0861 8.99427 59.8782 13.0113C59.6355 17.7073 55.7532 22.6261 51.2414 23.9521ZM67.7562 18.783C67.1198 23.0804 63.887 27.7195 59.5878 29.5652L63.0582 32.0707C63.8156 32.65 64.804 32.8716 65.9251 32.7204C71.1064 32.0215 74.8913 24.3098 71.5144 21.4969L67.7562 18.783ZM58.2426 30.039C57.781 30.1666 57.3099 30.2614 56.8307 30.3202C56.1524 30.4044 55.4779 30.4061 54.8251 30.3149C52.8483 32.4742 50.2064 33.9602 47.5386 33.9644L62.2269 45.1186C64.743 47.0347 68.9845 45.7383 71.7575 42.2374L63.1131 35.6728C61.8379 34.7802 61.1308 33.4638 60.9 31.9581L58.2426 30.039ZM53.5151 29.9912C52.9357 29.7798 52.3867 29.4793 51.8827 29.0809L51.7851 29.0099C50.3008 30.3726 48.4585 31.2769 46.5091 31.2769L46.508 31.2782C45.4421 31.2782 44.4622 30.9824 43.6824 30.4183C43.9543 31.0137 44.3442 31.5285 44.8547 31.9312C47.0354 33.6538 50.702 32.7592 53.5151 29.9912ZM50.814 28.3054L45.231 24.2547C45.1289 24.1816 45.0294 24.1043 44.9324 24.0227C43.743 25.2428 42.3502 26.2508 40.823 26.9063L44.2931 29.4114C45.0505 29.9907 46.0389 30.2124 47.1598 30.0611C48.5058 29.8796 49.7575 29.2247 50.814 28.3054ZM62.4454 33.0761C62.7174 33.6721 63.1076 34.1874 63.6184 34.5905C66.0795 36.5346 70.4331 35.1451 73.3163 31.4915C76.9478 26.8931 76.3832 21.14 72.1633 20.5189L72.2461 20.5788C76.8307 24.3555 71.6188 33.9363 65.2743 33.9363L65.2731 33.9375C64.2063 33.9375 63.2257 33.6413 62.4454 33.0761ZM92.112 33.6491L86.1753 29.1408L86.9984 29.1928C89.6125 29.3583 92.1949 29.5219 95.3389 29.5932C96.1796 29.612 97.4179 29.6824 98.5306 30.0986C100.189 30.9283 99.6497 32.5438 99.1283 34.107L99.1274 34.1098C99.0633 34.3021 98.9805 34.5782 98.8751 34.9307C98.2994 36.854 97.0426 41.0537 94.3939 46.351L94.2329 46.6963C93.322 48.6512 91.564 52.4234 90.9948 53.2806C90.8001 53.6711 90.4166 53.8376 89.7132 53.8376C81.9294 53.8376 70.5901 51.6173 60.5346 49.6482C57.5163 49.0573 54.6138 48.489 51.9577 48.0101H51.9566C51.0186 47.8437 50.7689 47.771 51.1932 46.2913C51.3067 45.8964 51.4296 45.5173 51.555 45.1301L51.5553 45.1296C51.824 44.3003 52.1048 43.4336 52.3317 42.2941C52.5293 41.7014 52.8473 40.7891 53.2155 39.7466L61.5186 46.052C64.7918 48.5428 69.7868 46.6212 72.6927 42.9476L80.2823 48.7113C83.5983 51.2346 88.6812 49.2295 91.5691 45.4622C93.5109 42.9296 94.4665 39.8974 94.1264 37.3507H94.1253C93.9141 35.7725 93.2177 34.492 92.112 33.6491ZM103.977 54.1818C97.7391 54.8413 89.7685 55.4698 86.7655 55.0934C83.0182 55.0934 75.568 53.8665 68.5816 52.5595C68.5815 53.2291 68.5794 54.2985 68.5689 55.4756C73.999 57.4278 81.4725 57.6494 87.048 57.5334C87.3095 57.5287 87.4408 57.6648 87.4408 57.9262C87.4408 59.7859 87.3224 61.7615 87.1993 63.6329C87.2563 63.6308 87.3854 63.6355 87.5831 63.6425C88.9339 63.6909 93.4783 63.8538 99.9997 62.7676C101.259 62.6539 102.518 62.3385 103.69 61.8237C103.734 59.2758 103.835 56.7287 103.977 54.1818ZM69.0465 71.5857C68.2599 71.7232 67.4733 71.8672 66.6845 72.0118C65.5372 72.2219 64.3849 72.4329 63.22 72.6262C64.662 72.7711 67.7903 73.1926 71.7567 73.7271C75.0437 74.17 78.9061 74.6904 82.861 75.1952C84.3329 75.3832 85.459 75.5055 86.3841 75.6059C87.8833 75.7689 88.8543 75.8743 89.9137 76.1086L89.9126 76.1074C90.153 75.9502 103.554 72.5922 116.736 72.1911C112.265 71.4439 108.105 70.901 104.083 70.5399C103.393 71.5057 102.098 72.0866 100.653 72.4479C98.1682 73.2335 95.6825 73.7564 93.0654 74.0179C87.4795 74.576 80.8453 74.487 77.6279 74.1481C75.2734 73.8866 72.9179 73.3636 70.8249 72.4479C70.2194 72.2751 69.614 71.9874 69.0465 71.5857ZM95.8999 64.3409C94.2136 64.4701 92.5274 64.5991 90.8423 64.5991L90.8435 64.5979C90.0767 64.5979 89.3044 64.6017 88.5287 64.6058C81.5722 64.6409 74.3453 64.6775 68.4717 61.9104V65.958C72.4312 68.4496 81.577 69.1286 86.1499 69.1286C91.8401 68.9996 98.5904 68.7474 103.664 65.8314C103.664 65.8314 103.669 63.4699 103.676 62.8391C102.753 63.3808 101.673 63.579 100.524 63.6833C100.318 63.7175 100.115 63.7517 99.9132 63.7858C98.5747 64.0113 97.3095 64.2245 95.9452 64.3376L95.8999 64.3409ZM101.57 71.1406C102.093 70.8791 102.617 70.6165 103.14 70.2248H103.139C103.53 69.7019 103.793 69.0476 103.662 68.3933V66.7061C94.1453 71.9156 72.7162 70.0243 68.4693 66.9183V68.5246C68.3391 69.1789 68.6006 69.9645 69.1236 70.4875C70.4591 71.49 71.9528 72.1759 73.5722 72.5805C75.7964 73.1034 78.0207 73.4962 80.3752 73.4962C85.0852 73.6264 89.9253 73.4962 94.6355 72.8419C96.9911 72.5805 99.3455 71.9262 101.57 71.1406ZM72.6851 83.5449C72.5192 82.7154 72.3532 81.8858 72.1711 81.0725C75.904 81.7131 80.2381 82.39 83.1225 82.7838C84.0196 82.924 84.7553 83.0406 85.3667 83.1374L85.3717 83.1382L85.382 83.1399H85.3827C87.4169 83.4622 88.069 83.5655 88.7246 83.5986C89.0337 83.6142 89.3435 83.614 89.7992 83.6139H89.8007H89.9255C89.9255 83.6139 101.263 82.541 103.553 82.3042C104.213 82.236 104.87 82.1872 105.519 82.1564C105.589 82.5294 105.624 82.9011 105.624 83.3079C105.493 84.3549 105.101 85.2707 104.577 86.0551C102.877 89.0639 100.26 91.4194 97.12 92.8581C93.4571 94.5583 89.2699 95.3439 85.2142 95.0813C85.0958 95.0764 84.9754 95.0716 84.8534 95.067L84.618 95.0579L84.6112 95.0577C81.5265 94.9409 77.4785 94.7876 75.2711 92.334C74.1124 91.0794 73.8089 89.3252 73.5192 87.6508C73.4163 87.0564 73.3152 86.4721 73.1781 85.9238C73.0045 85.1418 72.8452 84.345 72.6858 83.5483L72.6857 83.5476L72.6856 83.5469L72.6853 83.5462L72.6852 83.5455L72.6851 83.5449ZM108.111 83.3079C108.048 82.8633 107.85 82.4552 107.604 82.1177C111.736 82.1599 115.434 82.9045 117.918 83.9282C121.732 86.9778 123.352 92.0393 124.636 96.6776C116.461 96.1273 112.12 95.7615 109.771 95.5636L109.77 95.5635C108.581 95.4634 107.902 95.4061 107.495 95.3899C107.24 94.9025 106.993 94.4099 106.754 93.9125C107.044 93.572 107.321 93.2196 107.586 92.8558C108.633 91.1556 109.156 89.1928 108.895 87.23L108.896 87.2324C108.764 85.9238 108.503 84.6164 108.111 83.3079ZM108.035 96.39C108.633 97.466 109.271 98.5143 109.944 99.531C111.085 101.257 110.99 103.455 109.813 105.157C109.101 106.011 108.196 106.71 107.182 107.17C107.182 107.367 107.181 107.568 107.181 107.774C107.064 108.377 107.159 109.134 107.435 109.823C107.948 110.64 109.124 110.869 110.16 111.071L110.161 111.071C110.344 111.106 123.577 113.401 128.493 114.247C127.587 108.786 126.387 103.373 124.987 97.9598L124.965 97.8775C124.95 97.824 124.936 97.7703 124.922 97.7167C120.095 97.3849 111.169 96.6992 108.035 96.39ZM128.67 115.343L116.143 113.244L116.137 113.243C113.823 112.887 111.432 112.519 109.13 111.943C108.036 111.808 107.104 111.249 106.446 110.329C106.066 109.643 105.97 108.907 105.985 107.586C105.486 107.708 104.971 107.774 104.448 107.774C103.401 107.904 102.355 107.774 101.308 107.381C101.207 107.323 101.112 107.254 101.023 107.176C100.727 109.742 100.438 112.241 100.179 114.481C105.497 115.115 110.241 116.082 113.656 117.367C114.085 117.365 114.523 117.428 114.914 117.584C118.757 118.263 125.845 119.707 128.622 120.651C128.941 120.76 129.22 120.905 129.463 121.082L129.436 120.855C129.217 119.01 128.961 117.174 128.67 115.343ZM121.736 156.271C126.509 148.527 129.469 139.833 130.437 130.816C132.128 151.061 131.306 166.428 130.849 174.968V174.97L130.848 174.973C130.719 177.387 130.619 179.255 130.613 180.533C128.704 181.185 127.167 181.831 125.054 182.718C120.044 184.824 111.793 188.292 87.6471 196.438C86.106 196.958 85.2242 197.249 84.6768 197.43L84.6659 197.434L84.6615 197.435L84.6583 197.436H84.6576C83.8174 197.713 83.7781 197.725 83.3134 197.922C83.2213 197.881 82.6283 197.781 81.6696 197.618H81.6666C77.69 196.94 67.4382 195.194 60.5547 192.256C59.0245 191.603 57.8931 190.823 57.2459 189.854C56.866 189.096 56.7463 188.338 56.8718 187.447C56.8718 185.964 57.0655 184.347 57.2538 182.775C57.3508 181.967 57.4462 181.169 57.5132 180.41C59.1019 178.529 60.7962 176.995 62.6242 175.394C64.3646 173.867 64.9313 173.244 65.4553 172.67C66.1326 171.928 66.7389 171.263 69.7168 168.82V169.21C67.4527 171.356 65.3386 173.978 66.7421 176.926C67.5359 178.593 69.2712 179.934 71.6269 180.702C75.8586 182.08 80.8043 181.25 84.7674 179.103C88.401 177.427 91.7944 175.708 94.8395 174.002C96.2418 173.364 97.358 172.203 98.0733 170.626C98.4965 169.357 98.0568 167.915 97.0543 167.217V165.991C99.3525 166.284 101.662 166.473 103.924 166.514C104.085 166.516 104.245 166.416 104.345 166.278C106.238 165.696 107.763 164.772 109.412 163.773C109.63 163.641 109.85 163.508 110.073 163.374C110.507 163.157 110.941 162.86 111.309 162.505C111.991 162.78 113.507 163.163 114.482 163.372C111.414 166.127 107.509 167.832 103.796 169.454C101.466 170.47 99.2113 171.455 97.2877 172.645C94.1173 174.607 91.4688 177.09 88.441 179.929C87.7622 180.566 87.0644 181.22 86.3374 181.89L86.2943 181.93C85.8701 182.321 82.632 185.303 82.5631 185.421C78.5706 186.126 73.6343 186.979 69.1306 186.053C65.2531 185.501 62.1881 183.509 59.4174 180.739C59.2638 180.583 58.7244 180.849 58.885 181.092C60.0588 182.853 61.5725 184.223 63.1261 184.938C66.1231 186.784 70.2585 187.564 73.7773 187.564C76.7485 187.564 79.6728 187.099 82.3954 186.635C81.8853 189.059 81.7904 192.876 83.0907 195.044C83.3217 195.502 84.1389 195.247 83.9349 194.638C82.9918 192.28 83.151 190.599 83.3383 188.62C83.4138 187.824 83.4936 186.979 83.5081 186.024C84.6414 185.073 85.7122 184.096 86.7837 183.119C87.8917 182.109 89.0009 181.098 90.181 180.113C96.0552 174.24 99.9498 172.568 104.23 170.73C106.363 169.815 108.592 168.858 111.209 167.32C114.724 165.251 118.163 162.342 121.736 156.271ZM157.434 158.401C158.171 158.334 158.837 158.384 159.422 158.522C158.726 150.112 157.621 139.501 155.823 127.815C153.263 111.273 148.729 95.3685 137.81 82.7674C130.502 74.616 124.533 72.6238 116.765 73.1467C116.314 73.177 115.868 73.2065 115.424 73.2359C108.691 73.6809 102.42 74.0953 90.5493 76.7066C90.7272 77.2076 90.7218 78.4691 90.7157 79.8862C90.7145 80.1498 90.7135 80.419 90.7135 80.6896C90.7135 81.1974 90.4871 82.5434 90.4038 82.6606L91.7291 82.4899C104.893 80.7924 111.586 79.9292 119.167 83.1426C130.32 87.8708 132.816 102.456 134.86 114.4L134.975 115.068C139.065 138.933 139.718 157.83 140.468 184.448C146.198 185.517 151.558 184.899 156.061 183.097C157.614 182.673 158.833 181.941 159.822 181.282L159.825 181.281C160.936 180.391 160.825 179.168 160.694 177.749L160.678 177.574C160.672 177.512 160.667 177.45 160.662 177.387C160.615 176.842 160.56 175.811 160.48 174.352C160.356 172.04 160.173 168.651 159.874 164.413C158.47 165.085 156.674 165.611 155.602 165.859C154.276 166.189 153.704 165.792 153.116 165.204C150.977 163.066 151.786 159.78 154.032 158.533L157.434 158.402V158.401ZM60.752 77.5516L60.7706 77.5637L60.7671 77.5356L60.752 77.5516ZM99.3432 99.1359C101.818 98.1883 104.093 96.7085 105.963 94.7832C106.685 96.3087 107.484 97.8119 108.374 99.2683C109.29 100.184 109.813 101.623 109.682 102.931C108.981 106.085 105.151 107.232 101.964 106.594C101.405 106.371 101.13 105.769 100.901 105.27C100.862 105.184 100.824 105.101 100.786 105.024C100.482 104.4 100.183 103.769 99.8833 103.135L99.8829 103.134L99.8825 103.134L99.8821 103.133L99.8818 103.132L99.8814 103.131L99.8811 103.131L99.8802 103.129C99.3195 101.944 98.755 100.751 98.1399 99.5794C98.5363 99.4392 98.9372 99.2914 99.3432 99.1359ZM91.3699 101.318C93.1798 101.049 95.0445 100.601 97.0193 99.9598C97.8001 101.435 98.743 103.2 99.4768 104.503C99.6199 104.756 99.7537 105.049 99.8919 105.352L99.8927 105.354C99.9433 105.465 99.9944 105.577 100.047 105.688C99.7466 108.274 99.4161 111.151 99.0545 114.353C95.5882 113.977 91.9067 113.738 88.2103 113.644C88.4866 113.074 88.8019 112.527 89.1468 112.003C89.6792 111.796 90.1646 111.514 90.3206 111.044C90.6825 109.592 91.1461 104.737 91.3699 101.318ZM81.7664 101.132C84.6464 101.648 87.4091 101.779 90.2839 101.46C89.8706 108.109 89.7057 109.724 89.6719 110.055C89.6672 110.1 89.6651 110.122 89.6651 110.128C89.6651 110.651 89.2735 110.913 88.7494 111.175C87.0492 111.83 85.2176 111.83 83.5163 111.307C81.0698 110.49 81.1224 110.014 81.4197 107.332C81.572 105.958 81.7884 104.005 81.7664 101.132ZM79.7185 100.706C80.0805 100.791 80.4399 100.871 80.7971 100.944C80.5796 102.646 80.4205 104.329 80.3775 106.072C80.3717 106.301 80.3539 106.53 80.3333 106.758C80.0917 106.72 79.8458 106.667 79.5896 106.594C78.8051 106.463 77.8882 106.071 77.2351 105.547C76.7121 105.286 76.188 104.763 76.3194 104.109C76.5212 103.1 76.9504 101.565 77.4333 99.9762C78.1566 100.305 78.9269 100.548 79.7185 100.706ZM86.6844 151.119L86.6748 151.149L86.6733 151.155C86.4991 151.72 86.3319 152.261 86.1588 152.783C91.9537 153.076 97.0543 154.294 97.0543 156.441V164.782C99.2634 165.1 101.515 165.341 103.582 165.445C104.722 155.76 104.614 144.551 103.287 135.993C101.312 136.292 99.2206 136.537 97.0532 136.728V146.759C97.0532 148.75 92.4234 150.59 86.6844 151.119ZM87.717 114.803L87.7046 114.837C87.0556 116.459 86.8643 117.38 86.788 117.942C90.8053 118.104 94.4372 118.943 94.4372 120.463C94.4372 123.862 76.2573 123.862 76.2573 120.463C76.2573 118.961 79.8082 118.123 83.7713 117.948C83.7413 116.87 83.6156 115.827 83.3149 114.774C64.2855 114.935 51.1334 118.741 51.1334 122.163C51.1334 125.66 64.8626 129.557 84.5622 129.557C86.6466 129.557 88.6642 129.514 90.6058 129.432C92.687 129.076 94.8138 128.836 96.8608 128.836C97.2904 128.848 97.7148 128.865 98.1347 128.89C110.285 127.627 117.991 124.783 117.991 122.163C117.991 118.857 105.712 115.191 87.717 114.803ZM86.046 117.92C85.5942 117.912 85.14 117.912 84.688 117.92C84.62 116.633 83.9251 113.623 83.4261 112.313C84.8624 112.748 86.3972 112.761 87.8676 112.409C86.8972 114.096 86.2878 115.905 86.046 117.92ZM119.164 122.163C119.164 121.016 118.407 119.979 117.059 119.055C118.456 119.295 119.982 119.573 121.326 119.939C121.959 120.111 122.689 120.282 123.518 120.476H123.519H123.521C124.836 120.783 126.397 121.148 128.205 121.668C126.023 123.202 125.119 125.881 124.256 128.44L124.255 128.442C124.151 128.75 124.048 129.056 123.943 129.359C123.394 130.938 123.188 131.873 123.027 132.599C122.795 133.651 122.659 134.265 121.718 135.769C120.803 136.554 119.887 137.209 118.84 137.732L116.147 139.416L112.687 138.462C112.45 136.952 112.152 135.488 111.785 134.11C116.32 132.657 119.164 130.689 119.164 128.182V122.163ZM110.721 134.432C108.843 134.972 106.717 135.432 104.415 135.814C105.949 145.34 105.788 155.171 104.603 164.774C106.603 164.062 111.221 162.094 111.513 160.498C112.595 154.577 112.974 143.51 110.721 134.432ZM70.8883 146.758V136.592C78.7789 137.368 87.7946 137.461 95.8818 136.826V146.758C95.8818 147.721 90.9009 150.096 83.385 150.096C75.8691 150.096 70.8883 147.721 70.8883 146.758ZM112.104 161.354C113.291 157.91 113.998 148.373 112.885 139.847L115.486 140.568C116.388 149.823 115.844 155.714 115.44 160.101C115.374 160.823 115.311 161.503 115.259 162.151C114.588 161.972 113.616 161.73 112.721 161.507C112.509 161.455 112.302 161.403 112.104 161.354ZM70.8894 158.08C75.3474 160.862 91.4239 160.862 95.8818 158.08V170.44C95.8818 171.402 90.9009 173.779 83.385 173.779C75.8691 173.779 70.8883 171.403 70.8883 170.44V158.08H70.8894ZM91.3567 174.634L91.3539 174.636C83.1117 179.034 75.6463 183.017 68.6827 177.218C66.3998 174.934 67.6977 172.97 69.7169 170.359V170.438C69.7169 172.8 76.2327 174.95 83.3862 174.95C88.1033 174.95 92.5436 174.015 95.0201 172.701C94.6061 172.981 94.1476 173.22 93.6388 173.424C92.8777 173.822 92.1231 174.226 91.3749 174.624L91.3631 174.63L91.3567 174.634ZM123.489 165.549C127.206 166.389 128.845 169.955 128.845 173.578C128.845 177.056 127.375 180.566 123.58 181.613L120.303 182.517C119.671 182.775 118.953 183.062 118.054 183.062C114.424 183.062 111.581 178.955 111.581 173.71C111.581 168.465 114.424 164.358 118.054 164.358C118.79 164.358 119.506 164.508 120.082 164.78L123.489 165.549ZM119.921 181.411L119.929 181.407H119.928L121.371 181.008C116.613 178.514 116.488 168.952 121.212 166.237C120.779 166.14 120.473 166.072 120.253 166.024C119.777 165.918 119.704 165.903 119.622 165.861C119.196 165.648 118.638 165.53 118.053 165.53C115.13 165.53 112.752 169.199 112.752 173.71C112.752 178.221 115.13 181.889 118.053 181.889C118.723 181.889 119.305 181.657 119.921 181.411ZM80.9906 47.778C83.542 49.7208 87.8675 48.3608 90.637 44.7482C92.3934 42.4582 93.2623 39.7509 92.9621 37.5055C92.7932 36.2427 92.2539 35.2319 91.4004 34.5812L76.657 23.3847C78.1191 29.177 72.2753 36.6144 66.3023 36.6237L80.9906 47.778ZM52.5909 28.1475C53.6978 28.9858 55.0896 29.3528 56.6878 29.1571H56.6889C64.3584 28.2144 69.779 16.7658 64.7149 12.7346L60.5981 9.74819C62.9771 16.2851 56.1929 25.4554 49.0734 25.4554C49.029 25.4554 48.9809 25.4425 48.9483 25.4337C48.9264 25.4278 48.9116 25.4238 48.9099 25.427C48.9062 25.4336 48.9592 25.471 49.1221 25.5862C49.4938 25.849 50.438 26.5168 52.5909 28.1475Z" fill="black"/>
</svg>
