<svg width="231" height="231" viewBox="0 0 231 231" fill="none" xmlns="http://www.w3.org/2000/svg">
<path fill-rule="evenodd" clip-rule="evenodd" d="M56.1088 148.854C56.5924 149.17 57.0608 149.475 57.512 149.769C43.0276 152.096 31.3925 154.128 22.9035 155.638C22.8904 155.328 22.8773 155.015 22.8639 154.697C33.1352 152.709 44.4922 150.734 56.1088 148.854ZM17.0026 155.858C14.2478 156.417 11.5911 156.975 9.05085 157.532C6.93251 157.996 6.28168 158.21 6.39457 158.403C6.49207 158.57 10.1506 157.918 17.0679 156.679C17.0462 156.407 17.0245 156.133 17.0026 155.858Z" fill="black"/>
<path fill-rule="evenodd" clip-rule="evenodd" d="M160.452 89.9502C157.65 90.3849 154.081 90.9396 149.914 91.5884C149.922 91.8928 149.928 92.1967 149.935 92.5007C154.047 91.8435 157.617 91.2705 160.499 90.8055C160.483 90.5226 160.468 90.2374 160.452 89.9502ZM192.094 100.056C192.7 99.997 193.352 99.933 194.031 99.8658C207.791 105.885 222.466 112.3 224.015 112.958H224.012C224.117 113.003 224.213 113.042 224.302 113.079C225.111 113.41 225.271 113.476 225.232 114.803C225.228 114.919 222.731 185.349 222.21 185.786C221.759 186.165 221.1 186.58 220.856 186.736C220.799 186.772 220.765 186.794 220.76 186.797C219.829 187.679 218.035 186.503 217.019 185.717C216.606 185.396 216.6 185.237 216.534 183.286C216.528 183.126 216.522 182.955 216.515 182.771C216.503 182.399 216.433 177.929 216.337 171.576C216.082 154.977 215.629 125.534 215.457 122.803C215.45 122.686 203.018 125.796 185.58 130.158C173.658 133.14 159.394 136.709 145.16 140.231C134.101 142.968 123.06 145.675 113.173 148.1C92.3639 153.204 76.6634 157.054 76.6688 157.285C76.6689 157.285 76.6688 157.286 76.6688 157.289C76.6665 157.367 76.6141 159.178 77.0224 215.459C77.0256 215.882 77.0314 216.235 77.0363 216.53C77.059 217.899 77.061 218.02 76.6677 218.232C76.2159 218.477 75.8409 218.69 75.5238 218.869C74.2284 219.604 73.8966 219.792 73.2304 219.369C72.6503 218.999 72.2409 218.823 71.9431 218.694C71.3648 218.444 71.208 218.377 71.0406 217.432C70.6273 215.092 69.595 204.55 68.4359 192.713C66.7042 175.029 64.6894 154.453 64.0325 154.021L22.4973 127.171C22.3985 127.115 22.3201 127.049 22.2612 127.064C21.985 127.131 22.1424 128.969 22.6769 141.911C24.219 179.213 24.2686 180.266 24.2825 181.32C24.2834 181.387 24.2841 181.453 24.285 181.531C24.2919 182.197 24.2159 182.261 22.6032 183.374C22.1631 183.675 22.0219 183.61 20.4631 182.886C20.2883 182.806 20.0955 182.716 19.8824 182.618C19.6849 182.527 19.5459 182.474 19.443 182.381C19.0422 182.017 19.1891 181.049 18.5474 174.938C18.4291 173.812 17.8815 166.919 17.2101 158.467C16.0385 143.718 14.4899 124.225 14.1874 122.348C14.1764 122.279 14.1777 122.215 14.1788 122.149C14.1834 121.904 14.188 121.663 13.5286 121.272C12.7455 120.808 12.3045 120.612 12.0569 120.275C11.6978 119.785 11.7455 118.997 11.7455 116.66C11.727 116.66 11.7132 115.669 11.7961 114.408C11.8468 113.627 12.8996 113.381 14.6436 113.073C19.694 112.181 30.9157 110.354 45.1027 108.084C45.1373 108.404 45.1722 108.72 45.2074 109.031C31.1033 111.229 20.2755 112.895 16.1653 113.482C13.4168 113.875 12.4976 114.132 12.599 114.219L70.8149 151.31C71.0602 151.488 223.264 113.763 223.303 113.462C223.311 113.397 222.894 113.223 220.988 112.43C217.682 111.056 209.899 107.82 192.094 100.056ZM92.4168 101.622C96.141 101.035 99.8622 100.447 103.546 99.8655C103.542 99.8227 103.538 99.7798 103.535 99.7366C103.509 99.4379 103.484 99.1435 103.46 98.8533C99.7984 99.4283 96.0943 100.01 92.3815 100.595C92.3943 100.947 92.4061 101.289 92.4168 101.622ZM23.0397 182.1C23.4806 181.778 23.6183 181.678 23.5835 181.429V181.43C23.4157 180.242 22.902 167.687 22.3781 154.878C21.8199 141.232 21.25 127.299 21.0735 126.51C21.0561 126.433 21.0452 126.375 21.0229 126.321C20.9319 126.103 20.6526 125.964 18.9736 124.871C18.4333 124.52 21.7243 175.43 22.2231 182.085C22.253 182.493 22.2692 182.679 22.5721 182.447C22.7561 182.307 22.9108 182.194 23.0397 182.1ZM12.6641 119.259C12.722 119.774 13.8185 120.173 33.1247 132.722C67.0552 154.775 70.0981 156.903 70.266 156.697C70.2933 156.663 70.2443 156.568 70.2401 156.486C70.1806 155.385 70.1523 154.582 70.1313 153.987C70.0794 152.512 70.0728 152.324 69.7459 152.072C69.0864 151.562 67.3575 150.46 62.8537 147.591C56.7852 143.726 45.6787 136.651 25.362 123.49C14.2602 116.296 12.7084 115.136 12.5554 115.298C12.5165 115.339 12.568 115.465 12.5759 115.6C12.6128 116.214 12.6773 117.312 12.6612 119.151C12.6609 119.19 12.6601 119.224 12.6641 119.259ZM75.7186 217.547C75.8567 217.473 76.0072 217.394 76.1712 217.307H76.17C76.1931 217.296 75.8705 160.37 75.7358 157.732C75.719 157.383 75.6986 157.389 74.5642 157.694C74.3844 157.743 74.1767 157.798 73.9365 157.861C71.7447 158.437 71.2597 158.488 71.1717 158.703C71.1425 158.774 71.1571 158.863 71.1673 158.996C71.6943 165.832 72.4029 181.625 73.0131 195.227C73.5102 206.306 73.9421 215.932 74.1577 218.086C74.1851 218.36 74.2356 218.334 75.7186 217.547ZM221.835 185.221C221.842 185.209 221.899 184.085 221.883 182.725L221.882 182.726C221.877 182.363 222.088 176.57 222.375 168.66C223.025 150.731 224.068 121.923 223.907 120.799C223.901 120.756 223.898 120.725 223.88 120.707C223.796 120.612 223.384 120.809 220.715 121.42C220.419 121.487 220.419 121.491 220.467 123.356C220.522 125.489 220.64 130.058 220.449 139.941V140.028C220.436 142.199 220.189 184.339 220.47 186.025C220.473 186.023 220.495 186.01 220.533 185.99C220.798 185.841 221.802 185.28 221.835 185.221ZM224.127 119.242C224.204 118.693 224.46 115.595 224.464 114.513V114.514C224.464 114.488 224.467 114.458 224.469 114.425C224.484 114.245 224.504 114.008 224.118 114.121C223.741 114.228 71.2825 152.162 71.2687 152.164C70.9062 152.254 70.9067 152.261 70.9577 152.935L70.9623 152.996C70.977 153.196 70.9882 154.083 70.9994 154.976C71.0109 155.898 71.0225 156.829 71.0383 157.012C71.0763 157.463 71.2088 157.52 71.6131 157.442C72.8745 157.195 224.042 119.842 224.127 119.242Z" fill="black"/>
<path fill-rule="evenodd" clip-rule="evenodd" d="M200.499 60.9409C200.422 60.9421 200.343 60.9431 200.263 60.9431H200.264C197.116 61.1718 188.697 61.5452 179.947 61.9334C170.227 62.3646 160.098 62.8138 156.33 63.1029C155.339 63.1787 154.88 63.1696 154.668 63.3936C154.478 63.5949 154.487 63.9846 154.487 64.7939C154.489 67.1012 156.075 95.4333 156.19 96.7223C156.321 98.1956 156.408 98.3016 158.43 98.214C159.12 98.1843 159.942 98.1292 160.97 98.0469C160.283 89.4712 159.526 69.7681 159.523 69.2228C159.515 67.5257 159.68 67.516 161.212 67.4259C161.46 67.4113 161.744 67.3946 162.069 67.3682C174.552 66.358 201.815 65.5528 201.818 65.6542L201.819 65.6519H201.892C201.811 63.551 201.761 62.1233 201.761 61.8393C201.76 60.9234 201.217 60.931 200.499 60.9409Z" fill="black"/>
<path fill-rule="evenodd" clip-rule="evenodd" d="M145.822 68.9803C137.271 69.2813 111.53 70.9243 102.128 71.6392C101.259 71.7048 101.296 72.0922 101.452 73.7094C101.491 74.1119 101.537 74.5906 101.578 75.1594C101.632 75.9012 101.666 76.4256 101.703 76.9793C101.844 79.1518 102.014 81.7753 103.534 99.7364C103.632 100.886 103.713 101.886 103.784 102.755C103.81 103.074 103.835 103.376 103.858 103.661C102.3 103.897 101.173 104.07 100.362 104.198C98.3071 104.523 98.2826 104.227 98.1262 102.337C98.1217 102.283 98.1171 102.227 98.1124 102.17C97.4224 93.9321 95.6462 69.4957 95.5413 68.0293C95.4158 66.285 95.691 66.2474 96.7541 66.1024C96.8999 66.0825 97.0605 66.0606 97.2369 66.0319C105.261 64.7337 143.358 61.9162 144.079 61.8701C145.398 61.786 145.504 62.1131 145.504 63.6141C145.498 63.6148 145.626 65.7546 145.822 68.9803Z" fill="black"/>
<path fill-rule="evenodd" clip-rule="evenodd" d="M82.8047 69.6403C82.7155 68.8166 82.6423 68.1423 82.5916 67.5911H82.5928C82.462 66.1703 82.0043 66.2428 80.8406 66.427C80.6315 66.46 80.3997 66.4968 80.1427 66.529C77.4973 66.8604 73.46 67.5083 68.8057 68.2549C65.9227 68.7174 62.8031 69.2179 59.6308 69.7048C52.7269 70.7644 47.3832 71.5638 43.2504 72.182C35.8002 73.2966 32.2849 73.8225 30.6571 74.2226C29.3696 74.5383 29.3888 74.7861 29.4882 76.0636C29.506 76.2913 29.5262 76.5518 29.542 76.8512C29.633 78.5814 31.991 105.885 33.6347 112.542C33.6604 112.645 33.6814 112.745 33.7014 112.84C33.8645 113.616 33.961 114.076 35.9857 113.671C37.949 113.277 41.3696 112.531 45.5228 111.622C44.5463 104.23 43.8015 92.8312 43.3646 86.1434C43.182 83.3501 43.0532 81.3786 42.9837 80.8642L42.986 80.8654C43.0043 80.7869 43.0201 80.7135 43.0348 80.6449C43.1276 80.2122 43.1795 79.9709 43.5642 79.8874C52.084 78.0457 68.8218 75.7436 83.256 74.03C83.0854 72.2285 82.9294 70.7891 82.8047 69.6403Z" fill="black"/>
<path d="M205.533 66.6782C205.367 65.5966 205.284 65.6507 201.819 65.6507C201.817 65.5494 174.554 66.3534 162.071 67.3648C159.738 67.5537 159.513 67.2473 159.525 69.2193C159.527 69.8333 160.488 94.7385 161.227 100.695C161.385 101.97 161.429 102.249 162.041 102.308C164.507 102.548 176.4 101.37 178.377 101.246C178.97 101.209 178.848 101.147 178.949 101.918C179.196 103.81 179.296 103.745 178.88 103.798C178.74 103.817 175.792 104.414 174.944 104.602C174.17 104.774 174.156 104.818 174.225 105.593C174.278 106.178 174.031 105.905 180.588 109.847C181.02 110.109 181.06 110.073 182.581 109.893C184.45 109.673 194.657 107.953 195.234 107.916C195.684 107.889 196.223 107.806 196.158 107.406C196.001 106.494 196.13 106.388 195.776 106.175C189.516 102.387 190.044 102.326 187.924 102.594C187.521 102.649 187.708 102.042 187.568 100.664C187.549 100.493 187.586 100.478 188.069 100.436C188.308 100.417 204.315 98.9165 206.765 98.405C207.369 98.2783 207.65 98.2484 207.634 97.2831C207.572 93.5187 205.941 69.3437 205.534 66.6759L205.533 66.6782ZM205.322 71.3918C205.336 71.6199 206.419 90.0791 206.431 90.8693C206.438 91.2413 206.528 91.55 206.199 91.6284C205.87 91.7067 201.36 92.0511 199.81 92.0788C199.24 92.088 199.202 92.1732 199.141 91.4118C199.12 91.148 197.665 73.4917 197.544 71.113C197.533 70.8953 197.521 70.832 197.905 70.7986C198.245 70.7686 204.016 70.4334 204.947 70.4035C205.231 70.3919 205.263 70.2629 205.321 71.3918H205.322ZM202.585 66.3269C204.895 66.2324 204.808 66.0585 204.874 66.5158C204.974 67.2173 205.077 68.9682 205.056 69.1928C204.985 69.8817 204.952 69.361 197.656 69.9001C197.201 69.9346 197.297 68.5086 197.187 66.8648C197.15 66.3039 197.172 66.5434 202.586 66.3269H202.585ZM198.41 91.3105C198.467 91.8576 198.492 92.1859 198.074 92.2366C194.945 92.6156 186.561 93.0567 186.235 93.0475C186.092 93.0429 185.949 93.006 185.944 92.831C185.932 92.4762 184.909 76.7746 184.796 71.6337C184.789 71.3284 184.783 71.3929 187.316 71.2916C196.586 70.9264 194.969 70.9011 196.63 70.8343C196.88 70.8228 196.852 70.9725 196.852 71.3699C196.848 72.6036 198.044 87.8144 198.411 91.3105H198.41ZM184.935 93.195C178.819 93.5878 173.994 94.0543 173.426 93.7744C172.984 93.5532 172.903 88.9836 172.259 72.2788C172.236 71.7224 172.377 72.1382 180.84 71.6164C184.094 71.4148 184.094 71.2973 184.112 71.6348C184.482 78.1293 185.087 91.8 185.144 91.8C185.144 92.8759 185.252 93.1742 184.936 93.195H184.935ZM160.318 68.0686C171.965 67.7069 190.962 66.517 195.896 66.4766C196.551 66.4697 196.542 66.3776 196.616 67.1159C196.644 67.3866 196.699 68.0075 196.836 69.4508C196.898 70.1005 196.891 69.9427 191.42 70.1558C183.035 70.4818 160.353 71.7938 160.339 71.7708C160.27 71.6602 160.252 69.2919 160.096 68.4786C160.027 68.1158 160.165 68.0743 160.32 68.0697L160.318 68.0686ZM160.909 85.6972C160.891 85.4507 160.762 80.7291 160.418 73.5758C160.406 73.3316 160.346 73.0885 160.337 72.842C160.309 72.121 160.321 72.622 169.201 72.1901C171.903 72.0587 171.776 71.8664 171.802 72.6451C171.981 78.1903 172.13 87.4781 172.617 93.5106C172.661 93.9932 172.524 93.8619 162.019 94.7466C161.434 94.7984 161.538 94.803 160.909 85.6972ZM175.661 100.751C174.84 100.839 163.573 101.657 162.385 101.735C162.085 101.756 162.162 101.641 162.049 100.322C161.625 95.4158 161.59 95.4573 161.864 95.4066C163.929 95.0276 174.805 94.4874 175.184 94.4644C175.604 94.439 175.581 94.545 175.593 94.8479C175.712 97.9293 175.708 98.9337 176.036 100.241C176.094 100.463 176.151 100.698 175.659 100.751H175.661ZM187.973 103.02C189.283 102.805 189.421 102.838 189.777 103.089C191.574 104.357 195.087 106.389 195.214 106.516C194.478 106.876 183.992 108.276 181.874 108.784C181.463 108.883 181.483 108.837 179.443 107.674C175.199 105.252 174.914 105.183 175.249 105.078C176.621 104.644 177.901 104.381 178.832 104.15C179.093 104.085 179.192 104.06 179.245 104.353C179.275 104.517 179.443 105.339 179.519 105.811C179.592 106.256 179.666 106.224 184.885 105.358C187.385 104.942 187.514 104.978 187.548 104.605C187.68 103.157 187.652 103.074 187.973 103.021V103.02ZM179.62 101.257C180.003 101.179 185.87 100.632 186.396 100.595C186.745 100.569 186.888 100.491 186.907 100.827C186.967 101.886 187.024 103.091 187.063 104.082C187.077 104.418 186.813 104.355 185.959 104.484C179.545 105.444 180.002 105.677 179.97 105.23C179.825 103.244 179.364 101.31 179.621 101.257H179.62ZM191.489 99.2851C188.054 99.5834 177.212 100.596 176.908 100.639C176.548 100.69 176.529 100.507 176.513 100.184C176.247 94.4862 175.975 94.492 176.382 94.507C176.91 94.5254 176.384 94.5001 189.166 93.6776C191.962 93.4956 191.819 93.1904 191.905 93.9944C192.436 99.0915 192.463 98.6527 192.482 99.0869C192.486 99.163 192.277 99.2159 191.489 99.2839V99.2851ZM206.21 97.7116C204.025 97.9005 199.3 98.913 193.219 99.2044C192.782 99.2252 192.87 99.1146 192.838 98.2691C192.715 94.9965 192.72 94.492 192.562 93.65C192.507 93.3608 192.503 93.4956 194.535 93.3309C197.319 93.1063 205.135 92.6109 205.138 92.6351C207.048 92.6351 206.51 92.2308 206.745 95.0115C206.953 97.4904 207.328 97.6148 206.211 97.7116H206.21Z" fill="black"/>
<path d="M150.098 101.501C149.968 93.0396 149.843 86.786 149.411 76.8773C149.069 69.0225 149.191 68.9741 148.317 68.9396C144.836 68.799 112.855 70.8264 102.129 71.6396C101.044 71.7226 101.374 72.3054 101.58 75.1598C101.846 78.8114 101.626 77.1987 103.536 99.7368C104.28 108.545 104.101 108.566 105.307 108.534C106.987 108.49 107.668 108.511 112.248 107.952C120.299 106.971 119.296 106.796 119.296 107.798C119.296 108.599 119.453 108.297 114.861 109.209C112.085 109.761 112.184 109.606 112.258 110.209C112.362 111.056 112.127 111.285 112.545 111.518C118.226 114.72 119.312 115.549 120.337 115.407C125.014 114.759 134.814 112.966 134.84 112.962C137.609 112.479 137.565 112.562 137.556 112.151C137.551 111.908 137.464 111.664 137.468 111.42C137.478 110.979 137.222 110.79 136.866 110.623C132.031 108.351 128.678 106.611 128.177 106.813C127.796 106.967 127.942 106.599 127.883 106.415C127.606 105.565 126.213 106.057 145.376 103.552C150.12 102.931 150.123 103.133 150.099 101.501H150.098ZM127.92 107.774C127.927 107.463 128.221 107.284 128.503 107.429C134.283 110.393 135.981 110.961 136.273 111.306C135.349 111.78 121.905 113.82 120.456 114.011C119.668 114.115 120.249 114.274 113.135 110.244C112.958 110.143 113.026 110.235 112.9 110.045C113.375 109.918 118.063 109.309 119.114 109.054C119.523 108.955 119.266 109.186 119.629 110.258C119.933 111.161 120.367 111.173 126.243 110.09C128.293 109.715 127.873 110.11 127.921 107.774H127.92ZM120.114 107.107C120.084 106.79 120.095 106.975 126.128 106.1C126.849 105.994 127.1 105.866 127.116 106.194C127.153 106.982 127.224 108.377 127.389 109.145C127.474 109.55 127.417 109.317 123.583 109.764C119.939 110.187 120.212 110.254 120.212 110.019C120.202 107.757 120.352 109.595 120.113 107.108L120.114 107.107ZM149.176 102.368C118.615 106.377 104.908 108.292 104.776 107.724C104.636 107.123 104.933 107.713 103.207 85.3415C102.543 76.7494 102.173 74.2729 102.071 72.6153C102.048 72.2386 102.073 72.3596 103.106 72.3215C112.836 71.9541 148.252 69.0697 148.264 69.4579C148.264 69.481 148.55 73.5621 148.482 73.5667C149.23 102.065 149.84 102.292 149.176 102.368Z" fill="black"/>
<path d="M90.2621 75.5027C89.9477 73.4914 90.1953 73.23 88.4467 73.4269C73.055 75.1755 53.1306 77.8226 43.5641 79.8868C43.1183 79.9824 43.1195 80.2923 42.9858 80.8648C43.2646 82.9163 44.4902 108.168 46.2964 116.265C46.498 117.166 46.968 117.074 53.528 115.891C61.5671 114.443 61.2769 114.295 61.27 114.7C61.2515 115.893 61.3782 116.078 61.0476 116.198C60.11 116.535 53.7169 117.76 53.5856 118.256C53.4474 118.775 53.3288 119.003 53.9024 119.267C63.3203 123.592 62.1166 123.316 63.6141 123.024C64.3904 122.872 72.8984 120.828 79.7649 118.768C79.8777 118.734 79.9538 118.692 79.9791 118.605C79.9952 118.554 79.9906 117.983 79.9676 117.865C79.9376 117.719 79.8639 117.655 79.6762 117.585C73.761 115.319 71.7142 114.405 70.0866 114.59C69.7168 114.632 69.7721 114.655 69.7284 112.904C69.7191 112.539 69.7307 112.812 86.8767 109.199C91.9209 108.136 92.43 108.18 92.4726 107.458C92.6512 104.431 92.0453 86.8811 90.2644 75.5038L90.2621 75.5027ZM70.0094 115.173C70.6188 114.943 71.174 115.012 71.7972 115.249C73.0677 115.732 78.9205 117.612 79.3963 117.875C79.3732 117.889 62.7409 122.088 62.7179 122.09C61.4381 121.55 62.7755 121.954 56.5667 119.358C54.4795 118.487 54.6108 118.542 54.4277 118.448C54.7306 118.344 54.43 118.439 57.5781 117.773C61.4957 116.941 61.3586 116.815 61.3725 117.295C61.4255 118.963 61.361 119.122 67.8991 117.343C68.4233 117.198 68.922 116.964 69.4346 116.775C69.9242 116.597 69.4392 115.39 70.0117 115.174L70.0094 115.173ZM62.2905 114.251C64.4826 113.836 67.0548 113.272 68.9024 112.909C68.9186 113.154 68.9508 113.394 68.9508 113.639C68.9646 116.307 69.3252 116.038 69.1766 116.29C69.0867 116.442 65.8695 117.114 65.8464 117.12C61.6593 118.262 62.0843 118.039 62.082 117.778C62.0452 114.239 61.9864 114.309 62.2917 114.251H62.2905ZM91.2412 107.702C78.8802 109.855 46.9541 116.282 46.9058 115.816C45.5822 102.827 44.7598 94.8373 43.5756 80.6517C43.5411 80.2427 88.6806 73.9568 89.0906 73.913C90.0329 73.8117 91.8955 104.246 91.8414 106.605C91.816 107.694 91.9427 107.578 91.2412 107.701V107.702Z" fill="black"/>
<path d="M93.2525 122.655C92.4369 122.174 91.2412 121.377 90.5962 121.574C89.2888 121.972 61.4232 129.602 61.8851 131.718C62.3539 133.868 62.3263 134.383 64.0933 133.522C64.3029 133.42 64.3363 133.466 64.7717 133.795C70.9183 138.43 70.613 138.361 71.1026 138.25C71.3779 138.445 71.5403 138.107 71.7822 138.032C71.8052 138.026 101.25 127.972 101.454 127.817C101.805 127.554 101.459 127.471 93.2525 122.655ZM94.4447 129.551C70.8077 137.228 71.0415 137.766 70.9713 137.757C70.7282 137.73 70.8192 137.563 66.063 133.84C63.0278 131.463 62.4138 131.415 62.7928 131.269C74.2761 126.781 89.9073 122.515 90.6423 122.175C91.0558 121.984 90.8127 122.053 96.0815 125.12C97.5537 125.974 100.251 127.491 100.521 127.65C100.137 127.865 97.0019 128.724 94.4458 129.552L94.4447 129.551Z" fill="black"/>
<path d="M116.533 120.976C116.513 119.875 116.214 119.866 129.96 117.118C132.986 116.514 133.233 116.426 142.148 114.938C147.599 114.028 147.432 113.903 148.1 114.678C148.737 115.415 153.847 121.643 153.99 122.606C154.01 122.746 153.981 122.842 153.794 122.881C153.187 123.011 152.59 123.198 151.981 123.322C122.147 129.445 122.374 129.752 122.078 129.233C121.246 127.776 120.198 126.468 119.262 125.08C117.913 123.078 118.193 123.154 117.528 123.288C116.918 123.41 116.866 123.181 116.533 120.975V120.976ZM153.493 122.356C153.279 122.051 148.196 115.478 147.521 114.832C146.934 114.271 122.215 119.598 117.385 120.469C116.877 120.56 117.685 120.816 122.397 128.636C122.787 129.285 122.355 128.359 146.015 123.863C152.679 122.597 153.203 122.528 153.493 122.355V122.356Z" fill="black"/>
<path d="M174.891 113.129C174.899 112.839 175.639 112.737 176.912 112.543C183.258 111.576 201.05 109.011 202.487 108.75C203.044 108.65 203.185 108.711 207.777 114.349C208.595 115.353 207.499 115.268 203.227 116.217C180.84 121.189 180.029 121.907 179.613 121.233C176.633 116.406 176.446 115.803 176.257 115.471C176.119 115.228 176.007 115.307 175.703 115.307C175.374 115.307 175.255 115.342 175.167 115.055C175.085 114.789 174.917 113.603 174.89 113.129H174.891ZM202.545 109.195C202.45 109.202 176.559 113.025 175.711 113.226C175.525 113.269 175.407 112.92 178.335 118.101C180.015 121.073 179.825 121.05 180.222 120.937C186.458 119.16 205.796 115.264 207.419 114.847C207.633 114.792 207.483 114.707 206.832 113.961C202.623 109.125 202.957 109.468 202.544 109.194L202.545 109.195Z" fill="black"/>
<path d="M181.716 74.0617C183.013 75.1595 176.331 75.8979 176.185 74.5858C176.117 73.9765 176.924 73.7968 177.741 73.6643C179.473 73.3833 181.228 73.6482 181.716 74.0617Z" fill="black"/>
<path d="M176.827 79.5499C176.354 79.3667 176.175 78.838 176.774 78.4694C177.084 78.2794 177.363 78.2874 178.56 78.1757C179.336 78.1031 180.495 77.9637 181.239 78.4164C181.481 78.5639 181.509 78.6745 181.306 78.8553C181.111 79.0304 180.892 79.202 180.65 79.2965C179.901 79.5914 177.577 79.8402 176.826 79.5487L176.827 79.5499Z" fill="black"/>
<path d="M176.614 89.7876C177.748 89.1103 181.67 89.1253 181.543 89.6218C181.394 90.2127 179.894 90.5156 178.654 90.6815C176.188 91.0121 176.315 89.9662 176.613 89.7876H176.614Z" fill="black"/>
<path d="M181.548 86.1136C181.546 86.9245 177.645 87.2885 176.901 86.8669C176.368 86.564 176.596 85.8843 177.522 85.768C178.124 85.6931 181.55 85.2416 181.548 86.1124V86.1136Z" fill="black"/>
<path d="M177.069 83.4406C176.139 83.1135 176.311 82.4189 176.966 82.1977C179.115 81.4732 181.615 82.1286 180.608 82.8416C179.553 83.5881 177.202 83.4878 177.069 83.4418V83.4406Z" fill="black"/>
<path d="M174.721 83.5962C173.439 83.6124 173.499 81.8753 174.659 81.8523C175.848 81.8292 175.941 83.6584 174.721 83.5962Z" fill="black"/>
<path d="M175.725 90.2956C175.723 90.8358 175.358 91.2321 174.859 91.2356C174.457 91.239 173.994 90.7759 174.007 90.3855C174.042 89.2405 175.731 89.0412 175.725 90.2956Z" fill="black"/>
<path d="M175.603 86.5549C175.587 87.7333 173.893 87.6008 173.963 86.495C174.045 85.1738 175.617 85.5643 175.603 86.5549Z" fill="black"/>
<path d="M173.878 79.0605C173.861 78.6032 174.254 78.1735 174.677 78.1828C175.091 78.192 175.474 78.5894 175.458 79.0213C175.418 80.1364 173.908 79.9383 173.876 79.0605H173.878Z" fill="black"/>
<path d="M174.493 75.7857C174.042 75.7857 173.688 75.4781 173.675 75.0784C173.661 74.6787 174.079 74.1995 174.43 74.2122C175.403 74.249 175.65 75.7891 174.493 75.7868V75.7857Z" fill="black"/>
<path d="M169.406 75.4774C170.98 76.4335 163.966 76.7963 162.634 76.5486C162.003 76.4312 161.993 75.8529 162.415 75.6433C163.045 75.3311 163.651 75.2965 165.317 75.2182C165.715 75.1998 168.482 74.9176 169.406 75.4774Z" fill="black"/>
<path d="M163.034 84.6371C162.628 84.3203 162.771 83.7086 163.549 83.5957C164.441 83.4667 169.123 83.1661 170 83.787C171.394 84.7741 163.642 85.1105 163.034 84.6371Z" fill="black"/>
<path d="M169.801 90.3627C169.102 90.9133 164.936 90.9076 163.585 90.6956C163.392 90.6657 162.757 90.2925 163.417 89.8686C163.943 89.5311 171.326 89.1613 169.801 90.3627Z" fill="black"/>
<path d="M162.974 82.0714C162.505 81.879 162.476 81.3192 163.323 81.0508C163.489 80.9978 168.995 80.4322 169.095 81.3099C169.187 82.1094 163.718 82.3766 162.973 82.0702L162.974 82.0714Z" fill="black"/>
<path d="M163.037 87.6276C162.341 87.0804 163.053 86.5816 163.795 86.5678C167.425 86.5045 167.104 86.5563 168.03 86.8569C168.453 86.9952 168.492 87.358 167.998 87.54C166.456 88.1067 163.547 88.0296 163.037 87.6276Z" fill="black"/>
<path d="M162.47 79.0741C161.805 78.7827 161.971 78.1065 162.532 77.9591C163.546 77.693 166.262 77.5801 167.269 78.2159C168.572 79.0395 163.474 79.5141 162.471 79.0729L162.47 79.0741Z" fill="black"/>
<path d="M199.946 79.9058C199.493 79.9058 198.891 79.9865 198.804 79.5338C198.698 78.9843 199.516 78.8403 200.125 78.7574C202.1 78.4878 203.145 78.6353 203.532 78.8219C203.837 78.9693 203.73 79.1387 203.453 79.293C202.44 79.8586 199.949 79.93 199.947 79.907L199.946 79.9058Z" fill="black"/>
<path d="M202.788 72.9019C203.698 73.5193 199.185 74.1183 198.725 73.9432C198.1 73.7047 198.222 73.1265 198.656 72.9641C199.666 72.5863 202.211 72.5114 202.788 72.9019Z" fill="black"/>
<path d="M203.469 83.7874C204.607 84.6571 200.383 84.9116 199.677 84.6882C199.141 84.5188 199.323 83.8081 200.085 83.7045C202.501 83.3773 203.221 83.5985 203.469 83.7874Z" fill="black"/>
<path d="M203.157 75.0693C203.092 75.4713 201.785 75.6844 201.38 75.7431C197.63 76.2788 198.377 75.1683 199.048 74.9737C199.599 74.8124 203.249 74.4956 203.157 75.0704V75.0693Z" fill="black"/>
<path d="M200.676 76.8332C203.386 77.2629 198.29 78.6394 198.691 77.1684C198.859 76.5498 200.428 76.794 200.676 76.8332Z" fill="black"/>
<path d="M199.859 81.9811C199.418 81.9949 199.13 81.8083 199.135 81.4109C199.148 80.3904 202.649 80.8926 201.581 81.533C201.213 81.753 200.751 81.9535 199.86 81.9811H199.859Z" fill="black"/>
<path d="M194.239 73.3197C194.8 73.2253 194.814 73.4257 194.897 75.043C195.193 80.8313 195.215 85.2603 195.366 87.1103C195.567 89.5765 195.86 89.9428 195.301 90.0108C191.274 90.4969 191.059 90.5038 188.656 90.5856C187.353 90.6293 188.014 89.5788 187.546 82.4001C187.44 80.776 187.274 79.4904 187.077 74.2401C187.049 73.4983 187.357 73.58 189.432 73.4614C192.994 73.2575 193.863 73.3854 194.239 73.3209V73.3197ZM194.512 89.4383C194.947 89.4452 194.903 89.4129 194.896 89.0731C194.85 86.8718 194.577 82.7976 194.457 81.5512C193.905 75.7882 194.317 73.9164 193.873 73.9245C190.757 73.9821 192.331 73.9993 190.344 74.1479C187.797 74.338 187.627 74.1594 187.657 74.5177C188.157 80.6274 188.367 88.7379 188.558 89.3922C188.813 90.2653 188.607 89.3484 194.512 89.4383Z" fill="black"/>
<path d="M201.961 69.2555C200.841 68.7683 201.043 68.7026 200.662 69.0298C200.054 69.5527 199.854 69.6288 199.596 69.4249C199.293 69.1853 199.583 68.7775 199.839 68.4941C200.074 68.235 200.384 68.1889 200.19 68.0345C199.886 67.7915 199.448 67.5265 199.659 67.2766C199.921 66.9667 200.394 67.2029 200.721 67.4448C201.003 67.6544 201.024 67.4793 201.528 67.1741C201.737 67.0474 202.576 66.7916 202.087 67.6037C201.857 67.9862 201.739 67.9216 201.714 68.1739C201.685 68.4607 202.709 69.1369 201.959 69.2567L201.961 69.2555Z" fill="black"/>
<path d="M125.061 79.309C126.419 79.1639 127.756 80.7915 127.237 82.2072C127.172 82.3823 127.165 82.486 127.4 82.6069C128.097 82.9663 128.538 83.3649 132.102 86.3322C132.403 86.5833 132.362 85.8069 133.77 85.5834C134.508 85.4659 134.639 85.8668 134.853 85.4475C136.009 83.1806 137.916 80.1223 139.62 77.921C139.816 77.6687 139.264 77.5812 138.864 76.8659C137.709 74.8005 140.017 72.3965 142.247 73.7384C144.248 74.9433 143.282 78.1329 141.05 78.0754C139.84 78.0431 140.214 77.853 139.796 78.8932C139.218 80.3296 136.981 84.0894 136.202 85.3899C135.423 86.6904 135.569 85.633 136.059 86.9807C137.145 89.9607 132.814 91.4731 131.821 88.6095C131.394 87.3758 132.199 87.0325 131.679 86.7687C130.147 85.9924 128.141 84.3544 126.826 83.2485C126.533 83.0032 125.996 84.2081 124.359 83.7127C123.872 83.5653 124.119 83.7289 122.939 85.7263C121.384 88.3595 121.223 88.1764 121.408 88.5991C122.253 90.5193 120.551 92.1193 118.924 91.662C117.057 91.1379 116.837 88.8456 118.2 87.7697C118.685 87.3862 118.032 87.8089 114.648 82.6288C113.805 81.3375 113.901 81.0761 113.579 81.303C112.718 81.9089 112.288 81.3583 112.177 81.9446C111.941 83.1967 110.551 87.0579 110.523 87.1316C109.679 89.3882 109.568 89.2568 109.802 89.4711C111.601 91.1195 109.972 93.7274 107.901 93.1802C105.612 92.5755 105.783 89.4653 107.809 88.9908C108.073 88.9286 108.356 88.7869 108.645 88.9332C108.994 89.1106 108.678 88.5404 110.256 84.6193C111.538 81.4366 111.826 81.6128 111.577 81.4481C111.434 81.3537 111.28 81.2719 111.152 81.1636C110.648 80.7397 110.302 79.8792 110.614 78.9807C111.217 77.246 113.289 77.2252 114.132 78.5442C114.945 79.8147 114.067 80.2755 114.465 80.6441C115.114 81.2465 115.418 81.6843 118.16 86.0027C118.936 87.226 118.869 87.3862 119.301 87.3585C120.491 87.2813 120.359 87.8619 120.659 87.3862C123.355 83.1149 123.775 83.5008 123.413 83.1483C122.099 81.8743 123.031 79.1132 125.06 79.3102L125.061 79.309ZM140.926 74.1566C140.2 74.1888 139.446 74.979 139.473 75.6782C139.503 76.427 140.301 77.2011 141.048 77.14C143.164 76.9649 142.695 74.0794 140.926 74.1577V74.1566ZM125.061 82.7947C126.708 82.797 126.667 80.3953 125.121 80.3699C123.174 80.3388 123.615 82.8811 125.061 82.7947ZM119.46 88.4137C117.7 88.4252 117.987 90.79 119.467 90.8062C120.947 90.8223 121.218 88.4021 119.46 88.4137ZM108.326 92.2057C109.825 92.2679 110.098 90.0609 108.428 89.9169C107.869 89.8685 107.251 90.4571 107.254 91.0227C107.256 91.6989 107.845 92.2587 108.327 92.2057H108.326ZM133.815 86.6766C133.307 86.6766 132.746 87.2629 132.772 87.7571C132.802 88.3457 133.379 88.9458 133.934 88.9631C134.486 88.9804 135.172 88.3445 135.131 87.8147C135.081 87.1731 134.616 86.6766 133.814 86.6766H133.815ZM112.214 78.5027C111.618 78.634 111.226 79.2169 111.368 79.764C111.511 80.3112 111.982 80.8652 112.752 80.5934C113.241 80.4206 113.657 79.8378 113.579 79.3113C113.501 78.7803 112.935 78.3437 112.214 78.5027Z" fill="black"/>
<path d="M108.945 102.465C108.899 101.691 109.607 101.808 122.174 100.114C125.309 99.6915 126.74 99.3126 126.846 100.165C126.948 100.976 125.629 100.99 120.113 101.74C113.065 102.698 109.007 103.488 108.945 102.465Z" fill="black"/>
<path d="M108.301 97.376C107.871 97.1963 107.806 96.8461 108.142 96.5236C108.7 95.9914 114.133 95.2588 114.623 95.1886C120.732 94.3062 121.076 94.1081 121.607 94.3408C122.211 94.6045 122.26 95.4143 120.833 95.6459C108.578 97.6375 108.846 97.6041 108.301 97.376Z" fill="black"/>
<path d="M109.032 100.032C108.61 99.871 108.538 99.4851 108.897 99.2098C109.643 98.635 116.932 97.505 117.819 97.4013C118.508 97.3207 119.185 97.7538 118.674 98.3044C118.279 98.7306 118.101 98.6638 113.177 99.5588C110.826 99.9862 109.675 100.278 109.031 100.032H109.032Z" fill="black"/>
<path d="M54.4936 83.5911C51.9801 83.5358 49.2546 85.3443 48.484 88.0167C46.8967 93.5251 52.1748 97.3759 56.2698 95.9014C63.1478 93.4225 61.4683 83.7431 54.4936 83.5911ZM51.9616 89.6996C51.8786 88.4982 53.1019 87.2 54.5038 87.2288C56.022 87.261 57.1832 88.6652 57.1395 89.9288C57.0911 91.3192 55.8826 92.4296 54.5038 92.402C52.9084 92.3697 51.8729 90.8987 51.9616 89.6996ZM59.874 91.0738C58.479 96.4566 51.6782 96.7158 49.4642 92.2672C49.3214 91.9781 49.3421 91.9401 49.6658 91.8594C51.4098 91.4275 51.3165 91.3745 51.5595 91.7511C52.5502 93.2958 54.8184 93.8476 56.5324 92.6266C57.9965 91.583 57.3468 90.825 58.1647 90.8181C59.5297 90.8066 60.0421 90.4299 59.874 91.0727V91.0738ZM58.8073 90.1224C57.8904 90.2099 57.9319 90.3239 57.9434 89.8586C57.9825 88.1261 56.9274 86.7496 55.2249 86.4317C54.3541 86.2681 54.5097 86.404 54.4936 85.5286C54.4728 84.44 54.4497 84.5138 54.7952 84.5103C58.1484 84.9929 59.5101 86.965 59.9812 89.8378C60.0181 90.0578 59.4893 90.0578 58.8063 90.1235L58.8073 90.1224Z" fill="black"/>
<path d="M74.7138 100.304C74.7322 100.694 74.7852 100.966 74.3947 101.036C72.9249 101.302 71.3341 101.78 71.5472 100.813C71.5887 100.624 70.2398 87.0751 70.2352 87.0521C70.1822 86.6454 70.3458 86.7192 72.63 86.3333C73.2532 86.2273 73.244 86.1375 73.3764 86.6362C73.4663 86.9737 74.7529 100.3 74.7138 100.302V100.304Z" fill="black"/>
<path d="M84.2506 98.5299C84.2506 99.221 84.5155 99.198 81.4722 99.6875C80.629 99.8234 80.9285 99.7774 79.9943 90.7557C79.6211 87.1525 78.9783 87.6824 81.6899 87.2562C82.7174 87.0949 82.8522 86.9947 82.9604 87.3461C83.2634 88.3321 84.2471 98.508 84.2494 98.531L84.2506 98.5299Z" fill="black"/>
<path d="M79.5462 99.1611C79.5462 100.314 79.438 100.16 76.8761 100.595C75.7818 100.781 76.3394 98.9342 75.3959 91.3501C75.3499 90.9781 75.5595 91.0011 76.6918 90.6901C78.6869 90.1429 78.437 89.8215 78.8539 93.3947C79.5267 99.1623 79.385 98.2224 79.5451 99.16L79.5462 99.1611Z" fill="black"/>
<path d="M85.7305 90.9271C88.2566 90.3764 88.2416 90.2912 88.4098 90.8464C88.5745 91.3913 88.5964 91.3014 88.9524 95.5416C89.1413 97.7958 89.3452 98.1794 88.6978 98.29C85.3101 98.8682 85.9148 99.3359 85.6303 96.2673C85.1327 90.9155 84.8355 91.1217 85.7317 90.9271H85.7305Z" fill="black"/>
<path d="M69.1639 110.481C69.218 110.904 68.5649 110.963 68.5199 110.55C68.5176 110.527 65.9293 82.8021 65.8602 78.9098C65.8464 78.1104 66.253 78.5861 66.2887 78.76C67.0133 82.2837 68.824 107.848 69.1627 110.481H69.1639Z" fill="black"/>
<path d="M72.5863 104.373C71.3849 104.373 71.7639 103.438 73.069 103.154C76.019 102.51 81.1922 101.802 83.1136 101.525C87.2155 100.932 87.4781 100.636 87.7488 101.254C88.0759 102.003 86.4345 102.094 79.9746 103.132C75.5444 103.844 72.9285 104.324 72.5863 104.375V104.373Z" fill="black"/>
<path d="M49.9987 100.341C49.6612 100.341 49.1647 100.429 49.0841 99.9804C49.0011 99.5231 49.6819 99.3192 50.1392 99.2317C50.1622 99.2271 56.8237 98.0522 61.5856 97.7077C62.0038 97.6778 61.9784 98.2203 61.6801 98.2964C55.1039 99.9528 50.0021 100.387 49.9998 100.342L49.9987 100.341Z" fill="black"/>
<path d="M50.5689 106.202C48.4551 105.579 51.0308 105.174 53.0005 104.828C62.65 103.13 64.8513 104.009 61.0431 104.715C58.4444 105.198 53.8368 106.018 50.5689 106.202Z" fill="black"/>
<path d="M50.9434 110.411C50.9572 109.604 52.639 109.442 60.9442 108.535C61.2195 108.505 61.4591 108.498 61.4983 108.767C61.557 109.173 61.3762 109.213 60.4178 109.415C59.1518 109.684 50.9227 111.633 50.9434 110.411Z" fill="black"/>
<path d="M73.0341 106.912C69.1418 105.946 80.6447 104.414 81.125 104.544C81.6676 104.692 81.6238 105.431 81.1688 105.565C80.8636 105.655 74.0501 106.854 73.0341 106.912Z" fill="black"/>
<path d="M50.7821 108.298C49.0151 107.223 58.1727 106.225 60.2427 106.219C60.6838 106.218 60.67 106.731 60.3901 106.803C59.3995 107.055 59.8522 107.141 54.7873 108.032C54.0316 108.164 51.3154 108.623 50.7821 108.298Z" fill="black"/>
<path d="M50.1302 102.518C49.8641 102.445 49.7904 102.151 50.0219 101.999C50.576 101.636 50.6774 101.615 53.9948 101.153C55.7112 100.915 57.7731 100.565 57.9631 101.107C58.0461 101.343 58.0415 101.432 57.8203 101.489C56.3044 101.878 51.3305 102.849 50.1291 102.518H50.1302Z" fill="black"/>
<path d="M81.7046 77.8311C81.4488 77.7078 81.4224 77.4636 81.6493 77.2839C82.0467 76.9706 83.2654 76.7759 83.816 76.6884C86.6566 76.2369 86.5667 76.3209 87.532 76.4903C88.8993 76.731 82.6687 78.2976 81.7046 77.8299V77.8311Z" fill="black"/>
<path d="M87.2292 78.1277C88.8775 78.5355 83.8553 79.8279 83.4763 79.1437C83.0029 78.289 86.2708 77.8904 87.2292 78.1277Z" fill="black"/>
<path d="M84.6361 80.6581C84.0383 80.711 83.7123 80.1892 84.4357 79.8817C85.0358 79.6271 86.7522 79.2378 87.3154 79.4428C88.5514 79.8932 85.9735 80.5394 84.6361 80.6581Z" fill="black"/>
<path d="M90.9478 123.374C90.9109 123.386 65.0634 131.059 65.9469 131.826C66.956 132.701 71.1777 135.528 71.7928 135.306C92.5731 127.792 96.978 127.759 97.2256 126.754C96.6059 126.331 91.5122 123.203 90.9478 123.374ZM90.752 123.751C91.0964 123.631 90.995 123.643 93.1053 124.833C93.4612 125.032 93.0039 125.07 89.486 126.039C89.0863 125.88 87.4944 124.945 87.3953 124.881C87.666 124.782 89.8247 124.075 90.7531 123.751H90.752ZM86.6639 125.116C87.0267 124.987 86.9449 125.022 88.7062 126.079C89.0299 126.274 88.8283 126.262 85.2159 127.377C85.1238 127.345 85.0213 127.334 84.9475 127.283C82.7808 125.835 82.8522 126.458 86.6639 125.116ZM82.7647 126.417C83.0354 126.318 82.9732 126.334 84.5916 127.433C84.6239 127.453 84.6446 127.488 84.6699 127.516C84.3935 127.672 81.8616 128.426 81.4688 128.617C81.1981 128.47 81.4481 128.644 79.8078 127.393C82.3016 126.562 82.1542 126.638 82.7658 126.417H82.7647ZM79.4369 127.666C81.0403 128.77 80.97 128.778 80.7396 128.854C80.022 129.089 78.6651 129.559 77.9521 129.81C77.5017 129.582 76.3878 128.716 76.2657 128.576C76.3878 128.507 79.1777 127.487 79.4369 127.666ZM75.8878 128.822C76.0606 128.95 77.14 129.778 77.3565 130.005C77.0524 130.21 76.0698 130.481 74.8742 130.97C74.5459 131.104 74.5943 131.046 73.015 129.818C72.9735 129.786 72.9436 129.738 72.9067 129.698C73.0265 129.641 75.6459 128.64 75.8867 128.821L75.8878 128.822ZM69.7747 130.686C72.3273 129.854 72.2893 129.757 72.5715 129.99C74.0644 131.221 74.2418 131.217 73.978 131.325C71.5947 132.302 71.7099 132.311 71.3424 132.038C69.587 130.733 69.5731 130.754 69.7747 130.687V130.686ZM66.569 131.761C66.6151 131.727 66.6542 131.674 66.7049 131.659C69.0628 130.889 69.0997 130.843 69.3289 131.01C70.8068 132.089 71.2319 132.412 71.0591 132.491C70.8391 132.592 69.299 133.305 69.0571 133.341C68.8048 133.245 66.7256 131.96 66.569 131.761ZM73.4401 134.242C71.6892 134.949 71.756 134.956 71.5671 134.847C69.4556 133.646 69.2875 133.616 69.5628 133.505C71.5256 132.718 71.5509 132.699 71.7168 132.819C73.7246 134.258 73.5668 134.191 73.4401 134.242ZM74.13 133.969C73.864 134.081 73.8467 133.934 72.105 132.592C72.2478 132.517 72.3861 132.424 72.537 132.365C74.5793 131.563 74.5286 131.543 74.7521 131.715C75.3914 132.212 75.927 132.612 76.4592 133.023C76.1125 133.202 75.2439 133.501 74.13 133.97V133.969ZM79.6407 131.93C76.9107 132.897 76.913 133.016 76.564 132.708C75.1207 131.431 74.9352 131.459 75.2174 131.348C77.7608 130.36 77.7804 130.309 77.9451 130.431C79.8066 131.806 79.8458 131.856 79.6407 131.93ZM83.4028 130.686C80.0934 131.757 80.2224 131.841 79.8895 131.547C78.2884 130.127 78.1939 130.191 78.4347 130.108C78.7008 130.016 81.0149 129.21 81.3075 129.074C81.5702 129.169 83.3729 130.409 83.5319 130.616C83.4904 130.64 83.4489 130.672 83.4028 130.686ZM87.3412 129.452C87.1097 129.595 84.8577 130.231 84.018 130.47C83.7427 130.549 83.9177 130.615 82.001 129.059C81.9503 129.02 81.9273 128.944 81.8927 128.886C83.1725 128.54 84.9948 127.731 85.2482 127.91C87.3642 129.41 87.2686 129.249 87.3412 129.451V129.452ZM87.7824 129.321C87.7386 129.302 87.6418 129.286 87.5704 129.233C85.6537 127.806 85.4164 127.725 85.8126 127.595C88.8617 126.593 88.5703 126.777 88.8767 126.625C89.4549 126.339 89.6139 126.57 91.8658 127.896C91.9626 127.951 92.0502 128.022 92.1412 128.087C91.8106 128.216 88.2996 129.265 87.7824 129.321ZM92.6929 127.96C92.208 127.776 90.1576 126.489 90.0136 126.31C90.305 126.118 93.5707 125.099 93.5937 125.099C93.6179 125.101 96.5161 126.609 96.7603 126.845C96.4585 127.062 96.7718 126.942 92.6929 127.96Z" fill="black"/>
<path d="M147.544 120.057C147.423 119.9 147.312 119.913 149.026 119.549C149.364 119.475 149.335 119.653 150.155 120.496C150.433 120.784 150.518 120.664 150.64 120.632C150.557 120.368 148.712 117.877 147.308 116.259C146.823 115.701 147.053 115.977 136.544 117.703C132.096 118.433 124.174 119.922 119.904 121.375C119.728 121.435 119.665 121.648 119.774 121.809C122.998 126.622 123.276 127.088 123.587 126.913C123.739 126.828 123.552 126.633 123.455 126.481C120.282 121.462 120.109 121.741 120.596 121.621C129.136 119.549 128.605 119.581 129.271 120.541C129.508 120.881 129.392 120.702 127.292 121.237C126.655 121.4 126.655 120.612 126.029 120.494C126.012 120.584 125.964 120.685 125.992 120.756C126.166 121.184 126.488 121.419 126.136 121.491C124.089 121.919 124.219 122.004 124.059 121.768C123.985 121.659 123.502 121.082 123.41 121.174C123.364 121.218 123.31 121.306 123.325 121.354C123.598 122.243 123.96 121.934 122.769 122.303C122.368 122.425 122.437 122.439 122.33 122.596C122.694 122.696 122.812 122.629 123.16 122.551C124.096 122.344 123.85 122.521 124.72 123.766C124.867 123.976 124.591 123.983 124.043 124.263C124.013 124.279 123.964 124.49 124.105 124.469C124.77 124.371 125.02 124.242 125.185 124.48C126.105 125.813 126.1 125.811 125.9 125.857C125.458 125.958 125.024 126.085 124.583 126.191C124.371 126.242 124.103 126.205 124.024 126.466C123.815 127.17 126.719 126.018 137.421 123.841C141.166 123.08 152.362 120.968 150.185 120.939C148.013 120.91 148.966 121.885 147.545 120.057H147.544ZM147.93 117.817C149.122 119.252 149.083 119.285 148.925 119.311C147.295 119.563 147.192 119.632 147.008 119.401C146.103 118.259 145.8 118.045 146.077 117.987C147.676 117.661 147.803 117.665 147.93 117.817ZM133.592 120.512C134.788 120.259 135.66 120.059 136.244 119.919C136.563 119.843 136.512 119.9 137.44 121.159C137.163 121.323 135.008 121.674 134.632 121.741C134.251 121.5 134.535 121.792 133.591 120.512H133.592ZM133.918 121.824C133.744 121.947 133.929 121.932 131.482 122.402C131.211 122.455 131.103 122.21 130.357 121.215C133.127 120.542 133.042 120.573 133.159 120.73C133.951 121.799 133.817 121.598 133.917 121.824H133.918ZM137.135 119.937C137.006 119.768 137.246 119.756 137.863 119.623C140.02 119.156 139.969 119.113 140.143 119.329C141.011 120.4 141.159 120.521 140.864 120.597C140.055 120.805 139.028 120.965 138.205 121.101C138.013 121.133 137.943 121.022 137.134 119.937H137.135ZM140.628 119.26C140.5 119.088 140.578 119.086 141.524 118.886C143.261 118.516 142.907 118.396 143.912 119.828C144.052 120.028 144.02 120.081 143.797 120.119C141.108 120.593 141.779 120.805 140.628 119.26ZM143.603 118.656C143.483 118.493 143.626 118.497 144.594 118.284C144.667 118.268 144.76 118.296 144.82 118.261C145.185 118.059 145.406 118.211 145.621 118.522C146.654 120.006 147.135 119.448 144.762 119.923C144.481 119.981 144.58 120.002 143.603 118.658V118.656ZM146.402 116.349C146.754 116.285 146.749 116.262 147.463 117.215C147.698 117.525 147.532 117.458 145.905 117.585C145.537 117.698 145.461 117.525 144.73 116.742C145.155 116.611 145.067 116.598 146.401 116.349H146.402ZM144.169 116.786C144.389 116.97 144.206 116.753 144.821 117.56C145.043 117.851 144.46 117.842 143.334 118.042C143.008 118.1 142.957 117.776 142.497 117.34C142.382 117.231 142.08 117.267 142.193 117.575C142.224 117.659 142.32 117.771 142.577 118.11C141.459 118.421 141.554 118.322 140.318 118.582C140.052 118.639 139.967 118.496 139.422 117.748C140.479 117.458 144.05 116.796 144.168 116.785L144.169 116.786ZM136.764 118.176C138.693 117.769 138.916 117.693 139.129 118.063C139.586 118.855 140.483 118.576 136.879 119.231C136.609 119.411 136.427 119.022 135.974 118.39C136.238 118.319 136.498 118.231 136.764 118.176ZM135.316 118.481C135.45 118.438 135.445 118.461 135.94 119.167C136.166 119.493 136.192 119.32 133.404 119.964C133.186 120.014 133.163 119.952 132.563 119.204C132.369 118.958 132.545 119.007 135.316 118.482V118.481ZM129.244 119.899C129.062 119.674 129.085 119.715 129.329 119.667C131.992 119.136 132.132 119.078 132.137 119.166C132.169 119.717 132.909 120.027 132.468 120.129C130.413 120.595 130.733 120.438 130.195 120.609C129.841 120.722 129.781 120.563 129.244 119.899ZM127.502 121.742C129.646 121.324 129.798 121.253 129.904 121.379C130.865 122.533 130.818 122.509 130.65 122.55C128.102 123.156 128.201 123.181 128.026 122.929C127.295 121.874 127.246 121.794 127.502 121.743V121.742ZM125.278 123.675C124.508 122.528 124.368 122.361 124.596 122.317C126.806 121.887 126.682 121.855 126.91 122.171C127.524 123.019 127.741 123.232 127.362 123.328C125.425 123.818 125.39 123.843 125.278 123.675ZM126.567 125.659C126.298 125.495 126.465 125.712 125.647 124.236C128.717 123.502 127.826 123.62 129.021 124.996C128.217 125.282 126.888 125.587 126.567 125.659ZM131.999 124.364C129.29 124.996 129.297 125.09 129.115 124.721C128.74 123.964 128.313 123.643 128.595 123.583C131.102 123.055 131.221 123.034 131.396 123.223C132.207 124.103 132.357 124.281 131.999 124.364ZM132.895 124.162C132.532 124.262 132.477 124.091 131.817 123.165C131.536 122.77 132.3 122.914 134.337 122.414C134.592 122.592 134.374 122.384 135.332 123.652C133.404 124.084 133.432 124.017 132.894 124.162H132.895ZM138.799 122.984C135.676 123.608 135.799 123.651 135.634 123.414C134.839 122.277 134.803 122.313 135.465 122.189C137.839 121.746 137.887 121.571 138.149 121.96C138.652 122.706 139.077 122.93 138.799 122.985V122.984ZM139.422 122.871C139.227 122.768 139.362 122.917 138.549 121.768C138.496 121.692 138.489 121.634 138.599 121.604C138.672 121.583 138.737 121.533 138.811 121.519C141.527 120.995 141.368 120.946 141.597 121.214C142.86 122.698 143.135 122.054 139.422 122.87V122.871ZM142.933 122.207C142.644 122.041 142.832 122.287 142.037 121.131C141.884 120.911 141.743 120.972 144.275 120.51C144.453 120.478 144.515 120.542 145.317 121.624C145.453 121.808 145.01 121.838 142.932 122.205L142.933 122.207ZM145.785 121.703C145.605 121.559 145.748 121.731 145.362 121.117C145.218 120.885 144.981 120.706 144.949 120.407C147.177 119.952 146.626 119.713 147.857 121.161C148.037 121.373 147.55 121.398 145.785 121.703Z" fill="black"/>
<path d="M204.778 113.289C201.769 109.9 202.107 110.18 201.269 110.325C201.246 110.329 190.033 112.104 190.01 112.108C178.173 114.208 178.517 113.917 178.219 114.441C178.085 114.674 179.724 116.799 179.895 117.007C180.664 117.942 180.973 118.607 181.553 118.404C183.96 118.275 182.029 117.859 200.067 114.833C205.026 114.001 205.391 113.978 204.78 113.29L204.778 113.289ZM201.129 110.815C201.333 110.801 201.755 110.54 202.19 111.152C202.73 111.915 203.416 112.136 202.257 112.201C201.841 111.986 202.137 112.313 201.061 110.948C200.989 110.859 201.031 110.822 201.128 110.815H201.129ZM198.945 111.162C200.337 110.919 200.42 110.836 200.621 111.086C201.616 112.338 201.941 112.146 199.926 112.411C199.765 112.432 199.656 112.395 199.552 112.243C199.035 111.479 198.587 111.225 198.945 111.16V111.162ZM196.15 111.626C198.303 111.224 198.278 111.203 198.43 111.429C198.557 111.615 198.703 111.792 198.811 111.99C198.908 112.164 199.211 112.267 199.1 112.482C199.043 112.59 198.967 112.578 196.682 112.889C196.389 112.975 196.214 112.648 195.623 111.788C195.798 111.733 195.969 111.663 196.149 111.627L196.15 111.626ZM194.924 111.842C195.24 111.721 195.753 112.736 195.877 112.971C195.792 113.013 195.709 113.071 195.619 113.089C193.277 113.493 193.282 113.534 193.162 113.321C193.042 113.105 193.123 113.287 192.43 112.218C193.213 112.065 192.513 112.168 194.924 111.843V111.842ZM191.72 112.316C192.009 112.267 191.879 112.302 192.621 113.42C192.736 113.596 192.807 113.522 190.512 113.922C190.21 113.702 190.454 113.972 189.593 112.794C189.482 112.642 189.404 112.688 191.721 112.316H191.72ZM188.893 112.789C189.108 112.757 189.154 112.821 189.801 113.848C189.993 114.157 187.875 114.363 187.657 114.379C187.341 114.455 186.83 113.499 186.678 113.217C186.901 113.129 186.664 113.136 188.893 112.789ZM185.856 113.316C186.341 113.187 186.384 113.52 186.743 114.085C187.073 114.607 187.124 114.457 185.033 114.843C184.79 114.887 184.654 114.79 184.532 114.575C184.385 114.311 184.173 114.083 184.01 113.828C183.751 113.424 184.683 113.631 185.856 113.317V113.316ZM181.473 114.037C183.311 113.727 183.466 113.688 183.549 113.805C183.766 114.113 183.974 114.432 184.172 114.754C184.268 114.913 184.225 115.018 184.066 115.048C181.909 115.462 181.92 115.524 181.756 115.225C181.292 114.375 180.867 114.14 181.473 114.037ZM178.962 114.77C178.678 114.382 178.936 114.433 180.391 114.242C180.675 114.076 180.777 114.538 181.345 115.351C181.521 115.605 181.373 115.6 180.014 115.866C179.748 115.919 179.718 115.809 178.962 114.77ZM181.174 117.921C179.95 116.104 180.025 116.251 180.297 116.212C182.096 115.953 181.48 115.615 182.789 117.581C181.421 118.038 181.316 118.134 181.174 117.921ZM185.445 117.004C183.328 117.512 182.976 117.639 182.955 117.501C182.872 116.949 182.334 116.365 182.268 116.09C182.203 115.821 182.293 115.894 184.523 115.515C184.574 115.55 184.706 115.593 184.775 115.687C185.642 116.862 185.694 116.943 185.445 117.003V117.004ZM186.136 116.81C185.911 116.856 186.018 116.9 185.184 115.598C185.04 115.375 185.193 115.419 187.103 115.025C187.438 115.027 187.443 115.085 188.119 116.101C188.37 116.478 188.181 116.382 186.136 116.81ZM188.823 116.242C188.607 116.302 188.481 116.036 187.95 115.166C187.73 114.807 187.936 114.86 189.848 114.502C190.107 114.454 190.306 114.488 190.467 114.761C190.658 115.088 190.933 115.361 191.167 115.66C191.356 115.903 191.1 115.859 188.823 116.241V116.242ZM191.692 115.738C191.663 115.713 191.548 115.651 191.482 115.555C190.675 114.4 190.697 114.367 191.013 114.305C193.01 113.905 192.953 113.949 193.075 114.099C193.348 114.439 193.886 115.19 194.026 115.386C193.305 115.536 193.958 115.441 191.694 115.74L191.692 115.738ZM197.316 114.941C194.795 115.299 194.545 115.378 194.393 115.161C193.453 113.828 193.506 113.831 193.698 113.801C196.32 113.408 196.233 113.339 196.337 113.471C197.406 114.864 197.497 114.913 197.316 114.94V114.941ZM199.702 114.59C197.994 114.865 197.847 114.946 197.65 114.626C196.958 113.513 196.544 113.314 197.084 113.225C200.003 112.74 199.141 112.478 200.561 114.241C200.72 114.438 200.412 114.476 199.702 114.59ZM201.193 114.296C200.905 114.353 200.988 114.36 200.069 112.947C199.831 112.577 200.375 112.671 201.107 112.671C201.911 112.393 202.316 113.101 202.981 113.887C203.172 114.114 202.698 113.987 201.193 114.296ZM203.542 113.91C203.279 113.934 203.236 113.776 202.448 112.706C202.316 112.527 202.445 112.554 203.112 112.389C203.509 112.577 203.214 112.28 204.442 113.536C204.7 113.797 203.996 113.869 203.541 113.91H203.542Z" fill="black"/>
<path d="M146.322 144.068C144.449 132.822 137.196 131.185 126.78 132.7C101.598 136.361 106.18 150.794 103.12 167.444C103.05 167.818 103.014 167.744 101.896 168.037C99.0971 168.765 93.6578 170.45 91.3275 171.904C89.602 172.982 88.3994 174.22 88.0527 176.224C87.8615 177.329 87.9099 179.094 87.9513 179.31C89.7782 188.686 109.672 188.635 114.5 188.564C115.043 188.555 115.034 188.636 115.05 188.776C115.595 193.709 115.907 199.461 115.879 200.151C115.856 200.698 115.675 201.265 114.907 201.826C111.516 204.305 101.972 206.939 99.233 209.933C98.118 211.151 97.9487 212.411 99.5567 213.21C99.7433 213.304 99.5037 213.536 99.3874 213.713C97.5835 216.448 101.361 219.289 103.466 216.861C104.342 215.85 104.39 214.487 103.496 213.409C103.317 213.195 103.323 213.189 103.569 213.067C108.857 210.441 110.849 209.363 113.544 208.425C116.615 207.356 116.593 207.097 116.522 207.819C116.005 213.106 115.808 214.016 117.494 214.679C117.931 214.849 117.735 214.674 117.809 216.864C117.834 217.659 118.473 218.405 119.078 218.527C120.988 218.911 122.286 218.762 121.907 214.811C121.818 213.908 123.454 214.658 123.316 212.136C123.247 210.859 122.803 209.39 122.55 207.492C122.513 207.221 122.435 207.097 123.342 207.071C126.992 206.97 132.609 207.351 136.158 208.241C136.322 208.282 136.276 208.34 136.204 208.418C134.872 209.852 135.07 211.4 136.121 212.363C138.045 214.123 140.989 212.412 140.463 209.859C140.222 208.683 139.404 208.508 140.188 208.342C141.231 208.12 141.987 206.358 139.391 204.91C134.649 202.266 122.204 202.084 122.183 200.654C122.14 197.697 122.549 193.623 122.855 190.681C123.128 188.059 122.976 188.177 123.459 188.138C132.552 187.382 140.386 185.013 143.425 176.562C145.003 172.171 147.73 152.532 146.323 144.066L146.322 144.068ZM98.9416 175.542C96.791 176.983 94.2119 177.576 92.2813 175.853C89.2576 173.153 98.3346 170.469 102.28 169.533C102.464 169.49 102.556 169.584 102.499 169.743C101.494 172.508 100.711 174.358 98.9416 175.543V175.542ZM124.867 202.611C127.986 203.119 136.966 204.124 139.49 205.939C140.028 206.327 140.501 206.847 140.137 207.341C139.13 208.706 136.187 206.16 122.948 206.059C122.121 206.053 122.317 206.098 122.281 203.976C122.274 203.535 121.919 203.579 121.803 203.83C121.449 204.602 121.617 207.027 121.783 208.101C122 209.51 122.341 210.847 122.386 212.415C122.407 213.185 122.313 213.57 120.24 213.861C118.398 214.12 116.861 213.992 116.97 212.142C117.03 211.088 117.833 203.463 116.779 203.541C116.453 203.564 116.533 203.818 116.538 205.196C116.54 206.088 116.591 206.244 116.012 206.444C106.593 209.705 103.497 212.885 100.863 212.575C98.8921 212.345 98.9785 211.224 100.479 210.055C103.197 207.933 113.612 203.718 115.145 202.653C116.85 201.467 116.692 200.253 116.635 198.403C116.552 195.724 116.286 191.271 116.095 189.331C115.974 188.116 115.979 188.855 120.036 188.396C120.604 188.331 121.176 188.304 121.746 188.272C122.049 188.256 122.075 188.268 122.054 188.589C121.923 190.57 121.324 195.622 121.447 200.418C121.475 201.456 121.664 202.723 122.14 201.989C122.38 201.62 122.101 202.164 124.867 202.614V202.611Z" fill="black"/>
<path d="M211.776 126.426C209.904 115.18 202.651 113.543 192.234 115.058C167.052 118.719 171.635 133.152 168.573 149.802C168.504 150.176 168.468 150.102 167.351 150.395C164.552 151.123 159.112 152.808 156.782 154.262C155.055 155.34 153.854 156.578 153.507 158.583C153.316 159.687 153.364 161.452 153.406 161.669C155.233 171.044 175.126 170.993 179.955 170.923C180.497 170.914 180.488 170.996 180.504 171.135C181.049 176.068 181.361 181.82 181.334 182.51C181.311 183.057 181.13 183.624 180.362 184.185C176.969 186.665 167.427 189.298 164.686 192.292C163.573 193.511 163.402 194.77 165.011 195.569C165.198 195.663 164.958 195.895 164.841 196.072C163.037 198.807 166.815 201.646 168.92 199.221C169.795 198.209 169.844 196.846 168.95 195.768C168.77 195.554 168.777 195.548 169.022 195.426C174.309 192.8 176.302 191.722 178.998 190.784C182.069 189.715 182.047 189.456 181.975 190.178C181.459 195.454 181.258 196.374 182.948 197.038C183.384 197.207 183.188 197.033 183.262 199.223C183.287 200.018 183.927 200.764 184.53 200.886C186.44 201.27 187.738 201.121 187.359 197.17C187.271 196.267 188.906 197.017 188.768 194.495C188.699 193.218 188.255 191.749 188.002 189.851C187.965 189.579 187.887 189.456 188.795 189.431C192.444 189.329 198.062 189.71 201.611 190.601C201.774 190.642 201.728 190.699 201.657 190.777C200.324 192.211 200.522 193.759 201.574 194.722C203.497 196.482 206.442 194.771 205.915 192.218C205.675 191.042 204.856 190.867 205.64 190.701C206.684 190.479 207.439 188.717 204.843 187.27C200.102 184.625 187.657 184.443 187.636 183.014C187.592 180.056 188.001 175.982 188.307 173.041C188.581 170.42 188.429 170.536 188.912 170.498C198.005 169.742 205.839 167.373 208.877 158.922C210.456 154.531 213.184 134.893 211.775 126.426H211.776ZM164.396 157.9C162.244 159.341 159.666 159.934 157.736 158.211C154.712 155.511 163.789 152.827 167.734 151.891C167.919 151.847 168.01 151.942 167.952 152.101C166.948 154.865 166.164 156.715 164.395 157.901L164.396 157.9ZM190.322 184.97C193.441 185.477 202.422 186.482 204.944 188.298C205.482 188.686 205.954 189.206 205.592 189.7C204.585 191.065 201.641 188.519 188.403 188.418C187.574 188.412 187.771 188.453 187.736 186.335C187.729 185.894 187.373 185.938 187.258 186.189C186.904 186.961 187.071 189.386 187.237 190.46C187.456 191.869 187.796 193.206 187.842 194.774C187.863 195.544 187.768 195.93 185.696 196.22C183.851 196.479 182.315 196.348 182.426 194.501C182.486 193.447 183.289 185.822 182.235 185.9C181.909 185.923 181.989 186.178 181.994 187.555C181.996 188.447 182.047 188.603 181.467 188.803C172.048 192.064 168.953 195.244 166.319 194.934C164.348 194.704 164.434 193.583 165.935 192.414C168.652 190.292 179.068 186.077 180.601 185.012C182.306 183.827 182.148 182.612 182.091 180.762C182.008 178.083 181.74 173.63 181.55 171.69C181.429 170.475 181.435 171.214 185.491 170.755C186.059 170.69 186.631 170.663 187.2 170.632C187.503 170.615 187.529 170.627 187.509 170.948C187.378 172.93 186.778 177.981 186.902 182.777C186.93 183.815 187.119 185.082 187.594 184.348C187.835 183.979 187.555 184.523 190.322 184.974V184.97Z" fill="black"/>
<path d="M171.226 45.9691C174.237 42.8417 187.28 29.4416 187.303 29.4186C187.714 29.0027 187.623 14.6305 187.604 14.2999C187.572 13.7366 187.781 13.5419 188.054 13.5327C188.366 13.5212 188.498 13.7193 188.546 13.9716C188.595 14.2238 188.5 14.7434 188.475 27.1942C188.472 28.451 188.151 29.0926 188.72 29.5314L201.421 39.4009C211.202 47.076 210.865 45.9264 202.207 46.2513C169.959 47.4596 168.962 48.3201 171.225 45.9691H171.226Z" fill="black"/>
<path d="M95.9584 46.3048C95.6071 45.9673 95.4677 45.8532 96.2752 44.8937C97.0827 43.9342 109.507 30.6896 110.484 29.6506C111.269 28.8143 111.256 28.7752 111.244 28.5379C111.02 23.6872 110.653 11.9712 110.688 11.7144C110.744 11.3009 111.327 11.3032 111.373 11.7236C111.781 15.5145 111.789 28.3996 112.375 28.8189C132.467 43.1912 134.693 44.1761 132.076 44.1761C132.074 44.1208 96.6381 46.9567 95.9584 46.3036V46.3048Z" fill="black"/>
<path d="M36.9582 29.281C36.9582 29.7936 36.9928 29.8132 37.1748 29.9249C57.3584 42.2641 57.955 42.847 55.2919 43.2352C37.7231 45.797 21.9801 48.7309 21.2993 48.3646C20.3628 47.86 22.8509 46.1022 35.9929 30.0355C36.1565 29.8363 36.2095 29.7026 36.2095 29.3502C36.2095 28.9574 35.5368 12.2848 35.5402 12.2617C35.6116 11.8793 36.1715 11.6777 36.3627 12.1627C36.5067 12.5278 36.9582 28.9931 36.9582 29.281Z" fill="black"/>
</svg>
