<svg width="231" height="231" viewBox="0 0 231 231" fill="none" xmlns="http://www.w3.org/2000/svg">
<path d="M76.0871 83.9207C73.88 97.1538 54.9324 106.193 39.5118 103.621C24.0913 101.05 10.4866 87.2781 12.6936 74.0451C14.9007 60.812 32.1356 50.8367 47.5561 53.4086C62.9767 55.9805 78.2941 70.6877 76.0871 83.9207Z" fill="white"/>
<path d="M135.085 170.199C132.646 162.818 135.507 154.685 142.348 150.992C147.004 148.479 152.355 145.859 156.924 144.323C159.987 143.292 163.602 142.446 167.243 141.759C177.524 139.821 186.163 148.664 185.226 159.083L184.204 170.436C183.591 177.252 178.95 183.036 172.429 185.112L159.121 189.348C150.243 192.174 140.746 187.329 137.823 178.483L135.085 170.199Z" fill="white"/>
<path d="M57.5285 162.948C56.517 156.409 61.4658 150.463 68.0799 150.271L115.486 148.894C120.959 148.735 125.716 152.626 126.646 158.022L133.272 196.488C134.414 203.121 129.385 209.215 122.656 209.353L74.5127 210.335C69.0028 210.448 64.2601 206.465 63.4176 201.019L57.5285 162.948Z" fill="white"/>
<path d="M103.961 87.3049C104.103 75.0584 112.089 64.3345 123.818 60.8089C127.184 59.797 130.569 58.8804 133.567 58.2522C136.918 57.5501 140.831 56.9893 144.733 56.5455C157.02 55.1483 168.762 61.9587 173.197 73.5016C174.93 78.0108 176.488 82.7271 177.338 86.8715C178.135 90.758 178.559 95.3673 178.765 99.9015C179.327 112.331 171.163 123.275 159.265 126.915C154.309 128.432 149.117 129.847 144.648 130.698C141.916 131.218 138.842 131.645 135.689 131.993C121.148 133.602 107.891 123.684 105.456 109.258C105.012 106.63 104.648 104.064 104.421 101.724C104.002 97.3953 103.903 92.265 103.961 87.3049Z" fill="white"/>
<path d="M224.697 213.82C225.326 213.852 225.453 214.737 224.846 214.783C223.795 214.863 125.6 214.083 74.7163 215.663C36.1023 216.862 36.3753 218.276 36.1115 217.216C35.0345 212.878 205.025 212.812 224.697 213.821V213.82Z" fill="black"/>
<path d="M137.349 35.7405C137.371 35.9236 137.451 36.1333 137.722 36.1425C138.414 36.1655 138.356 35.9133 140.191 26.9123C141.707 19.4837 142.353 15.3933 142.599 13.5146C141.556 11.7325 137.07 33.4275 137.349 35.7405Z" fill="black"/>
<path d="M120.983 41.4345C121.094 41.3561 121.136 41.1788 121.212 41.0417C121.12 40.7975 121.061 40.5832 120.961 40.3885C98.2107 -4.14847 118.712 43.016 120.983 41.4345Z" fill="black"/>
<path d="M172.088 24.3591C171.515 23.9087 157.89 37.4769 157.203 39.085C157.196 39.6379 157.522 39.8579 157.926 39.6621C159.172 39.0608 172.77 24.8947 172.086 24.358L172.088 24.3591Z" fill="black"/>
<path d="M107.269 50.4617C100.877 47.2536 93.9221 44.4614 91.8729 43.2588C91.2071 42.8683 91.3073 42.9812 91.0688 43.0296C91.6874 44.2829 102.702 50.032 107.286 51.6412C107.933 51.5491 108.184 50.9201 107.269 50.4617Z" fill="black"/>
<path d="M155.641 67.303C145.229 67.879 121.054 73.119 111.545 79.2114C105.625 83.0046 105.878 87.5304 107.092 94.4545C109.447 107.889 111.111 110.203 129.752 106.314C140.727 104.024 143.377 103.283 150.73 101.216C165.764 96.9898 171.247 96.0072 164.853 74.9493C163.45 70.3279 160.352 67.0427 155.641 67.303ZM115.05 95.4059C112.307 88.8574 116.149 82.4355 120.895 84.5066C123.21 85.5169 124.753 88.0453 125.292 90.159C127.795 99.9675 118.627 103.944 115.05 95.4059ZM149.485 92.4525C143.618 90.3214 141.818 79.8426 146.299 76.3662C148.923 74.3296 151.97 75.9054 153.935 78.6815C158.645 85.336 154.743 94.3623 149.485 92.4525Z" fill="black"/>
<path d="M150.13 112.215C149.722 110.595 148.748 107.096 147.301 107.927C146.986 108.002 146.096 109.267 145.911 109.536C144.874 111.039 144.435 111.357 142.92 112.338C141.015 113.568 140.194 113.639 138.211 113.811C137.385 113.885 137.404 113.897 136.717 113.866C135.012 113.787 135.204 114.646 135.853 114.956C137.325 115.653 138.487 115.522 140.133 115.398C141.566 115.29 143.277 114.492 145.224 113.023C146.913 111.748 147.407 110.391 147.599 110.166C147.685 110.215 147.858 110.695 148.097 111.361C150.314 117.548 146.918 121.207 143.725 120.654C142.008 120.356 141.74 120.026 141.323 120.534C141.13 120.771 141.223 121.334 141.793 121.649C146.778 124.382 151.988 119.6 150.13 112.218V112.215Z" fill="black"/>
<path d="M142.835 61.8081C146.527 55.3875 151.689 61.231 151.744 58.713C151.78 58.4642 151.661 58.2373 151.414 58.091C145.812 54.7735 140.895 59.9582 141.585 61.9855C141.763 62.5097 142.372 62.6145 142.835 61.8081Z" fill="black"/>
<path d="M113.453 72.9144C113.512 72.7439 113.532 72.5585 113.584 72.388C114.602 69.1558 116.409 70.0531 117.54 69.544C118.368 69.1708 117.828 68.1202 116.922 68.0546C113.385 67.7988 111.684 71.6715 112.473 73.2611C112.698 73.7115 113.188 73.6839 113.453 72.9144Z" fill="black"/>
<path d="M185.417 176.674C183.268 176.347 176.447 179.889 159.843 182.973C155.268 183.821 143.926 185.33 139.711 183.44C139.249 183.233 139.088 183.998 139.569 184.255C148.432 188.968 190.483 177.445 185.418 176.674H185.417Z" fill="black"/>
<path d="M203.923 185.979C203.597 185.412 202.59 185.578 202.586 186.346C202.584 187.082 203.605 187.224 203.921 186.68C204.045 186.468 204.046 186.193 203.923 185.979Z" fill="black"/>
<path d="M187.847 198.863H187.729V198.875C187.045 199.002 186.91 200.22 187.798 200.257C187.951 200.264 188.099 200.198 188.238 200.068C188.81 199.537 188.299 198.873 187.847 198.863Z" fill="black"/>
<path d="M201.597 162.047C201.296 162.026 200.903 162.362 200.889 162.671C200.865 163.064 201.191 163.457 201.564 163.461C201.857 163.465 202.239 163.141 202.279 162.853C202.325 162.516 201.945 162.071 201.598 162.047H201.597Z" fill="black"/>
<path d="M152.163 174.885C157.787 173.934 164.249 172.328 169.7 169.862C173.623 168.087 181.389 164.98 179.22 155.481C178.445 152.087 176.283 149.223 172.194 148.879C168.013 148.526 159.841 150.15 152.488 152.498C149.26 153.529 135.937 157.377 136.692 167.022C137.368 175.665 143.616 176.332 152.163 174.885ZM144.72 166.024C145.419 165.84 145.108 165.68 145.517 164.503C146.047 162.98 146.742 160.091 146.742 160.091C146.983 159.514 147.666 159.482 148.241 160.559C152.971 169.415 150.641 166.859 151.744 158.192C151.845 157.392 152.487 157.13 153.148 157.611C153.754 158.054 154.421 158.913 154.727 159.201C158.047 162.316 157.555 163.227 158.161 162.852C159.14 162.248 161.644 161.607 162.37 161.627C162.96 161.642 163.267 156.416 163.777 154.69C164.552 152.062 166.871 157.513 167.811 160.087C169.23 163.97 169.173 164.232 169.283 159.44C169.323 157.691 168.942 157.99 172.845 156.535C174.278 156.002 174.501 156.045 175.063 156.075C175.192 156.081 175.226 156.235 175.135 156.338C173.711 157.965 170.539 158.363 170.5 159.154C170.418 160.77 170.314 162.237 170.12 163.919C169.973 165.196 168.962 165.569 168.438 164.723C167.455 163.138 165.25 156.583 164.636 156.065C164.49 156.277 164.429 157.05 164.424 157.092C163.755 163.54 164.6 161.425 159.001 163.867C157.516 164.515 157.426 163.662 152.898 159.258C152.311 168.076 152.573 167.835 152.306 168.659C152.149 169.139 151.592 169.273 151.243 168.903C150.504 168.119 147.583 160.763 147.34 161.844C146.472 165.717 146.866 163.777 146.379 165.698C146.079 166.889 145.096 166.983 140.686 168.334C140.517 168.386 140.308 168.269 140.284 168.212C140.014 167.576 144.081 166.191 144.717 166.024H144.72Z" fill="black"/>
<path d="M221.115 170.626C217.67 159.813 200.789 135.117 192.081 140.512C191.33 140.978 192.223 139.71 183.458 138.959C168.477 137.68 173.957 142.065 170.115 133.6C169.82 132.949 170.906 133.615 179.669 129.212C184.614 126.729 187.122 124.977 191.363 120.497C196.881 114.67 198.178 105.215 198.169 103.266C198.164 102.31 199.663 103.218 202.454 101.982C203.668 101.443 206.51 99.6663 207.667 97.8405C209.266 95.3156 209.105 88.8546 208.876 86.1096C208.775 84.9059 208.508 84.8275 209.275 84.5568C215.454 82.3751 215.873 80.0264 215.841 76.9773C215.719 65.6979 204.23 40.8457 204.818 40.2271C207.233 37.6872 205.79 33.8675 202.76 33.0658C196.406 31.3863 194.376 40.4506 200.869 41.6013C201.015 41.6255 206.141 60.4591 207.211 68.4924C207.342 69.4842 207.36 72.4792 206.567 73.0401C206.021 73.4249 206.219 72.8478 205.239 70.9322C199.443 59.594 188.473 67.7414 187.834 66.6448C182.983 58.2947 178.338 53.1641 167.275 51.093C157.335 49.2304 133.24 51.4558 117.149 58.6022C111.109 61.2861 102.703 67.6227 100.758 73.9398C99.042 79.5069 97.9915 81.9224 98.4799 92.6731C98.6722 96.9386 99.3691 100.316 100.166 104.262C105.779 132.045 114.348 136.839 129.161 138.511C136.082 139.291 135.803 139.167 139.668 138.872C151.221 137.994 150.838 137.225 150.875 138.256C150.926 139.594 151.555 142.038 151.834 143.347C145.465 146.26 139.318 148.904 135.125 153.448C133.238 153.288 131.414 153.759 129.669 154.701C129.775 155.128 129.877 155.564 129.977 156.013C130.978 155.479 132.15 155.015 133.601 154.726C133.769 154.692 133.935 154.667 134.099 154.653C132.732 156.382 131.64 158.382 130.883 160.732C131.09 161.956 131.292 163.244 131.493 164.594C132.115 160.919 133.501 157.499 135.879 154.782C137.517 152.872 140.022 150.774 143.405 148.926C166.647 136.208 190.57 141.283 189.568 141.401C180.901 142.452 182.989 169.489 191.393 174.805C192.059 175.227 192.617 175.422 192.71 175.618C193.538 177.397 194.477 177.535 193.977 177.95C189.733 181.475 183.753 190.707 183.346 190.254C182.267 189.052 179.939 187.936 178.464 187.582C172.773 186.215 167.085 187.678 161.598 189.786C152.355 193.339 153.126 197.018 151.822 196.856C146.477 196.205 142.026 193.634 139.655 191.697C137.672 190.075 135.862 187.506 134.421 184.417C134.605 185.564 134.791 186.774 135.035 188.473C136.02 189.921 137.085 191.164 138.188 192.211C137.731 194.025 137.601 194.813 137.354 194.456C136.918 193.82 136.307 193.124 135.581 192.402C135.769 193.788 135.986 195.418 136.239 197.353C137.891 196.761 138.427 195.451 139.204 193.117C144.759 197.773 150.845 198.119 151.737 197.87C152.051 197.785 152.156 197.907 152.066 198.224C151.893 198.841 151.756 199.32 151.586 201.69C151.475 203.238 151.417 204.551 151.391 205.683C155.66 205.608 160.234 205.557 164.116 205.618C163.865 205.112 164.445 204.325 164.855 203.998C166.781 202.467 166.831 202.426 166.956 202.355C167.241 202.198 167.036 201.7 166.665 201.827C163.429 202.921 165.412 202.073 162.79 203.328C161.889 203.76 161.723 203.806 161.557 203.795C159.517 203.684 162.144 200.244 165.807 199.903C166.109 199.877 166.297 199.43 166.098 199.302C164.752 198.437 161.852 200.901 160.836 200.89C160.214 200.883 159.973 200.289 160.733 199.525C167.821 192.418 173.716 202.476 175.749 202.039C177.08 201.748 177.182 201.525 177.38 202.012C178.787 205.443 178.724 205.22 178.214 205.288C176.177 205.561 176.684 205.554 175.236 205.664C173.364 205.51 171.372 205.106 169.856 203.997C169.105 203.445 167.936 204.274 166.912 204.779C166.093 205.181 165.56 205.457 165.186 205.638C168.637 205.714 171.415 205.893 172.708 206.245C173.962 206.586 174.387 208 174.39 208.895C174.412 214.916 175.33 212.691 160.441 214.04C160.089 214.073 156.995 214.18 152.718 214.319C155.239 215.1 164.357 214.176 193.691 214.301C195.288 214.308 195.317 214.703 195.476 214.432C196.266 213.072 194.008 206.617 193.394 205.368C193.233 205.04 193.239 205.031 193.584 204.907C199.667 202.723 206.48 200.035 213.195 195.27C216.279 193.084 221.078 188.504 219.053 185.341C217.773 183.34 217.329 183.873 217.587 182.967C218.295 180.485 217.885 179.021 217.118 177.146C219.465 175.368 222.012 173.439 221.117 170.629L221.115 170.626ZM197.999 37.8657C197.532 36.2888 198.776 34.1727 201.098 33.9078C202.927 33.6993 204.475 34.9698 204.87 36.3786C206.102 40.7731 199.253 42.1381 197.999 37.8657ZM204.327 75.4338C210.143 73.6645 210.2 73.1162 205.345 53.4475C202.403 41.5172 201.911 41.6704 202.408 41.5069C204.387 40.8584 203.507 40.9263 204.146 42.6208C206.249 48.1798 217.419 76.2367 213.313 80.2579C211.032 82.4926 209.154 82.8566 206.123 83.9383C204.421 84.5419 202.069 85.142 201.092 83.6261C200.368 82.5076 199.859 81.3027 199.552 80.0264C199.386 79.341 199.548 78.6153 199.864 77.9668C200.159 77.3667 202.177 76.0904 204.327 75.4338ZM198.806 69.5395C199.897 69.1824 200.65 70.3205 199.792 70.643C199.154 70.8815 198.923 70.6833 197.941 71.4229C195.104 73.555 198.422 85.8043 199.292 89.2911C199.665 90.7852 200.615 93.7294 202.15 93.7167C202.932 93.711 203.667 92.8033 203.939 91.527C204.386 89.4225 204.353 86.6199 205.444 86.9125C206.681 87.2396 206.527 93.9137 203.511 95.2522C201.698 96.0551 199.528 95.3559 198.404 92.4001C197.013 88.7405 195.314 80.4215 195.314 75.9256C195.093 72.6715 196.366 70.3366 198.806 69.5395ZM185.208 70.4714C186.38 68.8553 187.745 68.4682 191.415 67.2346C192.025 67.0295 192.656 66.8913 193.28 66.7346C193.387 66.7081 193.512 66.7462 193.629 66.7565C190.251 70.8342 190.014 72.857 192.41 84.3944C194.523 94.5657 195.269 97.4927 196.986 99.118C199.338 101.35 201.385 100.468 201.027 100.678C200.388 101.053 199.659 101.067 197.073 101.331C189.44 102.108 188.372 103.21 184.694 82.6631C183.879 78.1154 183.139 73.3247 185.208 70.4691V70.4714ZM148.051 134.821C141.077 136.743 132.237 137.987 124.969 136.407C115.924 134.442 111.742 132.637 107.101 122.531C105.48 118.999 105.275 119.231 104.713 117.18C102.846 110.39 101.168 102.767 100.539 98.7816C100.033 95.5667 99.694 88.9398 99.8207 88.9352C99.8207 74.9546 103.87 68.6664 112.09 63.2375C118.336 59.1091 126.586 56.5184 131.971 55.2652C140.027 53.391 150.79 52.1009 151.872 52.1009C157.478 52.0986 159.688 52.0479 164.719 55.135C177.354 62.893 184.112 95.8627 180.222 110.099C178.479 116.474 174.148 122.928 168.177 126.597C165.25 128.393 154.238 133.115 148.05 134.818L148.051 134.821ZM152.808 137.607C152.715 136.963 153.817 136.323 155.833 135.85C155.934 135.826 166.088 133.579 167.293 134.538C167.418 134.638 167.487 134.773 167.486 134.922C167.486 135.248 167.208 135.271 166.985 135.288C162.341 135.665 153.982 138.009 153.437 138.04C153.141 138.062 152.85 137.903 152.807 137.606L152.808 137.607ZM169.985 138.812C169.914 138.976 169.771 139.113 168.731 139.135C165.527 139.205 155.472 141.931 154.386 142.185C154.315 142.203 154.227 142.189 154.155 142.141C153.92 141.983 153.726 141.869 153.674 141.628C153.58 141.19 154.152 140.776 154.591 140.645C162.898 138.106 170.527 137.571 169.985 138.812ZM202.772 145.458C206.458 149.14 212.857 156.031 215.875 162.617C208.792 162.966 205.278 164.457 203.09 164.913C200.438 165.465 199.91 164.992 197.952 160.824C193.821 152.037 194.984 149.534 196.694 146.303C197.345 145.075 199.182 144.302 200.687 144.674C201.687 144.923 201.944 144.633 202.772 145.458ZM216.16 191.185C213.179 194.51 206.408 198.057 202.287 200.079C197.6 202.38 189.13 204.982 188.829 205.04C188.052 205.191 188.654 204.662 186.708 202.665C183.089 198.948 186.002 198.197 192.325 193.093C196.38 189.819 198.848 186.391 200.876 184.757C201.918 183.916 202.892 183.335 205.793 184.18C210.658 185.595 216.698 190.585 216.16 191.185ZM218.292 186.918C218.365 187.964 217.688 189.263 217.191 189.93C216.794 190.464 213.95 185.786 207.091 183.537C199.616 181.084 199.506 185.896 190.274 193.464C187.992 195.333 186.445 196.323 185.301 197.808C184.523 198.814 183.424 199.804 184.538 201.829C185.16 202.96 186.493 203.932 187.005 205.039C187.458 206.024 187.249 205.181 180.467 207.589C180.234 207.671 180.185 207.656 180.133 207.432C179.778 205.831 179.21 202.345 177.664 200.366C177.374 199.993 177.094 200.001 177.299 199.801C183.606 193.626 183.502 191.896 190.312 183.69C193.807 179.479 195.174 177.129 200.307 177.129C202.788 176.956 210.17 179.224 217.031 184.828C217.789 185.447 218.215 185.822 218.291 186.916L218.292 186.918ZM203.567 176.208C206.072 174.337 209.241 174.011 211.973 175.048C216.278 176.681 216.669 178.838 216.387 182.182C216.302 183.189 215.103 180.712 207.688 177.727C204.68 176.518 204.261 176.591 203.567 176.208ZM194.836 175.514C194.283 175.907 194.321 175.941 194.041 175.38C190.234 167.744 188.57 159.342 188.102 151.929C188.249 149.784 188.156 146.597 190.968 142.991C192.877 140.543 195.928 140.668 198.176 142.043C198.814 142.43 199.429 142.86 200.045 143.279C201 143.925 198.381 142.871 196.384 145.09C190.657 151.453 198.005 165.042 200.35 165.966C202.919 166.977 204.45 165.308 214.904 163.736C216.476 163.5 216.391 163.511 216.485 163.69C216.948 164.552 216.636 163.858 219.285 169.069C219.936 170.349 220.104 170.701 219.768 170.611C214.5 169.227 201.303 170.926 194.836 175.514Z" fill="black"/>
<path d="M123.054 215.001C74.3362 215.89 68.1689 216.045 64.1188 211.138C59.3845 205.401 53.4626 165.852 53.7656 156.588C54.1134 145.918 61.3428 145.059 119.325 143.351C129.925 143.038 130.514 154.385 133.59 175.58C135.262 187.103 134.79 181.815 137.821 205.568C137.877 206.009 167.907 204.554 173.199 205.997C174.452 206.338 174.905 207.751 174.881 208.646C174.694 215.465 175.88 212.963 160.99 214.313C159.73 214.427 123.078 214.999 123.054 215.001ZM119.775 213.546C125.864 213.475 166.89 213.218 172.943 212.083C173.597 211.961 173.677 212.061 173.394 208.815C173.359 208.42 173.243 208.025 173.13 207.643C173.001 207.204 172.689 206.984 172.221 206.985C170.033 206.987 168.239 206.188 144.024 207.081C138.384 207.288 139.332 207.219 138.374 207.239C137.869 207.25 138.122 207.279 138.171 209.063C138.184 209.509 138.237 211.066 138.073 211.481C137.275 213.505 135.715 200.103 134.79 193.986C129.296 157.658 129.487 144.772 119.32 144.818C119.296 144.818 77.6318 145.517 66.7348 147.799C56.1051 150.025 53.2656 149.505 55.9403 168.708C56.6108 173.527 61.5075 207.333 65.1705 210.533C69.747 214.53 73.2718 214.092 119.774 213.547L119.775 213.546Z" fill="black"/>
<path d="M87.9319 190.794C85.8043 188.724 86.3089 188.368 85.7502 188.535C84.5557 188.892 82.1597 189.725 81.5066 188.735C80.2303 186.799 79.1752 184.951 80.2983 183.273C81.6794 181.208 82.9707 181.006 82.5479 180.107C82.4212 179.838 82.8601 179.536 81.9075 178.951C76.4751 175.616 77.1893 176.539 78.6073 171.372C78.7927 170.694 79.265 170.438 79.894 170.431C80.4158 170.425 80.9445 170.332 81.4582 170.529C81.5654 170.57 81.7001 170.534 81.8211 170.544C85.013 170.762 82.1828 170.895 86.2524 167.365C86.5393 167.117 86.4644 167.273 86.2847 164.197C86.1937 162.648 85.8216 161.366 87.3894 160.656C88.3305 160.228 89.7093 159.864 90.9522 159.81C92.4508 159.744 92.7261 161.309 93.1062 162.632C94.5657 167.712 92.9047 163.735 97.2738 166.595C97.6344 166.831 97.6275 166.822 97.912 166.519C100.755 163.508 101.099 162.764 102.626 163.496C104.356 164.328 104.745 164.786 105.682 166.233C106.359 167.279 104.526 171.426 104.024 172.567C103.932 172.777 103.944 172.943 104.041 173.14C104.571 174.223 104.791 175.39 104.936 176.574C104.995 177.052 104.814 176.932 107.498 177.473C108.902 177.757 109.464 177.663 109.652 178.548C110.078 180.551 110.164 180.608 110.152 182.655C110.147 183.566 110.013 184.083 109.381 184.263C103.963 185.814 105.656 184.275 104.202 188.146C104.073 188.489 104.072 188.414 105.714 191.358C106.203 192.236 105.634 192.636 104.549 193.649C101.853 196.169 102.01 195.521 100.299 194.246C99.08 193.34 98.9602 193.279 98.7782 193.351C97.7104 193.78 96.7992 193.668 94.7005 193.744C92.7042 197.383 92.2872 197.112 88.6196 195.168C88.0125 194.846 88.1151 194.48 88.1151 192.745C88.0102 192.745 88.3028 191.154 87.9319 190.794ZM88.8972 178.156C89.0504 179.743 89.0608 181.863 90.6711 184.208C92.3794 186.694 94.8537 186.853 96.3062 185.161C98.132 183.034 98.3151 178.321 96.3131 175.012C93.6131 170.548 88.8385 171.867 88.8972 178.156Z" fill="black"/>
<path d="M131.06 207.288C129.187 207.078 119.716 207.106 114.321 207.408C107.853 207.767 72.2627 207.524 68.0191 206.802C67.54 206.72 67.2405 206.672 67.07 206.689C66.6461 206.734 66.4238 207.346 66.8753 207.586C69.2309 208.843 83.8405 208.281 97.206 208.837C102.994 209.079 105.626 209.016 115.234 208.519C121.472 208.197 130.375 208.521 131.097 208.328C131.818 208.138 131.655 207.354 131.06 207.287V207.288Z" fill="black"/>
<path d="M143.352 209.419C144.7 209.423 144.566 211.484 143.208 211.592C142.628 211.638 142.217 211.171 142.194 210.564C142.171 209.976 142.804 209.362 143.352 209.419Z" fill="black"/>
<path d="M148.94 210.347C148.933 211.575 146.812 211.765 146.835 210.415C146.845 209.821 147.374 209.314 148.003 209.345C148.531 209.372 149.026 209.933 148.94 210.347Z" fill="black"/>
<path d="M42.8317 50.7489C70.1594 51.0864 87.3918 74.3456 75.9695 94.5603C72.1107 101.39 70.7906 98.6622 73.8835 102.141C79.4898 108.446 81.9456 110.045 82.4559 110.747C84.3565 113.365 75.7415 112.545 71.1834 110.627C68.0905 109.325 66.6495 108.264 64.2467 106.569C63.893 106.32 63.9495 106.492 62.2654 107.351C34.0277 121.758 0.15148 100.353 7.36352 74.1694C11.4067 59.4918 27.7441 50.5635 42.8317 50.7489ZM77.8828 81.4736C78.0453 57.2883 43.6587 42.9333 20.615 58.7627C3.95851 70.2045 4.26607 90.8039 18.8941 102.203C29.2312 110.258 43.2936 112.038 54.9128 108.587C60.6159 106.893 61.9889 105.483 64.0819 104.719C64.977 104.393 66.5827 106.639 70.2089 108.319C72.7972 109.518 77.5281 111.134 80.7695 110.892C78.3206 108.408 76.7897 107.633 72.6164 102.813C68.8877 98.5056 70.771 100.093 74.0102 94.7688C76.625 90.4722 77.8471 86.4429 77.8805 81.4736H77.8828Z" fill="black"/>
<path d="M44.284 78.1756C44.5179 78.3093 44.6883 78.5512 44.8761 78.7585C48.6474 82.9146 43.5364 89.0772 38.8805 86.2942C33.6232 83.1518 37.8368 74.4792 44.284 78.1756Z" fill="black"/>
<path d="M55.7884 77.3079C58.235 77.3563 60.6482 79.1359 60.6413 82.0779C60.6344 84.9081 58.4285 87.053 55.8183 87.038C53.2081 87.023 51.0022 84.8206 51.0068 82.1654C51.0115 79.5552 53.359 77.2595 55.7884 77.3079Z" fill="black"/>
<path d="M26.3063 86.5952C23.9392 86.7588 21.3831 84.485 21.5536 81.8517C21.3762 79.2507 23.8079 76.8951 26.289 76.9112C28.7265 76.9273 31.1754 78.8441 31.1812 81.7204C31.1858 84.2062 29.034 86.7807 26.3063 86.5952Z" fill="black"/>
</svg>
