<svg width="41" height="42" viewBox="0 0 41 42" fill="none" xmlns="http://www.w3.org/2000/svg">
<circle cx="20.5" cy="21" r="20.5" fill="#F1F1F1"/>
<path d="M11.25 25.201C10.5326 25.6152 10.2867 26.5326 10.701 27.25C11.1152 27.9674 12.0326 28.2133 12.75 27.799L11.25 25.201ZM30.7694 16.8882C30.9838 16.088 30.5089 15.2655 29.7087 15.0511L16.6687 11.5571C15.8685 11.3426 15.046 11.8175 14.8316 12.6177C14.6172 13.4179 15.0921 14.2404 15.8923 14.4548L27.4834 17.5607L24.3776 29.1518C24.1631 29.952 24.638 30.7745 25.4382 30.9889C26.2384 31.2033 27.0609 30.7284 27.2753 29.9282L30.7694 16.8882ZM12.75 27.799L30.0705 17.799L28.5705 15.201L11.25 25.201L12.75 27.799Z" fill="#262626"/>
</svg>
