<svg width="231" height="231" viewBox="0 0 231 231" fill="none" xmlns="http://www.w3.org/2000/svg">
<path d="M158.431 86.4144C164.866 89.6893 166.139 99.4984 169.662 101.101C173.837 103.001 180.783 92.4536 187.516 95.3416C193.279 97.8135 193.775 101.361 196.155 108.876C197.996 114.687 196.288 121.972 195.291 124.427C193.725 128.284 182.029 138.307 178.013 139.402C174.845 140.266 134.529 131.914 138.272 130.475C141.589 129.199 156.127 122.987 154.687 122.123C153.247 121.259 155.839 102.253 155.839 102.253C155.839 102.253 149.332 100.953 146.048 98.5093C143.032 96.2654 142.207 94.0643 140 91.022C134.091 82.8777 127.905 68.272 127.905 68.272C127.905 68.272 131.136 69.3371 133.089 70.2878C140.171 73.7352 140.525 81.0339 147.776 84.1106C151.695 85.7736 154.636 84.4835 158.431 86.4144Z" fill="white"/>
<path d="M80.1011 110.028L115.234 116.076L123.009 143.721L87.0125 136.234L80.1011 110.028Z" fill="white"/>
<circle cx="91.3321" cy="26.5157" r="17.5665" fill="white"/>
<path d="M57.5816 37.8966C62.1893 31.2847 63.0647 22.3114 58.5377 15.423C56.3886 12.1736 53.3674 9.59539 49.8205 7.98389C46.2735 6.37238 42.3443 5.79278 38.4831 6.31151C34.3215 7.0151 30.4776 8.98379 27.4746 11.9497C24.4716 14.9156 22.4552 18.7347 21.7 22.8874C20.9552 27.0515 21.57 31.3449 23.4536 35.1327C25.3371 38.9205 28.3894 42.0018 32.1592 43.921C40.4183 48.2292 52.1216 45.6835 57.5816 37.8966ZM34.0253 44.0823C30.3179 42.6022 27.1662 39.9995 25.0118 36.6388C22.8574 33.2781 21.8082 29.3277 22.011 25.3409C22.2906 20.155 24.6188 15.2926 28.4835 11.8233C32.3481 8.354 37.4326 6.56196 42.6185 6.84138C58.0539 7.67075 66.3937 25.1796 57.19 37.4358C54.5682 40.9013 50.8927 43.4226 46.7157 44.6211C42.5388 45.8196 38.0857 45.6305 34.0253 44.0823ZM135.485 45.2342C139.703 46.4792 144.21 46.3363 148.341 44.8265C152.472 43.3168 156.009 40.52 158.43 36.8484C162.612 30.1098 162.957 21.4129 158.292 14.8356C155.28 10.4338 150.643 7.40801 145.401 6.42309C140.159 5.43817 134.74 6.57468 130.336 9.5829C116.467 19.0515 119.681 40.4999 135.485 45.2342ZM123.493 33.4042C122.332 30.9792 121.682 28.3409 121.584 25.6538C121.487 22.9667 121.944 20.2883 122.927 17.7855C123.91 15.2827 125.398 13.0092 127.298 11.1066C129.198 9.20401 131.469 7.7131 133.971 6.72679C136.472 5.74048 139.15 5.2799 141.837 5.37375C144.525 5.4676 147.164 6.11387 149.59 7.2723C152.017 8.43072 154.179 10.0765 155.942 12.107C157.704 14.1375 159.03 16.5093 159.836 19.0746C161.506 23.2403 161.629 27.8664 160.184 32.1154C158.739 36.3644 155.821 39.9557 151.957 42.2393C149.566 43.7586 146.872 44.7386 144.064 45.1113C141.255 45.484 138.4 45.2403 135.695 44.3972C132.99 43.5541 130.502 42.1319 128.403 40.2295C126.303 38.327 124.644 35.9901 123.539 33.3812L123.493 33.4042ZM210.059 23.0025C209.114 15.688 203.458 9.5829 196.604 7.22151C192.586 5.8514 188.236 5.79486 184.184 7.06008C180.132 8.3253 176.587 10.8467 174.062 14.2596C169.074 21.171 168.533 31.1925 173.808 38.0694C176.544 41.597 180.365 44.1267 184.681 45.2684C188.996 46.4101 193.568 46.1003 197.69 44.3869C201.813 42.6735 205.257 39.6516 207.492 35.7871C209.727 31.9226 210.629 27.4302 210.059 23.0025ZM209.517 29.1076C208.895 32.507 207.4 35.6863 205.179 38.3337C202.957 40.9811 200.086 43.0057 196.846 44.209C193.023 45.6297 188.853 45.8263 184.913 44.7717C180.973 43.717 177.459 41.4634 174.857 38.3228C172.827 35.7784 171.464 32.7682 170.89 29.5645C170.316 26.3608 170.55 23.0646 171.57 19.9739C172.59 16.8833 174.365 14.0956 176.733 11.863C179.101 9.63044 181.988 8.02336 185.134 7.18709C188.279 6.35082 191.584 6.31173 194.748 7.07337C197.912 7.835 200.837 9.37334 203.257 11.5493C205.678 13.7252 207.518 16.4701 208.611 19.5358C209.704 22.6015 210.015 25.8912 209.517 29.1076Z" fill="black"/>
<path d="M44.5422 17.1624C37.481 11.0227 33.3457 28.8081 33.1499 32.9779H33.4148C33.6452 32.0219 34.8432 26.677 35.3155 25.744C35.4191 25.6173 47.3759 25.744 47.4911 25.744C47.7214 26.7001 48.7466 32.7245 49.2074 32.6554C49.6681 32.5863 48.4587 26.5388 47.6869 23.5554C47.0764 21.3092 46.4083 18.7405 44.5422 17.1624ZM35.5689 24.7073C36.3176 22.0349 38.3565 16.2178 41.9619 16.644C45.8323 17.0702 46.5695 22.1731 47.3644 25.1565C47.2837 24.8225 38.345 25.145 35.5689 24.7073ZM147.752 33.2544C146.492 34.1652 144.925 34.5456 143.387 34.3141C138.952 34.0262 135.957 29.8333 136.21 25.5712C136.66 20.906 140.392 17.4273 143.871 17.0241C146.255 16.8168 146.278 18.0493 147.2 18.0493C145.932 16.0565 142.834 16.0565 140.876 16.978C138.691 18.2272 136.985 20.1686 136.026 22.4956C135.544 23.5543 135.275 24.6978 135.235 25.8605C135.195 27.0232 135.385 28.1823 135.794 29.2716C136.203 30.3608 136.822 31.3587 137.617 32.2082C138.412 33.0576 139.367 33.742 140.426 34.222C143.824 35.7886 147.752 33.9686 147.752 33.2544ZM188.898 16.0335C188.415 16.0335 187.366 16.0335 187.182 16.4482C186.998 16.8629 187.251 17.6001 187.263 17.8765C187.516 23.4863 186.756 31.5381 187.193 36.1226C188.352 36.1878 189.513 36.1027 190.649 35.8692C192.588 35.4144 194.381 34.4799 195.864 33.1515C197.348 31.8232 198.474 30.1435 199.139 28.2667C201.224 22.5648 196.201 15.6764 188.898 16.0335ZM197.25 30.1903C194.623 34.0377 188.253 36.929 187.758 35.0974C187.7 34.5906 187.839 20.5835 187.873 19.351C187.873 18.8211 187.62 17.2084 187.965 16.8168C188.311 16.4251 190.269 16.5403 190.845 16.6786C198.459 18.4525 200.521 25.3869 197.25 30.1903ZM178.013 74.5961C178.163 73.8358 176.861 73.1562 176.25 73.4442C176.573 73.5709 177.921 74.1584 178.013 74.5961ZM172.253 78.6393H173.014C172.104 78.1785 171.747 78.0172 172.288 76.9805C172.829 75.9438 174.165 74.6767 173.901 74.4463C173.636 74.216 170.042 77.9251 172.253 78.6393ZM176.377 76.6234C176.596 76.3124 177.08 75.172 176.239 75.6098C175.801 75.8401 175.882 77.3031 176.377 76.6234ZM171.816 74.8495C172.011 74.4694 172.461 73.2944 171.712 74.0317C171.47 74.2736 171.263 75.4024 171.816 74.8495ZM171.689 80.0331C171.796 80.285 171.969 80.5033 172.19 80.6649C172.411 80.8266 172.671 80.9256 172.944 80.9516C173.216 80.9775 173.491 80.9294 173.738 80.8124C173.986 80.6953 174.197 80.5136 174.35 80.2865C173.497 80.2865 172.887 80.6896 171.689 80.0331ZM172.576 72.1886L172.276 72.2923C172.461 72.2923 173.67 72.4536 173.843 72.6955C173.705 72.1656 173.014 72.0849 172.576 72.1886ZM169.281 165.688C165.653 164.536 163.441 168.614 162.762 171.448C162.368 173.305 162.152 175.195 162.117 177.092C162.117 177.703 161.875 178.117 162.577 178.106C163.471 177.9 164.326 177.554 165.112 177.081C166.54 176.516 171.908 174.777 173.002 174.351C173.889 173.982 174.154 173.763 174.039 172.807C173.59 169.996 172.253 166.667 169.281 165.688ZM173.463 173.533C173.463 174.143 164.985 176.32 162.831 177.207C163.107 173.809 162.831 167.243 167.139 166.057C171.101 164.94 173.463 170.388 173.463 173.533Z" fill="black"/>
<path d="M196.27 143.687C195.326 143.319 188.311 141.844 188.288 141.81C188.092 140.473 188.184 139.909 188 139.057C187.943 138.833 187.942 138.6 187.999 138.376C188.055 138.153 188.166 137.947 188.322 137.778C191.509 135.338 194.196 132.307 196.236 128.851C201.27 119.566 200.348 106.446 192.953 98.3254C192.17 97.4499 191.214 96.7934 190.43 96.0216C190.691 95.9161 190.921 95.7463 191.099 95.528C191.277 95.3097 191.397 95.05 191.447 94.773C191.498 94.496 191.478 94.2107 191.389 93.9437C191.299 93.6766 191.144 93.4365 190.937 93.2455C191.461 93.2046 191.963 93.0151 192.383 92.6993C192.803 92.3834 193.125 91.9542 193.31 91.4621C193.495 90.97 193.536 90.4353 193.428 89.9208C193.319 89.4063 193.067 88.9333 192.699 88.5573C194.6 88.5573 196.501 85.8503 194.347 84.6408C196.881 84.3874 197.71 80.5631 195.234 79.584C195.716 79.4747 196.145 79.2012 196.448 78.8103C196.751 78.4193 196.908 77.9353 196.893 77.4411C196.878 76.9469 196.692 76.4732 196.366 76.1013C196.04 75.7294 195.595 75.4824 195.107 75.4026C195.505 74.9322 195.777 74.3678 195.896 73.763C196.015 73.1582 195.977 72.5331 195.787 71.9469C195.578 71.4336 195.183 71.018 194.681 70.7831C194.179 70.5482 193.607 70.5113 193.08 70.6798C193.321 70.1149 193.377 69.4877 193.238 68.8891C193.099 68.2905 192.774 67.7517 192.308 67.3508C191.708 66.9361 191.03 66.6477 190.315 66.5031C189.6 66.3585 188.863 66.3609 188.149 66.5099C188.144 65.9505 187.953 65.4088 187.607 64.9692C187.261 64.5295 186.78 64.2167 186.237 64.0794C185.366 63.8965 184.46 63.9767 183.634 64.3098C183.07 64.4826 183.288 64.5171 182.908 64.1946C182.125 63.538 181.756 62.7317 180.524 62.7662C179.787 62.7662 178.612 63.3076 178.485 64.1485C178.078 63.7332 177.59 63.4063 177.051 63.1882C176.511 62.9702 175.933 62.8658 175.352 62.8814C174.499 62.8814 173.336 63.1924 173.555 64.2983C173.165 64.0205 172.698 63.8711 172.219 63.8709C171.741 63.8708 171.274 64.0197 170.883 64.2972C170.493 64.5746 170.199 64.9668 170.042 65.4191C169.885 65.8714 169.873 66.3614 170.007 66.8209C167.818 65.9224 163.004 69.7007 165.399 71.7626C162.865 71.5207 160.158 76.0361 162.992 77.453C162.452 77.5801 161.964 77.8694 161.593 78.282C161.222 78.6945 160.986 79.2107 160.918 79.7612C160.849 80.3116 160.95 80.87 161.207 81.3613C161.465 81.8526 161.867 82.2534 162.358 82.5098C160.469 83.2701 162.358 85.2744 163.372 85.6775C163.292 85.7013 163.223 85.7523 163.177 85.8218C163.13 85.8912 163.11 85.9747 163.119 86.0577C152.279 82.8093 150.068 84.2261 147.937 82.2333C146.658 81.0815 145.633 79.7798 144.389 78.5818C140.811 74.9968 136.887 71.7749 132.674 68.9635C131.937 68.4221 129.426 66.1759 128.504 66.8555C128.297 66.556 128.377 65.8994 128.285 65.5884C127.951 63.8145 125.981 62.9621 125.981 65.1507C124.882 64.0271 123.951 62.7507 123.217 61.3609C110.166 39.5554 110.926 40.1084 109.544 37.8391C109.256 37.4838 109.009 37.0974 108.807 36.6872C108.703 36.2265 109.095 35.7542 109.313 35.2819C114.198 25.3295 110.742 14.6283 101.987 9.4563C88.8327 1.28933 72.038 10.5506 71.3583 25.963C71.277 28.7443 71.78 31.5118 72.8348 34.0866C73.8897 36.6614 75.473 38.9863 77.4824 40.911C79.4918 42.8357 81.8826 44.3175 84.5004 45.2606C87.1182 46.2037 89.9048 46.5872 92.68 46.3862C95.1018 46.3252 97.4853 45.7685 99.6836 44.7505C101.043 46.0752 108.38 58.3775 128.942 89.905C131.557 93.9136 134.701 99.2469 138.353 103.359C139.689 104.615 141.428 103.924 142.822 103.025C143.474 102.606 143.981 101.996 144.275 101.28C144.57 100.563 144.638 99.773 144.469 99.0165C147.84 101.454 151.836 102.881 155.988 103.129C155.03 106.419 154.533 109.827 154.514 113.254C154.338 115.047 154.019 116.823 153.558 118.564C153.063 120.123 153.063 121.797 153.558 123.356C150.192 124.364 146.956 125.764 143.917 127.526C137.247 131.281 136.556 133.286 135.773 133.562C135.669 133.562 121.742 131.258 121.742 131.258C121.132 128.954 117.135 114.59 117.135 114.417C116.812 113.266 117.135 113.15 115.983 113.001L80.8961 109.291C80.2856 109.222 79.8479 109.073 79.4216 109.522C78.6614 110.294 79.053 110.985 79.3064 111.826L83.7873 127.952C79.1797 128.528 50.8315 131.327 47.4334 131.696C46.6763 131.744 45.9268 131.875 45.1987 132.088C44.5306 132.468 44.6688 133.101 44.6919 133.758V188.439C44.5773 189.419 44.6516 190.412 44.9107 191.364C45.3728 191.832 45.9309 192.193 46.5464 192.424C47.3998 192.865 48.2809 193.25 49.1843 193.576C50.0597 193.703 50.2671 193.415 54.7479 192.079C55.1281 191.975 55.1281 192.079 55.1626 191.203C55.9344 169.904 55.4045 172.704 55.4276 141.015C63.2605 142.731 117.872 154.665 120.418 155.01C117.864 160.305 116.157 165.969 115.361 171.794C113.863 181.988 116.697 187.621 117.665 193.68C117.748 194.107 117.678 194.55 117.468 194.932C117.257 195.313 116.919 195.608 116.513 195.765C115.603 196.306 110.753 198.552 112.412 199.739C114.716 201.328 118.344 200.05 120.775 199.52C121.88 199.413 122.943 199.042 123.873 198.437C124.305 197.956 124.631 197.389 124.829 196.774C125.028 196.159 125.095 195.509 125.025 194.866C124.884 191.897 125.109 188.922 125.693 186.008C126.535 183.009 127.788 180.141 129.414 177.484C128.159 183.9 128.366 190.777 131.234 199.946C131.411 200.321 131.502 200.73 131.502 201.144C131.502 201.558 131.411 201.967 131.234 202.342C130.785 203.056 129.817 203.333 129.138 203.747C128.147 204.369 124.081 206.051 126.546 207.272C128.251 208.159 130.716 207.848 132.501 207.468C134.287 207.088 136.924 206.685 138.192 205.164C139.459 203.644 138.917 200.326 139.032 198.322C139.402 193.084 141.332 188.077 144.573 183.946C144.573 187.402 144.746 221.498 144.757 221.613C144.919 222.086 149.365 224.389 149.446 224.447C150.01 224.758 150.252 225.034 150.816 224.792C151.853 224.219 152.839 223.561 153.765 222.823C154.767 222.143 155.274 222.097 155.263 220.83C155.125 207.272 154.687 200.614 154.733 200.326C155.885 199.9 158.292 199.048 160.124 198.345C161.621 197.78 162.635 197.032 162.531 195.419C162.531 195.281 162.635 185.616 162.704 185.052C162.9 184.153 163.614 184.015 164.42 183.796C168.74 182.644 170.399 181.838 174.027 181.066C174.373 181.4 174.315 183.935 174.338 184.522C174.338 184.649 174.672 193.737 174.868 193.864C175.479 194.382 177.529 192.954 178.07 192.712C179.337 192.09 180.708 191.641 181.872 190.961C183.657 189.924 183.139 187.241 183.231 185.444C183.358 182.748 183.358 180.041 183.427 177.38C183.553 172.093 184.095 166.875 183.427 161.599C183.082 159.723 182.518 157.894 181.745 156.151C181.745 156.151 184.302 155.46 186.917 150.046C187.291 149.932 187.678 149.87 188.069 149.861C188.495 154.941 188.265 193.933 188.299 194.152C188.484 194.59 189.555 195.085 189.912 195.408C190.039 195.511 192.492 197.354 192.653 197.377C193.368 197.377 194.819 195.914 195.36 195.511C196.386 194.716 196.512 194.716 196.512 193.541V145.45C196.443 145 196.743 144.044 196.27 143.687ZM108.15 17.1049C111.306 22.8644 111.686 30.1214 107.689 35.7542C107.359 35.5291 107.071 35.2485 106.837 34.9248C106.572 34.3834 106.837 34.418 107.24 33.9572C107.643 33.4965 109.037 32.2524 108.899 32.1257C108.761 31.999 107.505 33.0818 106.906 33.6692C106.307 34.2567 106.388 34.2797 105.754 33.8766C105.23 33.2885 104.672 32.7309 104.084 32.2063C104.856 31.4346 105.927 30.9392 106.388 29.9025C106.987 28.6354 105.512 28.1747 104.487 28.3705C102.552 28.8658 102.183 29.5224 101.78 29.5224C101.334 29.1693 100.915 28.7843 100.524 28.3705C101.325 27.8474 102.094 27.2781 102.828 26.6657C103.98 25.7442 106.779 23.809 106.63 22.1618C106.388 19.2935 99.2574 23.8666 96.7577 24.9609C96.5602 24.8331 96.3818 24.678 96.2279 24.5001C96.8307 24.0182 97.2938 23.3839 97.5692 22.6629C97.8446 21.9419 97.9224 21.1605 97.7944 20.3994C98.14 19.8119 104.879 16.3792 103.773 14.4555C102.379 12.025 96.8614 16.0106 94.6382 17.2547C93.0541 16.9309 91.4401 16.7765 89.8233 16.7939C91.6663 15.4692 96.608 11.5412 97.6332 10.6888C98.2091 10.2166 99.1191 9.43326 98.8888 8.6039C102.877 10.2646 106.155 13.2734 108.15 17.1049ZM104.003 31.8377C103.347 31.1811 102.736 30.467 102.103 29.8104C102.725 29.4418 106.077 27.8291 106.307 29.269C106.445 30.179 104.614 31.4115 104.003 31.8377ZM99.96 27.9558C99.1433 27.0863 98.282 26.2597 97.3798 25.4792C98.7789 24.592 100.225 23.7807 101.711 23.0487C102.517 22.634 104.683 21.2978 105.812 21.7816C107.148 22.3461 104.66 24.0854 104.234 24.5347C102.851 25.7096 101.4 26.8039 99.96 27.9558ZM93.9241 18.5218C94.8801 18.0725 96.2279 18.994 96.6541 19.8925C96.7544 20.1253 96.8278 20.3688 96.8729 20.6182C96.3546 21.0214 91.482 24.0739 90.7909 24.6153L87.3352 24.8918C87.2393 24.1046 87.2124 23.3107 87.2546 22.5188C87.3467 22.4497 92.2538 19.2475 93.9241 18.5218ZM87.3352 19.6737C87.5195 17.8191 89.7542 17.8882 91.2977 17.9112C92.0283 17.9228 92.7566 17.996 93.4748 18.1301C91.3539 19.2541 89.3001 20.5002 87.3237 21.8623C87.2891 21.0444 87.2315 20.4569 87.3006 19.6737H87.3352ZM95.4791 17.3699C96.6928 16.5478 97.963 15.8126 99.2804 15.1697C100.213 14.709 102.056 13.7529 103.082 14.2136C104.51 14.8357 102.414 16.4368 101.815 16.9206C100.513 17.9982 99.1431 18.9909 97.7138 19.8925C97.5538 19.3319 97.2654 18.8162 96.8715 18.3864C96.4777 17.9565 95.9891 17.6242 95.4446 17.4159L95.4791 17.3699ZM93.5324 24.2813C93.0385 24.3981 92.5299 24.4408 92.0234 24.408C92.5533 24.0048 93.1753 23.6707 93.6591 23.2561C93.5272 23.4068 93.4417 23.5926 93.4131 23.7909C93.3844 23.9892 93.4139 24.1915 93.4979 24.3734L93.5324 24.2813ZM89.4893 25.9285C88.6829 26.5044 87.842 27.0804 87.0818 27.6909V26.0782C87.871 26.0141 88.6633 25.9949 89.4547 26.0206L89.4893 25.9285ZM90.4914 25.7672C91.7124 25.5944 92.4151 25.5023 93.6591 25.4332C93.7732 25.7629 93.8581 26.1021 93.9125 26.4468C93.8204 26.7233 91.9889 27.472 86.7823 31.2963C86.7823 30.9738 86.9205 29.0732 86.9781 28.7621C87.8305 27.9558 90.4684 25.8594 90.4684 25.8594L90.4914 25.7672ZM93.855 27.0689C93.855 27.184 94.6958 30.4439 95.0069 31.6765C94.788 32.0335 90.2956 32.5749 86.7477 32.1833C86.8514 31.5958 92.0234 28.5087 93.8204 27.161L93.855 27.0689ZM94.0393 23.0142L96.7923 21.0444C96.8283 21.4326 96.78 21.824 96.6508 22.1917C96.5216 22.5595 96.3144 22.8951 96.0436 23.1754C95.8477 23.3713 95.5713 23.6132 95.5713 23.6132C95.2603 23.4173 94.5115 22.8529 94.0047 23.1063L94.0393 23.0142ZM96.9305 7.92427C93.6246 8.66149 90.6066 11.1611 87.8766 12.9811C84.784 15.0032 81.8602 17.2721 79.1337 19.7658C77.9818 20.7564 76.5995 22.4728 75.1251 22.8644C73.4087 23.3137 73.7197 21.2057 74.2151 19.9962C75.2723 18.2857 76.5897 16.7506 78.12 15.4462C78.6153 14.9163 84.0984 9.53693 85.3654 8.16617C89.1082 6.92279 93.1391 6.83847 96.9305 7.92427ZM72.4987 31.1927C71.4867 26.6349 72.1147 21.8663 74.2723 17.726C76.4298 13.5858 79.9787 10.3392 84.2942 8.55782C83.5109 9.23744 81.6218 11.115 80.7118 12.0135C79.629 13.0963 69.5268 22.0466 74.1575 23.2906C76.0811 23.809 78.3043 20.8947 79.5714 19.8349C83.9827 15.941 88.8437 12.5882 94.0508 9.84795C95.0537 9.12896 96.183 8.60531 97.3798 8.3044C98.4626 8.17769 98.6469 8.82276 97.9903 9.57149C96.7001 10.8847 89.4547 16.3101 89.3165 16.4368C88.7264 16.7385 88.0654 16.8738 87.4043 16.8285C85.4115 16.9897 85.6534 17.2662 85.6073 19.3972C81.9891 22.2238 78.5282 25.2463 75.2402 28.4511C74.3302 29.4072 72.8443 30.5591 72.6254 31.9068C72.5672 31.6719 72.5249 31.4333 72.4987 31.1927ZM73.1092 32.5634C72.683 31.2503 75.2172 29.1999 78.5347 26.2625C80.9537 24.143 83.5109 22.2078 86.0336 20.2266V22.323C86.0336 22.323 84.9508 23.4749 80.0437 28.0825C79.6405 28.4972 73.5815 33.9572 73.1092 32.5634ZM73.1092 33.3582C75.7125 33.1624 78.2928 30.9623 80.0206 29.2229C81.9904 27.2301 83.9141 25.4677 86.0105 23.4634V28.2553C85.1351 29.4072 80.8615 33.1624 78.7766 35.7657C77.7514 36.9176 77.4519 38.7837 79.03 38.7837C80.1819 38.7837 80.9882 37.7239 81.737 37.0558C83.2575 35.7311 86.0681 33.2315 86.0796 33.22C87.6923 33.9572 92.035 33.531 93.878 33.1278C88.6944 37.2401 86.3446 38.8067 81.9904 43.3452C77.9023 41.2286 74.7606 37.6509 73.1899 33.3237L73.1092 33.3582ZM79.1797 36.1343C81.3072 33.6513 83.5886 31.3045 86.0105 29.1077C85.9414 30.3748 85.8032 31.6304 85.6765 32.4482C85.2848 32.8859 80.562 37.0558 80.4468 37.2171C78.1891 39.0832 77.4173 38.1617 79.2028 36.0998L79.1797 36.1343ZM82.4972 43.6332C86.3217 39.8761 90.389 36.3744 94.6728 33.1509C95.122 33.0011 95.8247 33.1509 95.6634 33.7959C95.5828 34.1876 94.0853 35.063 93.7743 35.3165C90.7333 37.6203 83.6722 43.9212 83.557 44.0363C83.4418 44.1515 82.6354 43.6677 82.5203 43.5986L82.4972 43.6332ZM84.1905 44.2552C86.4252 41.7786 95.5713 34.4871 95.7095 34.3834C95.9169 35.4547 96.2624 36.4799 96.5274 37.5281C95.5525 38.109 94.6208 38.7596 93.7398 39.4748C93.1868 40.0853 92.346 41.1796 93.2905 41.7786C94.2351 42.3776 96.608 41.5828 97.5756 41.0875C97.827 42.0356 98.257 42.927 98.8427 43.7138C95.4446 45.6029 87.2546 46.1328 84.2135 44.2206L84.1905 44.2552ZM96.6195 38.0925C96.896 39.6937 97.4258 40.523 97.3798 40.7304C97.23 41.3179 92.8874 42.7117 93.3827 40.7304C93.6937 39.4748 95.6058 38.4957 96.6426 38.058L96.6195 38.0925ZM108.784 38.8298H108.703C108.519 39.8549 107.159 39.3251 106.56 39.901C105.961 40.477 106.031 41.7441 105.293 42.4352C104.28 43.3913 103.554 42.4928 102.483 42.2855C101.227 42.0205 100.651 43.6332 99.5108 43.4374C98.3704 43.2415 98.2552 41.41 97.9903 40.6267C96.9075 37.3668 95.0644 30.5361 94.3848 27.8637C95.4561 28.2899 97.6793 27.6333 97.6793 26.2164C103.704 32.6095 100.248 29.004 107.079 35.8348C107.943 36.6527 109.06 37.5396 108.807 38.7952L108.784 38.8298ZM126.742 67.9267C126.536 67.3668 126.245 66.8422 125.878 66.3717C125.717 66.1183 125.44 65.3465 125.152 65.2198C125.521 65.4041 125.855 65.8994 126.304 65.5423C126.753 65.1852 126.304 64.0218 127.145 64.2867C127.721 64.4595 127.882 65.8994 127.859 66.3371C127.858 66.6605 127.765 66.977 127.592 67.2501C127.419 67.5232 127.172 67.7418 126.88 67.8807L126.742 67.9267ZM135.231 98.5443C134.828 98.0144 134.494 97.3923 134.079 96.897C136.683 97.162 140.138 95.3305 140.657 92.6004C141.002 93.2801 141.924 94.6048 141.739 95.365C141.454 96.366 140.81 97.2271 139.931 97.784C138.848 98.6134 136.36 99.9726 135.254 98.5097L135.231 98.5443ZM143.859 100.526C143.583 101.414 143.026 102.19 142.272 102.736C141.519 103.282 140.608 103.57 139.678 103.555C138.526 103.555 136.798 100.756 135.842 99.4082C138.364 100.56 141.601 98.2563 142.177 95.7106C143.087 96.9892 144.124 98.9129 143.859 100.526ZM155.148 112.701C155.242 109.684 155.628 106.683 156.299 103.739C157.221 100.86 160.585 95.8488 160.101 95.5378C159.433 95.1116 156.253 102.449 156.196 102.576C154.834 102.528 153.486 102.295 152.187 101.885C149.624 101.04 147.151 99.9443 144.803 98.6134C143.859 97.7494 141.187 92.2203 130.543 73.7438C130.186 73.1449 127.56 68.1686 127.329 68.2838C128.251 67.8231 128.481 66.7403 129.483 67.3393C133.095 69.5658 136.537 72.0569 139.781 74.7921C141.985 76.7337 144.088 78.7867 146.082 80.9432C146.879 82.0111 147.917 82.8755 149.112 83.4659C153.235 84.5141 152.049 83.2931 162.024 86.0116C164.858 86.7718 167.496 87.8316 170.295 88.7185C170.749 88.9456 171.25 89.0639 171.758 89.0639C172.266 89.0639 172.767 88.9456 173.221 88.7185C173.595 88.4317 173.902 88.066 174.119 87.6473C174.258 87.4054 175.191 85.5854 175.018 85.3435C174.845 85.1016 174.269 85.2053 173.866 85.1131C173.265 84.9174 172.704 84.6171 172.207 84.2261C168.59 81.4501 169.431 76.1628 171.942 72.2924C172.64 71.178 173.722 70.3583 174.983 69.9887C176.485 69.7813 178.008 69.7813 179.51 69.9887C179.51 74.8497 182.805 76.9807 183.496 78.72C183.505 79.0112 183.544 79.3006 183.611 79.584C183.853 79.8835 183.611 79.7798 183.957 79.7337C184.302 79.6876 184.567 79.319 184.855 79.2499C185.604 79.0541 186.318 79.4227 186.26 80.2636C186.145 81.6804 184.152 82.913 182.931 81.9914C181.837 84.7215 180.731 88.6494 182.183 91.437C182.828 92.396 183.818 93.0687 184.947 93.3146C186.386 93.878 187.751 94.6129 189.013 95.5032C183.427 95.1807 178.266 101.781 171.147 100.71C169.842 100.522 168.601 100.023 167.528 99.2549C166.456 98.4872 165.584 97.4731 164.985 96.298C163.176 92.5198 165.757 87.6242 165.376 87.4745C165.261 87.4745 165.169 87.8661 165.088 88.0735C163.775 91.725 163.165 95.8718 166.24 98.8898C169.523 102.092 174.073 101.931 177.875 100.295C181.676 98.6594 186.917 94.6508 189.566 96.1598C193.095 98.6255 195.733 102.165 197.088 106.25C202.56 121.859 194.531 137.513 180.063 140.911C178.947 141.26 177.772 141.385 176.607 141.28C175.473 141.04 174.454 140.423 173.716 139.529C172.951 138.936 172.414 138.098 172.196 137.156C172.518 133.412 176.965 126.282 180.466 122.481C180.881 122.008 181.526 121.513 181.952 121.064C182.551 120.465 182.805 120.281 182.632 119.428C182.273 118.059 181.992 116.671 181.791 115.27C181.526 112.252 182.09 106.285 181.653 106.181C181.215 106.078 181.019 111.572 181.215 114.245C181.515 118.426 182.805 119.693 181.756 120.672C179.067 122.99 176.806 125.762 175.075 128.862C174.062 129.484 164.985 128.321 157.244 124.957C151.68 122.688 154.86 119.394 155.148 112.713V112.701ZM187.597 141.694C185.742 141.315 183.87 141.031 181.987 140.842C183.715 140.324 185.258 139.379 186.952 138.815C187.585 138.619 187.551 138.63 187.631 139.218C187.673 140.047 187.661 140.878 187.597 141.706V141.694ZM146.209 127.088C148.722 125.888 151.307 124.846 153.95 123.967C155.704 125.194 157.65 126.121 159.709 126.708C161.31 127.307 162.945 127.811 164.605 128.217C167.937 128.96 171.33 129.399 174.741 129.53C174.368 129.993 174.04 130.491 173.762 131.016C172.978 132.568 172.304 134.173 171.746 135.82C171.605 136.173 171.553 136.555 171.595 136.933C171.637 137.311 171.772 137.672 171.988 137.985C171.427 137.784 170.82 137.744 170.237 137.87C169.834 137.985 169.397 138.4 169.086 138.504C168.245 138.331 137.5 133.504 137.385 133.481C140.02 130.96 142.989 128.812 146.209 127.1V127.088ZM79.8824 109.66L115.453 113.496C115.73 113.496 115.799 113.565 115.856 113.634C115.914 113.703 122.906 139.345 122.929 139.46C123.113 140.22 123.516 140.819 122.733 141.003C120.844 133.597 120.314 130.97 116.524 117.677C116.305 116.871 116.018 114.533 115.372 114.222C115.257 114.222 115.971 114.222 79.3525 110.328L79.8824 109.66ZM128.481 137.985C127.648 138.165 126.79 138.197 125.947 138.077C125.106 137.974 123.09 137.882 123.09 137.098L128.481 137.985ZM122.722 136.465L122.595 135.831L131.188 137.352C128.481 137.893 125.509 136.891 122.722 136.465ZM125.371 138.619L123.482 139.091L123.228 138.365L125.371 138.619ZM139.793 137.225V138.711C139.459 138.849 123.666 143.249 123.516 143.319C122.996 143.52 122.428 143.568 121.881 143.457C81.5642 135.497 87.2085 137.075 86.7132 136.914C86.2179 136.753 86.2985 136.407 86.1372 135.762C125.025 142.155 121.57 141.775 122.722 141.648L139.793 137.225ZM123.666 140.888C123.666 139.944 123.274 139.817 124.173 139.633L132.017 137.836C132.328 137.766 132.87 137.755 132.904 137.363C132.939 136.972 132.305 136.879 123.401 135.324C122.468 135.163 122.146 135.221 122.146 134.057L138.837 136.972L123.666 140.888ZM79.2834 110.72C106.929 113.715 86.2755 111.33 114.797 114.544C115.948 117.447 121.823 139.241 122.192 141.176C101.285 137.72 90.0767 135.889 86.2409 135.163C86.1372 135.083 79.318 110.893 79.2834 110.72ZM54.6673 191.353L49.7602 192.931C49.599 179.315 49.5298 143.399 49.5298 139.01C51.2644 139.432 52.9569 140.01 54.5867 140.738C54.9553 141.994 54.6673 142.109 54.6673 191.376V191.353ZM126.442 181.159C126.004 182.103 125.797 183.209 125.29 184.13C124.415 185.789 121.086 185.144 119.646 184.672C118.759 184.399 117.941 183.941 117.246 183.327C116.551 182.713 115.995 181.958 115.614 181.112C115.015 179.108 115.453 176.505 115.614 174.42C116.328 167.75 118.134 161.244 120.959 155.16C121.696 155.287 131.603 157.568 134.678 158.04C132.553 163.056 130.925 168.268 129.817 173.602C129.264 176.827 128.02 177.853 126.442 181.159ZM144.354 181.781C140.806 188.796 141.728 186.388 140.046 190.639C138.986 193.161 135.922 192.804 133.722 192.205C132.475 191.884 131.363 191.172 130.551 190.172C129.738 189.173 129.267 187.94 129.207 186.653C129.143 185.116 129.193 183.576 129.357 182.045C129.527 179.463 129.858 176.893 130.347 174.351C131.499 168.326 134.644 158.339 135.381 158.109C135.842 158.109 144.055 159.63 144.124 159.722C144.193 159.814 144.377 180.894 144.354 181.734V181.781ZM181.814 158.121C183.795 164.18 183.162 167.808 182.782 178.359C182.666 181.746 182.586 185.121 182.436 188.473C182.355 190.04 181.422 190.466 180.132 191.007C178.508 191.733 176.976 192.643 175.317 193.311C174.868 188.853 174.96 184.303 174.638 179.834C173.428 180.352 167.15 182.195 163.038 183.462C162.289 183.693 162.059 183.624 161.955 184.407C161.575 187.529 162.301 190.523 161.759 195.684C161.621 196.836 161.103 197.193 160.112 197.642C158.304 198.483 156.311 199.013 154.491 199.727C154.491 199.451 154.687 172.231 154.687 170.262C155.148 169.611 155.746 169.069 156.438 168.672C164.662 162.624 168.106 162.797 175.651 159.63C177.614 158.826 179.477 157.798 181.204 156.565C181.445 157.068 181.649 157.588 181.814 158.121ZM181.054 155.817C173.394 161.311 163.775 160.747 154.733 169.098V159.987C154.733 159.215 154.618 159.33 155.217 159.1C158.315 157.948 185.327 150.553 185.477 150.506C184.497 152.636 182.971 154.468 181.054 155.817ZM191.928 196.133C191.144 195.672 189.071 194.567 188.841 193.611C188.61 192.654 189.071 152.396 188.841 149.262L191.824 148.433C191.836 152.361 191.928 196.133 191.928 196.133ZM151.346 152.983C150.194 153.225 150.425 153.213 150.425 154.25V223.364C150.393 223.45 150.34 223.526 150.269 223.584C150.199 223.642 150.115 223.681 150.025 223.696C149.935 223.711 149.842 223.702 149.757 223.67C149.671 223.638 149.596 223.584 149.538 223.514C149.411 223.307 149.538 153.029 149.538 153.006C149.538 152.983 151.289 153.375 45.671 132.353C45.7862 132.353 83.1192 128.482 83.8449 128.436C83.8449 128.551 85.9529 136.188 86.1487 136.856C86.3446 137.525 87.4158 137.363 88.0955 137.49C125.336 144.401 122.468 144.056 123.378 143.791C140.035 139.034 140.115 139.322 140.207 139.034C140.234 138.777 140.234 138.518 140.207 138.262C140.207 138.043 140.288 137.041 140.138 136.926C139.989 136.81 121.961 133.608 121.961 133.608C121.781 133.061 121.635 132.503 121.524 131.938C131.441 133.493 168.613 139.241 168.613 139.241C169.212 139.345 169.765 139.817 170.376 139.817C169.652 140.174 169.018 140.69 168.521 141.326C168.026 142.144 168.521 142.593 169.42 142.478C169.27 142.503 169.129 142.566 169.01 142.661C168.892 142.757 168.8 142.881 168.743 143.022C168.686 143.163 168.667 143.316 168.686 143.467C168.706 143.618 168.764 143.761 168.855 143.883C169.145 144.043 169.474 144.12 169.805 144.106C170.136 144.092 170.457 143.987 170.733 143.802C170.422 144.056 170.733 144.401 170.986 144.517C171.47 144.747 172.253 144.229 172.553 143.964C173.371 143.249 174.787 141.556 174.569 141.441C174.35 141.326 173.417 142.685 172.783 143.284C172.587 143.457 171.516 144.436 171.159 144.113C170.583 143.653 173.463 141.706 170.583 143.123C170.272 143.273 169.155 143.802 169.431 143.123C169.592 142.708 171.608 142.201 171.447 141.717C171.286 141.234 168.072 142.869 169.143 141.476C169.5 140.992 171.021 140.404 171.101 139.874C171.182 139.345 169.834 139.69 169.754 139.022C169.673 138.354 170.71 138.308 171.113 138.285C171.476 138.291 171.838 138.326 172.196 138.388C172.495 138.55 172.864 139.264 173.083 139.54C173.55 140.22 174.169 140.781 174.891 141.181C175.612 141.581 176.417 141.808 177.241 141.844C178.831 141.925 180.213 141.107 181.745 141.36C198.54 144.136 192.723 143.296 193.99 143.503C184.613 145.703 156.127 151.992 151.346 153.029V152.983Z" fill="black"/>
</svg>
