<svg width="231" height="231" viewBox="0 0 231 231" fill="none" xmlns="http://www.w3.org/2000/svg">
<path d="M138.159 50.3578C148.01 67.075 160.217 109.15 143.5 119C126.783 128.85 94.374 98.01 84.5238 81.2928C74.6736 64.5756 78.4192 48.4567 95.1364 38.6065C111.854 28.7563 128.309 33.6406 138.159 50.3578Z" fill="white"/>
<path d="M151.676 213.481C151.139 212.361 145.173 203.214 139.91 196.084C133.115 187.022 133.028 187.51 133.028 186.781C133.028 180.879 132.968 178.039 133.268 174.373C138.274 172.502 135.986 168.334 128.313 168.334C123.972 168.334 120.699 169.8 120.699 171.743C120.699 172.792 121.654 173.702 123.216 174.317C123.402 176.652 123.471 179.007 123.471 181.428C123.471 187.163 123.667 186.97 122.706 188.182C120.54 190.917 112.627 201.592 107.287 209.845C106.139 211.247 105.248 212.904 104.483 214.561C104.101 215.963 104.611 217.492 105.757 218.512C108.05 220.806 110.854 222.462 114.04 223.355C117.609 224.374 121.304 224.885 124.999 224.885C129.077 225.013 133.155 224.885 137.106 224.376C142.08 223.861 148.452 221.391 151.379 217.366C152.392 216.05 152.278 214.734 151.677 213.481H151.676ZM121.654 171.744C121.654 170.584 124.389 169.291 128.312 169.291C132.236 169.291 134.97 170.584 134.97 171.744C134.97 172.904 132.236 174.196 128.312 174.196C124.389 174.196 121.654 172.904 121.654 171.744ZM150.104 217.749C148.957 218.896 147.683 219.915 146.281 220.679C143.349 222.209 140.163 223.228 136.978 223.483C130.254 224.179 121.984 224.415 115.441 222.718C112.255 221.953 109.451 220.297 107.03 218.131C106.393 217.622 106.01 216.984 105.628 216.347C105.373 215.327 105.5 214.308 106.138 213.543C110.57 205.945 123.641 188.682 123.724 188.565C124.623 187.667 124.616 187.233 124.616 186.653C124.616 181.794 124.67 178.696 124.384 174.694C126.761 175.309 129.898 175.307 132.274 174.685C131.94 179.724 132.008 179.707 132.008 185.762C131.88 186.271 131.88 186.909 132.008 187.418C132.39 188.055 132.772 188.565 133.282 189.074C133.282 189.074 137.105 194.044 138.124 195.319C139.938 197.701 150.803 212.451 151.25 215.581C151.122 216.472 150.741 217.237 150.103 217.748L150.104 217.749Z" fill="black"/>
<path d="M128.312 172.437C130.737 172.437 132.703 172.012 132.703 171.488C132.703 170.964 130.737 170.539 128.312 170.539C125.888 170.539 123.921 170.964 123.921 171.488C123.921 172.012 125.888 172.437 128.312 172.437Z" fill="black"/>
<path d="M144.879 210.739C143.177 208.015 142.059 206.069 138.63 201.829C137.574 200.523 135.253 199.977 134.557 199.907C131.622 199.417 117.655 199.213 117.705 202.813C116.037 204.712 113.036 208.797 111.745 211.12C111.108 211.885 110.853 212.905 110.98 213.924C111.234 215.963 113.273 216.982 114.93 217.747C120.666 220.616 128.782 220.697 135.193 219.786C137.353 219.48 139.398 218.895 141.309 218.002C144.903 216.205 147.025 214.174 144.878 210.738L144.879 210.739Z" fill="white"/>
<path d="M128.893 176.683C128.225 176.398 127.267 176.485 126.681 176.974C125.619 177.861 125.876 180.008 127.789 180.327C129.668 180.45 130.467 177.356 128.893 176.683ZM128.011 179.302C127.681 179.445 127.114 179.375 126.989 178.895C126.809 178.203 127.718 177.394 128.129 177.394C128.741 177.394 129.143 178.773 128.011 179.301V179.302Z" fill="black"/>
<path d="M129.3 183.452C128.091 182.645 126.705 184.181 126.485 185.346C126.142 187.167 128.361 188.328 129.326 187.031C129.611 186.747 129.746 186.339 129.878 185.945C130.205 184.968 130.108 184.248 129.301 183.452H129.3ZM128.907 184.65C129.268 186.456 127.349 187.179 127.334 185.542C127.582 184.299 128.484 183.39 128.907 184.65Z" fill="black"/>
<path d="M126.81 192.948L126.8 192.929C126.284 192.158 125.922 191.983 125.004 192.903C124.28 193.625 124.69 195.24 125.93 195.24C126.749 195.24 127.486 194.301 126.811 192.948H126.81Z" fill="black"/>
<path d="M130.512 195.809C130.3 195.199 129.834 195.005 129.251 195.266C127.73 195.944 127.758 197.523 128.584 198.06C129.547 198.685 131.073 197.421 130.511 195.808L130.512 195.809Z" fill="black"/>
<path d="M146.545 127.156C145.947 126.561 145.635 127.078 145.976 127.649C146.877 129.155 147.893 130.456 147.894 132.225C147.764 133.906 146.847 135.33 145.43 136.04C138.459 140.109 126.448 130.642 116.159 133.729C107.976 136.067 103.032 145.483 107.262 153.094C111.065 160.01 118.085 159.13 123.631 162.46C126.365 164.199 128.455 167.628 126.95 170.56C126.688 171.069 126.891 171.322 127.118 171.322C127.988 171.322 129.456 166.822 126.925 163.362C123.131 158.179 114.626 158.749 110.211 154.8C103.613 148.2 107.006 136.988 116.761 134.443C121.565 133.109 126.429 134.551 131.133 135.948C136.397 137.511 143.315 139.591 147.291 135.804C149.884 133.334 149.077 129.665 146.544 127.156H146.545Z" fill="black"/>
<path d="M158.547 125.288C156.784 121.922 154.584 120.419 153.503 119.44C152.688 118.704 151.92 118.008 150.572 118.307C148.995 118.701 147.559 119.628 146.531 120.913C145.298 122.392 143.699 123.402 141.78 123.914C140.952 124.12 139.653 123.802 140.542 122.802C144.755 118.589 150.787 117.374 150.787 113.744C150.648 112.227 149.397 111.038 147.952 111.038C145.565 110.865 143.818 112.761 138.258 117.46C137.647 118.071 136.792 118.565 135.93 118.813C135.391 118.904 134.41 118.779 134.215 118.427C134.134 118.28 134.207 118.077 134.41 117.844C135.084 117.304 135.697 116.96 136.418 116.717C137.267 116.292 138.032 115.753 138.612 115.171C141.715 112.783 144.417 111.535 145.879 110.07C147.151 109.052 147.959 107.4 146.818 106.2C146.127 105.473 144.953 105.224 144.089 105.304C140.987 105.763 138.314 107.94 135.956 109.861C134.332 111.182 132.974 112.51 130.297 113.467C129.728 113.658 129.263 113.481 129.232 113.33C129.076 112.566 135.965 107.817 138.088 106.259C139.119 105.612 140.12 104.864 141.159 104.338C142.085 103.644 143.281 103.349 144.624 103.481C145.604 103.481 145.662 102.376 144.969 102.015C137.471 79.4032 148.904 54.718 133.53 39.5947C119.419 25.7304 91.5409 27.1012 80.2465 47.1488C71.9102 61.384 73.8799 77.9771 86.9137 88.4053C99.7804 98.8369 110.909 99.9439 118.776 105.739C120.576 107.127 122.691 109.097 125.032 108.575C127.019 108.178 128.367 106.301 128.09 104.264C127.546 102.904 126.758 101.767 125.766 100.902C114.564 87.9584 116.604 90.1055 114.304 88.168C113.913 87.645 113.251 86.5715 112.662 86.5715C111.499 86.4044 110.119 87.7418 109.966 87.8938C109.232 88.6276 108.469 89.2692 107.582 89.9039C105.116 91.2747 102.656 88.0701 104.609 85.8377C105.593 84.7307 106.84 84.1064 108.338 83.9809C110.857 83.4556 113.062 82.1459 115.194 80.8788C121.66 77.0349 122.58 76.6951 124.355 75.1412C125.255 74.2415 125.801 73.0597 125.934 71.7246C126.055 70.6338 126.653 69.5314 127.525 68.7838C129.097 67.5755 131.398 67.7909 132.65 69.5337C132.714 69.5994 132.78 69.7825 132.887 69.8977C133.812 71.5392 133.461 74.1632 131.284 75.2506C128.154 77.0383 128.31 78.5036 129.077 81.0205C129.935 83.8369 130.695 86.6544 132.102 90.2495C133.173 92.8655 134.362 95.6669 135.81 98.4291C136.293 99.2378 137.476 98.6146 137.131 97.7507C134.64 92.9634 131.891 85.3032 130.963 81.6033C130.557 79.9826 129.945 78.7627 130.369 77.9138C130.97 76.9508 132.363 76.5592 133.265 75.7874C135.887 73.5389 135.499 68.861 131.936 67.0813C129.707 66.2946 127.223 66.9293 125.744 68.6779C124.924 69.9081 124.444 71.2109 124.317 72.5517C123.698 73.8948 122.574 75.0145 121.2 75.6411C109.798 82.4822 109.683 82.3279 106.738 82.7495C103.862 83.3254 101.584 86.2662 102.658 89.222C103.173 90.6377 104.329 91.6444 105.857 91.8829C108.647 92.3172 109.843 89.1805 112.136 88.4364C112.136 88.4364 125.035 102.98 125.892 104.069C126.88 105.057 126.751 106.759 125.055 107.611C123.632 108.204 122.282 107.159 121.023 106.231C111.827 99.4486 105.526 99.6974 92.3484 91.0662C88.8754 88.426 86.0486 85.8907 83.7091 83.315C68.2713 65.7371 80.2039 37.2252 102.983 32.7512C115.398 30.2712 127.027 34.6346 133.407 41.6186C146.739 56.2892 136.463 81.9236 143.554 101.876C142.057 101.978 140.725 102.796 139.437 103.592C135.78 105.853 132.099 108.443 128.858 111.191C128.182 111.598 127.636 112.413 127.5 113.251C127.5 113.991 127.954 114.67 128.632 114.942C130.065 115.465 131.618 114.603 132.748 113.971C133.1 113.774 135.745 112.012 137.339 110.708C138.621 109.659 140.114 108.636 141.775 107.666C142.79 107.087 143.634 106.778 144.494 106.67C144.877 106.67 145.393 106.74 145.62 107.096C145.892 107.525 145.642 107.793 145.164 108.262C144.512 108.901 142.15 110.735 139.688 112.213C138.044 113.226 136.817 114.697 135 115.385C130.499 117.089 132.447 121.716 137.062 120.028C139.19 118.812 140.697 117.662 141.932 116.314C145.477 113.273 145.578 113.016 147.201 112.402C147.938 112.28 148.62 112.534 149.056 113.073C149.598 114.156 148.138 115.202 147.826 115.412C145.602 117.266 143.349 117.919 140.169 120.647C139.468 121.348 138.589 121.976 138.589 123.064C138.589 125.059 140.595 126.292 143.155 125.264C145.121 124.474 147.007 123.165 148.332 121.38C148.995 120.486 149.733 119.909 150.681 119.527C151.79 119.082 152.201 119.611 152.942 120.254C154.688 121.763 156.338 123.276 157.341 125.183C162.109 134.285 152.416 143.176 140.703 140.353C137.178 139.722 133.802 138.181 130.267 137.297C128.023 136.713 123.829 136.055 120.943 138.218C118.342 140.168 118.402 143.761 119.614 146.454C122.384 152.823 130.184 155.33 131.839 161.718C132.698 165.28 131.231 169.056 128.351 170.698C128.232 170.766 127.919 170.945 128.038 171.179C128.131 171.363 128.478 171.367 128.624 171.302C133.042 169.359 135.366 161.875 130.483 156.34C128.292 153.763 125.508 152.002 123.212 149.578C121.361 147.624 118.556 143.828 120.561 140.353C122.071 137.712 125.52 137.096 130.814 138.521C137.093 140.253 143.676 143.789 152.089 140.422C158.061 137.579 161.269 131.551 158.545 125.287L158.547 125.288Z" fill="black"/>
<path d="M95.7854 115.855C85.568 134.02 84.0671 136.206 82.6503 140.224C82.4706 140.943 83.5292 141.534 83.8459 140.883C86.7833 137.143 92.1753 126.017 93.8053 122.758C94.7821 120.803 95.6633 118.572 96.6171 116.236C96.814 115.647 96.0008 115.273 95.7854 115.855Z" fill="black"/>
<path d="M68.468 96.6563C66.663 97.5882 64.9581 98.7597 62.9723 100.106C60.3609 101.878 50.2484 107.715 46.992 110.988C46.6533 111.497 47.0115 112.187 47.7061 112.01C48.6726 111.648 49.5757 111.155 50.526 110.475C51.565 109.955 66.3404 100.081 69.2778 97.5928C69.8549 97.2081 69.1534 96.3027 68.468 96.6575V96.6563Z" fill="black"/>
<path d="M59.4464 53.7096C59.0525 53.5507 56.1554 52.689 54.2963 52.4183C43.4626 50.8437 42.7162 50.6582 41.4249 50.6341C40.0933 50.4428 38.7617 50.5891 38.6466 50.6513C38.0752 50.9382 37.937 51.5371 38.4749 52.0751C38.5901 52.1903 39.7593 52.7132 40.9711 52.8837C42.1944 53.2327 54.3043 55.4398 59.3692 55.4398C60.2401 55.4398 60.2251 54.1001 59.4464 53.7108V53.7096Z" fill="black"/>
<path d="M93.0471 21.8184C91.9321 18.7521 90.7157 16.1419 89.4717 13.7713C87.0423 9.14524 86.6437 7.03957 85.3617 6.08003C84.8652 5.58472 84.0451 6.16412 84.0508 6.87254C84.5692 9.4816 90.43 20.1056 91.8503 22.3541C92.2316 22.9254 93.2626 22.6179 93.0495 21.8173L93.0471 21.8184Z" fill="black"/>
<path d="M163.769 9.62924C160.713 11.7441 157.785 14.4223 154.82 17.8101C153.961 18.7466 148.059 24.8954 147.141 27.0345C146.919 27.5309 147.518 28.153 148.353 27.5309C149.264 26.8525 155.482 20.0758 156.209 19.2016C159.163 16.5038 161.956 13.5826 164.52 10.5047C164.897 9.9368 164.258 9.12932 163.768 9.62924H163.769Z" fill="black"/>
<path d="M192.819 65.9272C188.34 65.2879 186.729 65.5563 182.212 65.7982C178.455 65.9998 174.803 66.6483 171.714 67.336C170.752 67.6574 170.95 69.2251 172.024 69.2021C172.958 69.1814 175.91 68.7955 176.442 68.7298C184.507 67.7288 187.299 68.3854 192.541 67.8002C193.506 67.8002 193.939 66.2429 192.82 65.9272H192.819Z" fill="black"/>
<path d="M181.148 107.361C178.157 105.866 175.106 104.627 172.346 103.789C169.297 102.463 165.985 101.559 163.144 100.848C162.416 100.667 162.078 101.478 162.652 101.685C167.576 104.147 169.929 104.719 174.654 106.659C175.495 107.005 180.183 108.867 180.76 108.867C181.168 108.867 181.498 108.559 181.498 108.152C181.498 107.892 181.498 107.536 181.147 107.36L181.148 107.361Z" fill="black"/>
</svg>
